<?xml version="1.0" encoding="us-ascii" standalone="no"?><svg xmlns="http://www.w3.org/2000/svg" xmlns:xlink="http://www.w3.org/1999/xlink" contentStyleType="text/css" height="1019px" preserveAspectRatio="none" style="width:893px;height:1019px;background:#FFFFFF;" version="1.1" viewBox="0 0 893 1019" width="893px" zoomAndPan="magnify"><defs/><g><rect fill="none" height="132.3359" style="stroke:#000000;stroke-width:1.5;" width="510" x="30" y="127.4297"/><rect fill="none" height="589.9375" style="stroke:#000000;stroke-width:1.5;" width="876.5" x="10" y="332.0313"/><rect fill="none" height="398.3359" style="stroke:#000000;stroke-width:1.5;" width="856.5" x="20" y="443.5625"/><rect fill="none" height="206.7344" style="stroke:#000000;stroke-width:1.5;" width="836.5" x="30" y="555.0938"/><line style="stroke:#181818;stroke-width:0.5;stroke-dasharray:5.0,5.0;" x1="72" x2="72" y1="81.2969" y2="938.9688"/><line style="stroke:#181818;stroke-width:0.5;stroke-dasharray:5.0,5.0;" x1="387.5" x2="387.5" y1="81.2969" y2="938.9688"/><line style="stroke:#181818;stroke-width:0.5;stroke-dasharray:5.0,5.0;" x1="600.5" x2="600.5" y1="81.2969" y2="938.9688"/><line style="stroke:#181818;stroke-width:0.5;stroke-dasharray:5.0,5.0;" x1="798.5" x2="798.5" y1="81.2969" y2="938.9688"/><text fill="#000000" font-family="sans-serif" font-size="14" lengthAdjust="spacing" textLength="58" x="40" y="77.9951">Student</text><ellipse cx="72" cy="13.5" fill="#E2E2F0" rx="8" ry="8" style="stroke:#181818;stroke-width:0.5;"/><path d="M72,21.5 L72,48.5 M59,29.5 L85,29.5 M72,48.5 L59,63.5 M72,48.5 L85,63.5 " fill="none" style="stroke:#181818;stroke-width:0.5;"/><text fill="#000000" font-family="sans-serif" font-size="14" lengthAdjust="spacing" textLength="58" x="40" y="950.9639">Student</text><ellipse cx="72" cy="962.7656" fill="#E2E2F0" rx="8" ry="8" style="stroke:#181818;stroke-width:0.5;"/><path d="M72,970.7656 L72,997.7656 M59,978.7656 L85,978.7656 M72,997.7656 L59,1012.7656 M72,997.7656 L85,1012.7656 " fill="none" style="stroke:#181818;stroke-width:0.5;"/><rect fill="#E2E2F0" height="30.2969" rx="2.5" ry="2.5" style="stroke:#181818;stroke-width:0.5;" width="145" x="315.5" y="50"/><text fill="#000000" font-family="sans-serif" font-size="14" lengthAdjust="spacing" textLength="131" x="322.5" y="69.9951">StudentController</text><rect fill="#E2E2F0" height="30.2969" rx="2.5" ry="2.5" style="stroke:#181818;stroke-width:0.5;" width="145" x="315.5" y="937.9688"/><text fill="#000000" font-family="sans-serif" font-size="14" lengthAdjust="spacing" textLength="131" x="322.5" y="957.9639">StudentController</text><rect fill="#E2E2F0" height="30.2969" rx="2.5" ry="2.5" style="stroke:#181818;stroke-width:0.5;" width="145" x="528.5" y="50"/><text fill="#000000" font-family="sans-serif" font-size="14" lengthAdjust="spacing" textLength="131" x="535.5" y="69.9951">MaterialController</text><rect fill="#E2E2F0" height="30.2969" rx="2.5" ry="2.5" style="stroke:#181818;stroke-width:0.5;" width="145" x="528.5" y="937.9688"/><text fill="#000000" font-family="sans-serif" font-size="14" lengthAdjust="spacing" textLength="131" x="535.5" y="957.9639">MaterialController</text><rect fill="#E2E2F0" height="30.2969" rx="2.5" ry="2.5" style="stroke:#181818;stroke-width:0.5;" width="115" x="741.5" y="50"/><text fill="#000000" font-family="sans-serif" font-size="14" lengthAdjust="spacing" textLength="101" x="748.5" y="69.9951">MaterialModel</text><rect fill="#E2E2F0" height="30.2969" rx="2.5" ry="2.5" style="stroke:#181818;stroke-width:0.5;" width="115" x="741.5" y="937.9688"/><text fill="#000000" font-family="sans-serif" font-size="14" lengthAdjust="spacing" textLength="101" x="748.5" y="957.9639">MaterialModel</text><polygon fill="#181818" points="376,108.4297,386,112.4297,376,116.4297,380,112.4297" style="stroke:#181818;stroke-width:1.0;"/><line style="stroke:#181818;stroke-width:1.0;" x1="72" x2="382" y1="112.4297" y2="112.4297"/><text fill="#000000" font-family="sans-serif" font-size="13" lengthAdjust="spacing" textLength="110" x="79" y="107.3638">login(credentials)</text><path d="M30,127.4297 L96,127.4297 L96,134.5625 L86,144.5625 L30,144.5625 L30,127.4297 " fill="#EEEEEE" style="stroke:#000000;stroke-width:1.5;"/><rect fill="none" height="132.3359" style="stroke:#000000;stroke-width:1.5;" width="510" x="30" y="127.4297"/><text fill="#000000" font-family="sans-serif" font-size="13" font-weight="bold" lengthAdjust="spacing" textLength="21" x="45" y="140.4966">alt</text><text fill="#000000" font-family="sans-serif" font-size="11" font-weight="bold" lengthAdjust="spacing" textLength="120" x="111" y="139.6401">[valid credentials]</text><line style="stroke:#181818;stroke-width:1.0;" x1="388" x2="430" y1="165.6953" y2="165.6953"/><line style="stroke:#181818;stroke-width:1.0;" x1="430" x2="430" y1="165.6953" y2="178.6953"/><line style="stroke:#181818;stroke-width:1.0;" x1="389" x2="430" y1="178.6953" y2="178.6953"/><polygon fill="#181818" points="399,174.6953,389,178.6953,399,182.6953,395,178.6953" style="stroke:#181818;stroke-width:1.0;"/><text fill="#000000" font-family="sans-serif" font-size="13" lengthAdjust="spacing" textLength="133" x="395" y="160.6294">validateCredentials()</text><polygon fill="#181818" points="83,203.8281,73,207.8281,83,211.8281,79,207.8281" style="stroke:#181818;stroke-width:1.0;"/><line style="stroke:#181818;stroke-width:1.0;stroke-dasharray:2.0,2.0;" x1="77" x2="387" y1="207.8281" y2="207.8281"/><text fill="#000000" font-family="sans-serif" font-size="13" lengthAdjust="spacing" textLength="82" x="89" y="202.7622">loginSuccess</text><line style="stroke:#000000;stroke-width:1.0;stroke-dasharray:2.0,2.0;" x1="30" x2="540" y1="216.8281" y2="216.8281"/><text fill="#000000" font-family="sans-serif" font-size="11" font-weight="bold" lengthAdjust="spacing" textLength="132" x="35" y="227.0386">[invalid credentials]</text><polygon fill="#181818" points="83,247.7656,73,251.7656,83,255.7656,79,251.7656" style="stroke:#181818;stroke-width:1.0;"/><line style="stroke:#181818;stroke-width:1.0;stroke-dasharray:2.0,2.0;" x1="77" x2="387" y1="251.7656" y2="251.7656"/><text fill="#000000" font-family="sans-serif" font-size="13" lengthAdjust="spacing" textLength="169" x="89" y="246.6997">loginFailure(errorMessage)</text><polygon fill="#181818" points="376,283.8984,386,287.8984,376,291.8984,380,287.8984" style="stroke:#181818;stroke-width:1.0;"/><line style="stroke:#181818;stroke-width:1.0;" x1="72" x2="382" y1="287.8984" y2="287.8984"/><text fill="#000000" font-family="sans-serif" font-size="13" lengthAdjust="spacing" textLength="162" x="79" y="282.8325">selectMaterial(materialId)</text><polygon fill="#181818" points="589,313.0313,599,317.0313,589,321.0313,593,317.0313" style="stroke:#181818;stroke-width:1.0;"/><line style="stroke:#181818;stroke-width:1.0;" x1="388" x2="595" y1="317.0313" y2="317.0313"/><text fill="#000000" font-family="sans-serif" font-size="13" lengthAdjust="spacing" textLength="189" x="395" y="311.9653">getMaterialDetails(materialId)</text><path d="M10,332.0313 L76,332.0313 L76,339.1641 L66,349.1641 L10,349.1641 L10,332.0313 " fill="#EEEEEE" style="stroke:#000000;stroke-width:1.5;"/><rect fill="none" height="589.9375" style="stroke:#000000;stroke-width:1.5;" width="876.5" x="10" y="332.0313"/><text fill="#000000" font-family="sans-serif" font-size="13" font-weight="bold" lengthAdjust="spacing" textLength="21" x="25" y="345.0981">alt</text><text fill="#000000" font-family="sans-serif" font-size="11" font-weight="bold" lengthAdjust="spacing" textLength="111" x="91" y="344.2417">[material exists]</text><polygon fill="#181818" points="787,366.2969,797,370.2969,787,374.2969,791,370.2969" style="stroke:#181818;stroke-width:1.0;"/><line style="stroke:#181818;stroke-width:1.0;" x1="601" x2="793" y1="370.2969" y2="370.2969"/><text fill="#000000" font-family="sans-serif" font-size="13" lengthAdjust="spacing" textLength="174" x="608" y="365.231">retrieveMaterial(materialId)</text><polygon fill="#181818" points="612,395.4297,602,399.4297,612,403.4297,608,399.4297" style="stroke:#181818;stroke-width:1.0;"/><line style="stroke:#181818;stroke-width:1.0;stroke-dasharray:2.0,2.0;" x1="606" x2="798" y1="399.4297" y2="399.4297"/><text fill="#000000" font-family="sans-serif" font-size="13" lengthAdjust="spacing" textLength="97" x="618" y="394.3638">materialDetails</text><polygon fill="#181818" points="399,424.5625,389,428.5625,399,432.5625,395,428.5625" style="stroke:#181818;stroke-width:1.0;"/><line style="stroke:#181818;stroke-width:1.0;stroke-dasharray:2.0,2.0;" x1="393" x2="600" y1="428.5625" y2="428.5625"/><text fill="#000000" font-family="sans-serif" font-size="13" lengthAdjust="spacing" textLength="97" x="405" y="423.4966">materialDetails</text><path d="M20,443.5625 L86,443.5625 L86,450.6953 L76,460.6953 L20,460.6953 L20,443.5625 " fill="#EEEEEE" style="stroke:#000000;stroke-width:1.5;"/><rect fill="none" height="398.3359" style="stroke:#000000;stroke-width:1.5;" width="856.5" x="20" y="443.5625"/><text fill="#000000" font-family="sans-serif" font-size="13" font-weight="bold" lengthAdjust="spacing" textLength="21" x="35" y="456.6294">alt</text><text fill="#000000" font-family="sans-serif" font-size="11" font-weight="bold" lengthAdjust="spacing" textLength="154" x="101" y="455.7729">[material is accessible]</text><polygon fill="#181818" points="376,477.8281,386,481.8281,376,485.8281,380,481.8281" style="stroke:#181818;stroke-width:1.0;"/><line style="stroke:#181818;stroke-width:1.0;" x1="72" x2="382" y1="481.8281" y2="481.8281"/><text fill="#000000" font-family="sans-serif" font-size="13" lengthAdjust="spacing" textLength="186" x="79" y="476.7622">downloadMaterial(materialId)</text><polygon fill="#181818" points="589,506.9609,599,510.9609,589,514.9609,593,510.9609" style="stroke:#181818;stroke-width:1.0;"/><line style="stroke:#181818;stroke-width:1.0;" x1="388" x2="595" y1="510.9609" y2="510.9609"/><text fill="#000000" font-family="sans-serif" font-size="13" lengthAdjust="spacing" textLength="186" x="395" y="505.895">downloadMaterial(materialId)</text><polygon fill="#181818" points="787,536.0938,797,540.0938,787,544.0938,791,540.0938" style="stroke:#181818;stroke-width:1.0;"/><line style="stroke:#181818;stroke-width:1.0;" x1="601" x2="793" y1="540.0938" y2="540.0938"/><text fill="#000000" font-family="sans-serif" font-size="13" lengthAdjust="spacing" textLength="166" x="608" y="535.0278">getMaterialFile(materialId)</text><path d="M30,555.0938 L96,555.0938 L96,562.2266 L86,572.2266 L30,572.2266 L30,555.0938 " fill="#EEEEEE" style="stroke:#000000;stroke-width:1.5;"/><rect fill="none" height="206.7344" style="stroke:#000000;stroke-width:1.5;" width="836.5" x="30" y="555.0938"/><text fill="#000000" font-family="sans-serif" font-size="13" font-weight="bold" lengthAdjust="spacing" textLength="21" x="45" y="568.1606">alt</text><text fill="#000000" font-family="sans-serif" font-size="11" font-weight="bold" lengthAdjust="spacing" textLength="192" x="111" y="567.3042">[file exists and is accessible]</text><polygon fill="#181818" points="612,589.3594,602,593.3594,612,597.3594,608,593.3594" style="stroke:#181818;stroke-width:1.0;"/><line style="stroke:#181818;stroke-width:1.0;stroke-dasharray:2.0,2.0;" x1="606" x2="798" y1="593.3594" y2="593.3594"/><text fill="#000000" font-family="sans-serif" font-size="13" lengthAdjust="spacing" textLength="63" x="618" y="588.2935">fileDetails</text><polygon fill="#181818" points="399,618.4922,389,622.4922,399,626.4922,395,622.4922" style="stroke:#181818;stroke-width:1.0;"/><line style="stroke:#181818;stroke-width:1.0;stroke-dasharray:2.0,2.0;" x1="393" x2="600" y1="622.4922" y2="622.4922"/><text fill="#000000" font-family="sans-serif" font-size="13" lengthAdjust="spacing" textLength="185" x="405" y="617.4263">provideDownload(fileDetails)</text><polygon fill="#181818" points="83,647.625,73,651.625,83,655.625,79,651.625" style="stroke:#181818;stroke-width:1.0;"/><line style="stroke:#181818;stroke-width:1.0;stroke-dasharray:2.0,2.0;" x1="77" x2="387" y1="651.625" y2="651.625"/><text fill="#000000" font-family="sans-serif" font-size="13" lengthAdjust="spacing" textLength="160" x="89" y="646.5591">downloadLink(fileDetails)</text><line style="stroke:#000000;stroke-width:1.0;stroke-dasharray:2.0,2.0;" x1="30" x2="866.5" y1="660.625" y2="660.625"/><text fill="#000000" font-family="sans-serif" font-size="11" font-weight="bold" lengthAdjust="spacing" textLength="208" x="35" y="670.8354">[file not found or inaccessible]</text><polygon fill="#181818" points="612,691.5625,602,695.5625,612,699.5625,608,695.5625" style="stroke:#181818;stroke-width:1.0;"/><line style="stroke:#181818;stroke-width:1.0;stroke-dasharray:2.0,2.0;" x1="606" x2="798" y1="695.5625" y2="695.5625"/><text fill="#000000" font-family="sans-serif" font-size="13" lengthAdjust="spacing" textLength="31" x="618" y="690.4966">error</text><polygon fill="#181818" points="399,720.6953,389,724.6953,399,728.6953,395,724.6953" style="stroke:#181818;stroke-width:1.0;"/><line style="stroke:#181818;stroke-width:1.0;stroke-dasharray:2.0,2.0;" x1="393" x2="600" y1="724.6953" y2="724.6953"/><text fill="#000000" font-family="sans-serif" font-size="13" lengthAdjust="spacing" textLength="31" x="405" y="719.6294">error</text><polygon fill="#181818" points="83,749.8281,73,753.8281,83,757.8281,79,753.8281" style="stroke:#181818;stroke-width:1.0;"/><line style="stroke:#181818;stroke-width:1.0;stroke-dasharray:2.0,2.0;" x1="77" x2="387" y1="753.8281" y2="753.8281"/><text fill="#000000" font-family="sans-serif" font-size="13" lengthAdjust="spacing" textLength="292" x="89" y="748.7622">errorMessage("File not found or inaccessible")</text><line style="stroke:#000000;stroke-width:1.0;stroke-dasharray:2.0,2.0;" x1="20" x2="876.5" y1="769.8281" y2="769.8281"/><text fill="#000000" font-family="sans-serif" font-size="11" font-weight="bold" lengthAdjust="spacing" textLength="182" x="25" y="780.0386">[material is not accessible]</text><polygon fill="#181818" points="399,800.7656,389,804.7656,399,808.7656,395,804.7656" style="stroke:#181818;stroke-width:1.0;"/><line style="stroke:#181818;stroke-width:1.0;stroke-dasharray:2.0,2.0;" x1="393" x2="600" y1="804.7656" y2="804.7656"/><text fill="#000000" font-family="sans-serif" font-size="13" lengthAdjust="spacing" textLength="31" x="405" y="799.6997">error</text><polygon fill="#181818" points="83,829.8984,73,833.8984,83,837.8984,79,833.8984" style="stroke:#181818;stroke-width:1.0;"/><line style="stroke:#181818;stroke-width:1.0;stroke-dasharray:2.0,2.0;" x1="77" x2="387" y1="833.8984" y2="833.8984"/><text fill="#000000" font-family="sans-serif" font-size="13" lengthAdjust="spacing" textLength="252" x="89" y="828.8325">errorMessage("Material not accessible")</text><line style="stroke:#000000;stroke-width:1.0;stroke-dasharray:2.0,2.0;" x1="10" x2="886.5" y1="849.8984" y2="849.8984"/><text fill="#000000" font-family="sans-serif" font-size="11" font-weight="bold" lengthAdjust="spacing" textLength="139" x="15" y="860.1089">[material not found]</text><polygon fill="#181818" points="399,880.8359,389,884.8359,399,888.8359,395,884.8359" style="stroke:#181818;stroke-width:1.0;"/><line style="stroke:#181818;stroke-width:1.0;stroke-dasharray:2.0,2.0;" x1="393" x2="600" y1="884.8359" y2="884.8359"/><text fill="#000000" font-family="sans-serif" font-size="13" lengthAdjust="spacing" textLength="31" x="405" y="879.77">error</text><polygon fill="#181818" points="83,909.9688,73,913.9688,83,917.9688,79,913.9688" style="stroke:#181818;stroke-width:1.0;"/><line style="stroke:#181818;stroke-width:1.0;stroke-dasharray:2.0,2.0;" x1="77" x2="387" y1="913.9688" y2="913.9688"/><text fill="#000000" font-family="sans-serif" font-size="13" lengthAdjust="spacing" textLength="223" x="89" y="908.9028">errorMessage("Material not found")</text><!--SRC=[bPDDRiCW48Ntd09vPIzwWIwwIHIfKbdb1DHCer49H83T7h-0mS4_jAbNDlFcpJVZWVTE6tfsWm3bo8qRXptUk7AqIOS7hPpHKe9fABVqV5Yg67TWaCkLZ5LaJ0kGau8HaahGfnVlIv-fr1TKRMyWd7grxGYNZevSeg35CQ7-yHavBmfyXSDTqdQpAAXIeLJYFFGzM4j0Mg2ewlxRr1D7EHXemHXjc3VX5-W8AB7jneA4tkNEssjwUHKTcTXPK5rWbXp1UNUxK8R-ypU5RxHkecEJ0_CE1fn1666tKjIos4aiTrtMchqoz5vymO2MyZWzV9SGmt5Ogzw5_b9ISr5bklz1zh2-wBcOsWabxCe3zeSFfh5HhaI5VZsaa5KEe0J87TwC7b70CO6tHKwtIDhiKUxr3TNdVbhSouYkjEz13vxSNrDK3x37nQnIRwCRl7Aps-RqAqLJCFihCBENsnAITxZhL7yGvV- -Caue0ME9CCEJUjd_b8nUJRppFm00]--></g></svg>