<?xml version="1.0" encoding="us-ascii" standalone="no"?><svg xmlns="http://www.w3.org/2000/svg" xmlns:xlink="http://www.w3.org/1999/xlink" contentStyleType="text/css" height="990px" preserveAspectRatio="none" style="width:958px;height:990px;background:#FFFFFF;" version="1.1" viewBox="0 0 958 990" width="958px" zoomAndPan="magnify"><defs/><g><rect fill="none" height="132.3359" style="stroke:#000000;stroke-width:1.5;" width="500" x="30" y="127.4297"/><rect fill="none" height="560.8047" style="stroke:#000000;stroke-width:1.5;" width="941.5" x="10" y="332.0313"/><rect fill="none" height="340.0703" style="stroke:#000000;stroke-width:1.5;" width="921.5" x="20" y="501.8281"/><rect fill="none" height="206.7344" style="stroke:#000000;stroke-width:1.5;" width="901.5" x="30" y="555.0938"/><line style="stroke:#181818;stroke-width:0.5;stroke-dasharray:5.0,5.0;" x1="66" x2="66" y1="81.2969" y2="909.8359"/><line style="stroke:#181818;stroke-width:0.5;stroke-dasharray:5.0,5.0;" x1="377.5" x2="377.5" y1="81.2969" y2="909.8359"/><line style="stroke:#181818;stroke-width:0.5;stroke-dasharray:5.0,5.0;" x1="669.5" x2="669.5" y1="81.2969" y2="909.8359"/><line style="stroke:#181818;stroke-width:0.5;stroke-dasharray:5.0,5.0;" x1="874.5" x2="874.5" y1="81.2969" y2="909.8359"/><text fill="#000000" font-family="sans-serif" font-size="14" lengthAdjust="spacing" textLength="46" x="40" y="77.9951">Admin</text><ellipse cx="66" cy="13.5" fill="#E2E2F0" rx="8" ry="8" style="stroke:#181818;stroke-width:0.5;"/><path d="M66,21.5 L66,48.5 M53,29.5 L79,29.5 M66,48.5 L53,63.5 M66,48.5 L79,63.5 " fill="none" style="stroke:#181818;stroke-width:0.5;"/><text fill="#000000" font-family="sans-serif" font-size="14" lengthAdjust="spacing" textLength="46" x="40" y="921.8311">Admin</text><ellipse cx="66" cy="933.6328" fill="#E2E2F0" rx="8" ry="8" style="stroke:#181818;stroke-width:0.5;"/><path d="M66,941.6328 L66,968.6328 M53,949.6328 L79,949.6328 M66,968.6328 L53,983.6328 M66,968.6328 L79,983.6328 " fill="none" style="stroke:#181818;stroke-width:0.5;"/><rect fill="#E2E2F0" height="30.2969" rx="2.5" ry="2.5" style="stroke:#181818;stroke-width:0.5;" width="133" x="311.5" y="50"/><text fill="#000000" font-family="sans-serif" font-size="14" lengthAdjust="spacing" textLength="119" x="318.5" y="69.9951">AdminController</text><rect fill="#E2E2F0" height="30.2969" rx="2.5" ry="2.5" style="stroke:#181818;stroke-width:0.5;" width="133" x="311.5" y="908.8359"/><text fill="#000000" font-family="sans-serif" font-size="14" lengthAdjust="spacing" textLength="119" x="318.5" y="928.8311">AdminController</text><rect fill="#E2E2F0" height="30.2969" rx="2.5" ry="2.5" style="stroke:#181818;stroke-width:0.5;" width="123" x="608.5" y="50"/><text fill="#000000" font-family="sans-serif" font-size="14" lengthAdjust="spacing" textLength="109" x="615.5" y="69.9951">ClassController</text><rect fill="#E2E2F0" height="30.2969" rx="2.5" ry="2.5" style="stroke:#181818;stroke-width:0.5;" width="123" x="608.5" y="908.8359"/><text fill="#000000" font-family="sans-serif" font-size="14" lengthAdjust="spacing" textLength="109" x="615.5" y="928.8311">ClassController</text><rect fill="#E2E2F0" height="30.2969" rx="2.5" ry="2.5" style="stroke:#181818;stroke-width:0.5;" width="93" x="828.5" y="50"/><text fill="#000000" font-family="sans-serif" font-size="14" lengthAdjust="spacing" textLength="79" x="835.5" y="69.9951">ClassModel</text><rect fill="#E2E2F0" height="30.2969" rx="2.5" ry="2.5" style="stroke:#181818;stroke-width:0.5;" width="93" x="828.5" y="908.8359"/><text fill="#000000" font-family="sans-serif" font-size="14" lengthAdjust="spacing" textLength="79" x="835.5" y="928.8311">ClassModel</text><polygon fill="#181818" points="366,108.4297,376,112.4297,366,116.4297,370,112.4297" style="stroke:#181818;stroke-width:1.0;"/><line style="stroke:#181818;stroke-width:1.0;" x1="66" x2="372" y1="112.4297" y2="112.4297"/><text fill="#000000" font-family="sans-serif" font-size="13" lengthAdjust="spacing" textLength="110" x="73" y="107.3638">login(credentials)</text><path d="M30,127.4297 L96,127.4297 L96,134.5625 L86,144.5625 L30,144.5625 L30,127.4297 " fill="#EEEEEE" style="stroke:#000000;stroke-width:1.5;"/><rect fill="none" height="132.3359" style="stroke:#000000;stroke-width:1.5;" width="500" x="30" y="127.4297"/><text fill="#000000" font-family="sans-serif" font-size="13" font-weight="bold" lengthAdjust="spacing" textLength="21" x="45" y="140.4966">alt</text><text fill="#000000" font-family="sans-serif" font-size="11" font-weight="bold" lengthAdjust="spacing" textLength="120" x="111" y="139.6401">[valid credentials]</text><line style="stroke:#181818;stroke-width:1.0;" x1="378" x2="420" y1="165.6953" y2="165.6953"/><line style="stroke:#181818;stroke-width:1.0;" x1="420" x2="420" y1="165.6953" y2="178.6953"/><line style="stroke:#181818;stroke-width:1.0;" x1="379" x2="420" y1="178.6953" y2="178.6953"/><polygon fill="#181818" points="389,174.6953,379,178.6953,389,182.6953,385,178.6953" style="stroke:#181818;stroke-width:1.0;"/><text fill="#000000" font-family="sans-serif" font-size="13" lengthAdjust="spacing" textLength="133" x="385" y="160.6294">validateCredentials()</text><polygon fill="#181818" points="77,203.8281,67,207.8281,77,211.8281,73,207.8281" style="stroke:#181818;stroke-width:1.0;"/><line style="stroke:#181818;stroke-width:1.0;stroke-dasharray:2.0,2.0;" x1="71" x2="377" y1="207.8281" y2="207.8281"/><text fill="#000000" font-family="sans-serif" font-size="13" lengthAdjust="spacing" textLength="82" x="83" y="202.7622">loginSuccess</text><line style="stroke:#000000;stroke-width:1.0;stroke-dasharray:2.0,2.0;" x1="30" x2="530" y1="216.8281" y2="216.8281"/><text fill="#000000" font-family="sans-serif" font-size="11" font-weight="bold" lengthAdjust="spacing" textLength="132" x="35" y="227.0386">[invalid credentials]</text><polygon fill="#181818" points="77,247.7656,67,251.7656,77,255.7656,73,251.7656" style="stroke:#181818;stroke-width:1.0;"/><line style="stroke:#181818;stroke-width:1.0;stroke-dasharray:2.0,2.0;" x1="71" x2="377" y1="251.7656" y2="251.7656"/><text fill="#000000" font-family="sans-serif" font-size="13" lengthAdjust="spacing" textLength="169" x="83" y="246.6997">loginFailure(errorMessage)</text><polygon fill="#181818" points="366,283.8984,376,287.8984,366,291.8984,370,287.8984" style="stroke:#181818;stroke-width:1.0;"/><line style="stroke:#181818;stroke-width:1.0;" x1="66" x2="372" y1="287.8984" y2="287.8984"/><text fill="#000000" font-family="sans-serif" font-size="13" lengthAdjust="spacing" textLength="125" x="73" y="282.8325">selectClass(classId)</text><polygon fill="#181818" points="658,313.0313,668,317.0313,658,321.0313,662,317.0313" style="stroke:#181818;stroke-width:1.0;"/><line style="stroke:#181818;stroke-width:1.0;" x1="378" x2="664" y1="317.0313" y2="317.0313"/><text fill="#000000" font-family="sans-serif" font-size="13" lengthAdjust="spacing" textLength="152" x="385" y="311.9653">getClassDetails(classId)</text><path d="M10,332.0313 L76,332.0313 L76,339.1641 L66,349.1641 L10,349.1641 L10,332.0313 " fill="#EEEEEE" style="stroke:#000000;stroke-width:1.5;"/><rect fill="none" height="560.8047" style="stroke:#000000;stroke-width:1.5;" width="941.5" x="10" y="332.0313"/><text fill="#000000" font-family="sans-serif" font-size="13" font-weight="bold" lengthAdjust="spacing" textLength="21" x="25" y="345.0981">alt</text><text fill="#000000" font-family="sans-serif" font-size="11" font-weight="bold" lengthAdjust="spacing" textLength="87" x="91" y="344.2417">[class exists]</text><polygon fill="#181818" points="863,366.2969,873,370.2969,863,374.2969,867,370.2969" style="stroke:#181818;stroke-width:1.0;"/><line style="stroke:#181818;stroke-width:1.0;" x1="670" x2="869" y1="370.2969" y2="370.2969"/><text fill="#000000" font-family="sans-serif" font-size="13" lengthAdjust="spacing" textLength="181" x="677" y="365.231">retrieveClassDetails(classId)</text><polygon fill="#181818" points="681,395.4297,671,399.4297,681,403.4297,677,399.4297" style="stroke:#181818;stroke-width:1.0;"/><line style="stroke:#181818;stroke-width:1.0;stroke-dasharray:2.0,2.0;" x1="675" x2="874" y1="399.4297" y2="399.4297"/><text fill="#000000" font-family="sans-serif" font-size="13" lengthAdjust="spacing" textLength="76" x="687" y="394.3638">classDetails</text><polygon fill="#181818" points="389,424.5625,379,428.5625,389,432.5625,385,428.5625" style="stroke:#181818;stroke-width:1.0;"/><line style="stroke:#181818;stroke-width:1.0;stroke-dasharray:2.0,2.0;" x1="383" x2="669" y1="428.5625" y2="428.5625"/><text fill="#000000" font-family="sans-serif" font-size="13" lengthAdjust="spacing" textLength="76" x="395" y="423.4966">classDetails</text><polygon fill="#181818" points="366,453.6953,376,457.6953,366,461.6953,370,457.6953" style="stroke:#181818;stroke-width:1.0;"/><line style="stroke:#181818;stroke-width:1.0;" x1="66" x2="372" y1="457.6953" y2="457.6953"/><text fill="#000000" font-family="sans-serif" font-size="13" lengthAdjust="spacing" textLength="288" x="73" y="452.6294">removeStudentFromClass(studentId, classId)</text><polygon fill="#181818" points="658,482.8281,668,486.8281,658,490.8281,662,486.8281" style="stroke:#181818;stroke-width:1.0;"/><line style="stroke:#181818;stroke-width:1.0;" x1="378" x2="664" y1="486.8281" y2="486.8281"/><text fill="#000000" font-family="sans-serif" font-size="13" lengthAdjust="spacing" textLength="221" x="385" y="481.7622">removeStudent(studentId, classId)</text><path d="M20,501.8281 L86,501.8281 L86,508.9609 L76,518.9609 L20,518.9609 L20,501.8281 " fill="#EEEEEE" style="stroke:#000000;stroke-width:1.5;"/><rect fill="none" height="340.0703" style="stroke:#000000;stroke-width:1.5;" width="921.5" x="20" y="501.8281"/><text fill="#000000" font-family="sans-serif" font-size="13" font-weight="bold" lengthAdjust="spacing" textLength="21" x="35" y="514.895">alt</text><text fill="#000000" font-family="sans-serif" font-size="11" font-weight="bold" lengthAdjust="spacing" textLength="131" x="101" y="514.0386">[student is in class]</text><polygon fill="#181818" points="863,536.0938,873,540.0938,863,544.0938,867,540.0938" style="stroke:#181818;stroke-width:1.0;"/><line style="stroke:#181818;stroke-width:1.0;" x1="670" x2="869" y1="540.0938" y2="540.0938"/><text fill="#000000" font-family="sans-serif" font-size="13" lengthAdjust="spacing" textLength="170" x="677" y="535.0278">removeStudent(studentId)</text><path d="M30,555.0938 L96,555.0938 L96,562.2266 L86,572.2266 L30,572.2266 L30,555.0938 " fill="#EEEEEE" style="stroke:#000000;stroke-width:1.5;"/><rect fill="none" height="206.7344" style="stroke:#000000;stroke-width:1.5;" width="901.5" x="30" y="555.0938"/><text fill="#000000" font-family="sans-serif" font-size="13" font-weight="bold" lengthAdjust="spacing" textLength="21" x="45" y="568.1606">alt</text><text fill="#000000" font-family="sans-serif" font-size="11" font-weight="bold" lengthAdjust="spacing" textLength="138" x="111" y="567.3042">[removal successful]</text><polygon fill="#181818" points="681,589.3594,671,593.3594,681,597.3594,677,593.3594" style="stroke:#181818;stroke-width:1.0;"/><line style="stroke:#181818;stroke-width:1.0;stroke-dasharray:2.0,2.0;" x1="675" x2="874" y1="593.3594" y2="593.3594"/><text fill="#000000" font-family="sans-serif" font-size="13" lengthAdjust="spacing" textLength="136" x="687" y="588.2935">removalConfirmation</text><polygon fill="#181818" points="389,618.4922,379,622.4922,389,626.4922,385,622.4922" style="stroke:#181818;stroke-width:1.0;"/><line style="stroke:#181818;stroke-width:1.0;stroke-dasharray:2.0,2.0;" x1="383" x2="669" y1="622.4922" y2="622.4922"/><text fill="#000000" font-family="sans-serif" font-size="13" lengthAdjust="spacing" textLength="239" x="395" y="617.4263">successMessage("Student removed")</text><polygon fill="#181818" points="77,647.625,67,651.625,77,655.625,73,651.625" style="stroke:#181818;stroke-width:1.0;"/><line style="stroke:#181818;stroke-width:1.0;stroke-dasharray:2.0,2.0;" x1="71" x2="377" y1="651.625" y2="651.625"/><text fill="#000000" font-family="sans-serif" font-size="13" lengthAdjust="spacing" textLength="239" x="83" y="646.5591">successMessage("Student removed")</text><line style="stroke:#000000;stroke-width:1.0;stroke-dasharray:2.0,2.0;" x1="30" x2="931.5" y1="660.625" y2="660.625"/><text fill="#000000" font-family="sans-serif" font-size="11" font-weight="bold" lengthAdjust="spacing" textLength="107" x="35" y="670.8354">[removal failed]</text><polygon fill="#181818" points="681,691.5625,671,695.5625,681,699.5625,677,695.5625" style="stroke:#181818;stroke-width:1.0;"/><line style="stroke:#181818;stroke-width:1.0;stroke-dasharray:2.0,2.0;" x1="675" x2="874" y1="695.5625" y2="695.5625"/><text fill="#000000" font-family="sans-serif" font-size="13" lengthAdjust="spacing" textLength="31" x="687" y="690.4966">error</text><polygon fill="#181818" points="389,720.6953,379,724.6953,389,728.6953,385,724.6953" style="stroke:#181818;stroke-width:1.0;"/><line style="stroke:#181818;stroke-width:1.0;stroke-dasharray:2.0,2.0;" x1="383" x2="669" y1="724.6953" y2="724.6953"/><text fill="#000000" font-family="sans-serif" font-size="13" lengthAdjust="spacing" textLength="268" x="395" y="719.6294">errorMessage("Failed to remove student")</text><polygon fill="#181818" points="77,749.8281,67,753.8281,77,757.8281,73,753.8281" style="stroke:#181818;stroke-width:1.0;"/><line style="stroke:#181818;stroke-width:1.0;stroke-dasharray:2.0,2.0;" x1="71" x2="377" y1="753.8281" y2="753.8281"/><text fill="#000000" font-family="sans-serif" font-size="13" lengthAdjust="spacing" textLength="268" x="83" y="748.7622">errorMessage("Failed to remove student")</text><line style="stroke:#000000;stroke-width:1.0;stroke-dasharray:2.0,2.0;" x1="20" x2="941.5" y1="769.8281" y2="769.8281"/><text fill="#000000" font-family="sans-serif" font-size="11" font-weight="bold" lengthAdjust="spacing" textLength="144" x="25" y="780.0386">[student not in class]</text><polygon fill="#181818" points="389,800.7656,379,804.7656,389,808.7656,385,804.7656" style="stroke:#181818;stroke-width:1.0;"/><line style="stroke:#181818;stroke-width:1.0;stroke-dasharray:2.0,2.0;" x1="383" x2="669" y1="804.7656" y2="804.7656"/><text fill="#000000" font-family="sans-serif" font-size="13" lengthAdjust="spacing" textLength="233" x="395" y="799.6997">errorMessage("Student not in class")</text><polygon fill="#181818" points="77,829.8984,67,833.8984,77,837.8984,73,833.8984" style="stroke:#181818;stroke-width:1.0;"/><line style="stroke:#181818;stroke-width:1.0;stroke-dasharray:2.0,2.0;" x1="71" x2="377" y1="833.8984" y2="833.8984"/><text fill="#000000" font-family="sans-serif" font-size="13" lengthAdjust="spacing" textLength="233" x="83" y="828.8325">errorMessage("Student not in class")</text><line style="stroke:#000000;stroke-width:1.0;stroke-dasharray:2.0,2.0;" x1="10" x2="951.5" y1="849.8984" y2="849.8984"/><text fill="#000000" font-family="sans-serif" font-size="11" font-weight="bold" lengthAdjust="spacing" textLength="115" x="15" y="860.1089">[class not found]</text><polygon fill="#181818" points="77,880.8359,67,884.8359,77,888.8359,73,884.8359" style="stroke:#181818;stroke-width:1.0;"/><line style="stroke:#181818;stroke-width:1.0;stroke-dasharray:2.0,2.0;" x1="71" x2="377" y1="884.8359" y2="884.8359"/><text fill="#000000" font-family="sans-serif" font-size="13" lengthAdjust="spacing" textLength="207" x="83" y="879.77">errorMessage("Class not found")</text><!--SRC=[bLD1RiCW4Bpx5IkVRAdzG0-L8gf8EVYK5o1OHqW48i1HdrzOi6ixjjNcO2dipEmCkt0Hh8EJl2jJFRWBIgW7Dm5gEcBM16UrHbS3zt1YImpJtFiLXcrXEYjHvt9NLIGDxvzH3pv0svioZN0eqGJ5jMyhhWCykLOIPiSLn5zaZ3m2y83i5zAq4oYXg4rfS1s4GEyhr1v1cNtrDV7CbHuSDkYSTLsKu3TiApHodSEZHX4eRYFIzoBRAljbgNx3NFp242Ldc9IM_W1-An-o5PQ9NIGw34xX4xVP1Ex8DxKHCzIaD7fyAIuZEBpR9rx3a6xbxEmzf_7vu2BVOD5s5cx1t2MafAK6oiSnv3BLNa9l2hOJDcaHY6lmURZzeAVo-beAD2vhhzoT1sND4ZkxfI9NXjtKnKNn9EjsmLmjpT_9j8fZX3wE1EMkVTg-NSFptMpgCqb1iANdUEN7ll-jaPx056ESgh5XUwpRLgyRj5cBGui7t6IDRELdbH2z7OhVGr6s9DJqqdy0]--></g></svg>