<?xml version="1.0" encoding="us-ascii" standalone="no"?><svg xmlns="http://www.w3.org/2000/svg" xmlns:xlink="http://www.w3.org/1999/xlink" contentStyleType="text/css" height="1019px" preserveAspectRatio="none" style="width:1270px;height:1019px;background:#FFFFFF;" version="1.1" viewBox="0 0 1270 1019" width="1270px" zoomAndPan="magnify"><defs/><g><rect fill="none" height="132.3359" style="stroke:#000000;stroke-width:1.5;" width="582" x="30" y="127.4297"/><rect fill="none" height="589.9375" style="stroke:#000000;stroke-width:1.5;" width="1253" x="10" y="332.0313"/><rect fill="none" height="340.0703" style="stroke:#000000;stroke-width:1.5;" width="1233" x="20" y="501.8281"/><rect fill="none" height="206.7344" style="stroke:#000000;stroke-width:1.5;" width="1213" x="30" y="555.0938"/><line style="stroke:#181818;stroke-width:0.5;stroke-dasharray:5.0,5.0;" x1="72" x2="72" y1="81.2969" y2="938.9688"/><line style="stroke:#181818;stroke-width:0.5;stroke-dasharray:5.0,5.0;" x1="459.5" x2="459.5" y1="81.2969" y2="938.9688"/><line style="stroke:#181818;stroke-width:0.5;stroke-dasharray:5.0,5.0;" x1="848" x2="848" y1="81.2969" y2="938.9688"/><line style="stroke:#181818;stroke-width:0.5;stroke-dasharray:5.0,5.0;" x1="1162" x2="1162" y1="81.2969" y2="938.9688"/><text fill="#000000" font-family="sans-serif" font-size="14" lengthAdjust="spacing" textLength="58" x="40" y="77.9951">Teacher</text><ellipse cx="72" cy="13.5" fill="#E2E2F0" rx="8" ry="8" style="stroke:#181818;stroke-width:0.5;"/><path d="M72,21.5 L72,48.5 M59,29.5 L85,29.5 M72,48.5 L59,63.5 M72,48.5 L85,63.5 " fill="none" style="stroke:#181818;stroke-width:0.5;"/><text fill="#000000" font-family="sans-serif" font-size="14" lengthAdjust="spacing" textLength="58" x="40" y="950.9639">Teacher</text><ellipse cx="72" cy="962.7656" fill="#E2E2F0" rx="8" ry="8" style="stroke:#181818;stroke-width:0.5;"/><path d="M72,970.7656 L72,997.7656 M59,978.7656 L85,978.7656 M72,997.7656 L59,1012.7656 M72,997.7656 L85,1012.7656 " fill="none" style="stroke:#181818;stroke-width:0.5;"/><rect fill="#E2E2F0" height="30.2969" rx="2.5" ry="2.5" style="stroke:#181818;stroke-width:0.5;" width="145" x="387.5" y="50"/><text fill="#000000" font-family="sans-serif" font-size="14" lengthAdjust="spacing" textLength="131" x="394.5" y="69.9951">TeacherController</text><rect fill="#E2E2F0" height="30.2969" rx="2.5" ry="2.5" style="stroke:#181818;stroke-width:0.5;" width="145" x="387.5" y="937.9688"/><text fill="#000000" font-family="sans-serif" font-size="14" lengthAdjust="spacing" textLength="131" x="394.5" y="957.9639">TeacherController</text><rect fill="#E2E2F0" height="30.2969" rx="2.5" ry="2.5" style="stroke:#181818;stroke-width:0.5;" width="172" x="762" y="50"/><text fill="#000000" font-family="sans-serif" font-size="14" lengthAdjust="spacing" textLength="158" x="769" y="69.9951">AssignmentController</text><rect fill="#E2E2F0" height="30.2969" rx="2.5" ry="2.5" style="stroke:#181818;stroke-width:0.5;" width="172" x="762" y="937.9688"/><text fill="#000000" font-family="sans-serif" font-size="14" lengthAdjust="spacing" textLength="158" x="769" y="957.9639">AssignmentController</text><rect fill="#E2E2F0" height="30.2969" rx="2.5" ry="2.5" style="stroke:#181818;stroke-width:0.5;" width="142" x="1091" y="50"/><text fill="#000000" font-family="sans-serif" font-size="14" lengthAdjust="spacing" textLength="128" x="1098" y="69.9951">AssignmentModel</text><rect fill="#E2E2F0" height="30.2969" rx="2.5" ry="2.5" style="stroke:#181818;stroke-width:0.5;" width="142" x="1091" y="937.9688"/><text fill="#000000" font-family="sans-serif" font-size="14" lengthAdjust="spacing" textLength="128" x="1098" y="957.9639">AssignmentModel</text><polygon fill="#181818" points="448,108.4297,458,112.4297,448,116.4297,452,112.4297" style="stroke:#181818;stroke-width:1.0;"/><line style="stroke:#181818;stroke-width:1.0;" x1="72" x2="454" y1="112.4297" y2="112.4297"/><text fill="#000000" font-family="sans-serif" font-size="13" lengthAdjust="spacing" textLength="110" x="79" y="107.3638">login(credentials)</text><path d="M30,127.4297 L96,127.4297 L96,134.5625 L86,144.5625 L30,144.5625 L30,127.4297 " fill="#EEEEEE" style="stroke:#000000;stroke-width:1.5;"/><rect fill="none" height="132.3359" style="stroke:#000000;stroke-width:1.5;" width="582" x="30" y="127.4297"/><text fill="#000000" font-family="sans-serif" font-size="13" font-weight="bold" lengthAdjust="spacing" textLength="21" x="45" y="140.4966">alt</text><text fill="#000000" font-family="sans-serif" font-size="11" font-weight="bold" lengthAdjust="spacing" textLength="120" x="111" y="139.6401">[valid credentials]</text><line style="stroke:#181818;stroke-width:1.0;" x1="460" x2="502" y1="165.6953" y2="165.6953"/><line style="stroke:#181818;stroke-width:1.0;" x1="502" x2="502" y1="165.6953" y2="178.6953"/><line style="stroke:#181818;stroke-width:1.0;" x1="461" x2="502" y1="178.6953" y2="178.6953"/><polygon fill="#181818" points="471,174.6953,461,178.6953,471,182.6953,467,178.6953" style="stroke:#181818;stroke-width:1.0;"/><text fill="#000000" font-family="sans-serif" font-size="13" lengthAdjust="spacing" textLength="133" x="467" y="160.6294">validateCredentials()</text><polygon fill="#181818" points="83,203.8281,73,207.8281,83,211.8281,79,207.8281" style="stroke:#181818;stroke-width:1.0;"/><line style="stroke:#181818;stroke-width:1.0;stroke-dasharray:2.0,2.0;" x1="77" x2="459" y1="207.8281" y2="207.8281"/><text fill="#000000" font-family="sans-serif" font-size="13" lengthAdjust="spacing" textLength="82" x="89" y="202.7622">loginSuccess</text><line style="stroke:#000000;stroke-width:1.0;stroke-dasharray:2.0,2.0;" x1="30" x2="612" y1="216.8281" y2="216.8281"/><text fill="#000000" font-family="sans-serif" font-size="11" font-weight="bold" lengthAdjust="spacing" textLength="132" x="35" y="227.0386">[invalid credentials]</text><polygon fill="#181818" points="83,247.7656,73,251.7656,83,255.7656,79,251.7656" style="stroke:#181818;stroke-width:1.0;"/><line style="stroke:#181818;stroke-width:1.0;stroke-dasharray:2.0,2.0;" x1="77" x2="459" y1="251.7656" y2="251.7656"/><text fill="#000000" font-family="sans-serif" font-size="13" lengthAdjust="spacing" textLength="169" x="89" y="246.6997">loginFailure(errorMessage)</text><polygon fill="#181818" points="448,283.8984,458,287.8984,448,291.8984,452,287.8984" style="stroke:#181818;stroke-width:1.0;"/><line style="stroke:#181818;stroke-width:1.0;" x1="72" x2="454" y1="287.8984" y2="287.8984"/><text fill="#000000" font-family="sans-serif" font-size="13" lengthAdjust="spacing" textLength="210" x="79" y="282.8325">selectAssignment(assignmentId)</text><polygon fill="#181818" points="836,313.0313,846,317.0313,836,321.0313,840,317.0313" style="stroke:#181818;stroke-width:1.0;"/><line style="stroke:#181818;stroke-width:1.0;" x1="460" x2="842" y1="317.0313" y2="317.0313"/><text fill="#000000" font-family="sans-serif" font-size="13" lengthAdjust="spacing" textLength="237" x="467" y="311.9653">getAssignmentDetails(assignmentId)</text><path d="M10,332.0313 L76,332.0313 L76,339.1641 L66,349.1641 L10,349.1641 L10,332.0313 " fill="#EEEEEE" style="stroke:#000000;stroke-width:1.5;"/><rect fill="none" height="589.9375" style="stroke:#000000;stroke-width:1.5;" width="1253" x="10" y="332.0313"/><text fill="#000000" font-family="sans-serif" font-size="13" font-weight="bold" lengthAdjust="spacing" textLength="21" x="25" y="345.0981">alt</text><text fill="#000000" font-family="sans-serif" font-size="11" font-weight="bold" lengthAdjust="spacing" textLength="131" x="91" y="344.2417">[assignment exists]</text><polygon fill="#181818" points="1150,366.2969,1160,370.2969,1150,374.2969,1154,370.2969" style="stroke:#181818;stroke-width:1.0;"/><line style="stroke:#181818;stroke-width:1.0;" x1="848" x2="1156" y1="370.2969" y2="370.2969"/><text fill="#000000" font-family="sans-serif" font-size="13" lengthAdjust="spacing" textLength="222" x="855" y="365.231">retrieveAssignment(assignmentId)</text><polygon fill="#181818" points="859,395.4297,849,399.4297,859,403.4297,855,399.4297" style="stroke:#181818;stroke-width:1.0;"/><line style="stroke:#181818;stroke-width:1.0;stroke-dasharray:2.0,2.0;" x1="853" x2="1161" y1="399.4297" y2="399.4297"/><text fill="#000000" font-family="sans-serif" font-size="13" lengthAdjust="spacing" textLength="119" x="865" y="394.3638">assignmentDetails</text><polygon fill="#181818" points="471,424.5625,461,428.5625,471,432.5625,467,428.5625" style="stroke:#181818;stroke-width:1.0;"/><line style="stroke:#181818;stroke-width:1.0;stroke-dasharray:2.0,2.0;" x1="465" x2="847" y1="428.5625" y2="428.5625"/><text fill="#000000" font-family="sans-serif" font-size="13" lengthAdjust="spacing" textLength="119" x="477" y="423.4966">assignmentDetails</text><polygon fill="#181818" points="448,453.6953,458,457.6953,448,461.6953,452,457.6953" style="stroke:#181818;stroke-width:1.0;"/><line style="stroke:#181818;stroke-width:1.0;" x1="72" x2="454" y1="457.6953" y2="457.6953"/><text fill="#000000" font-family="sans-serif" font-size="13" lengthAdjust="spacing" textLength="364" x="79" y="452.6294">modifyAssignmentDeadline(assignmentId, newDeadline)</text><polygon fill="#181818" points="836,482.8281,846,486.8281,836,490.8281,840,486.8281" style="stroke:#181818;stroke-width:1.0;"/><line style="stroke:#181818;stroke-width:1.0;" x1="460" x2="842" y1="486.8281" y2="486.8281"/><text fill="#000000" font-family="sans-serif" font-size="13" lengthAdjust="spacing" textLength="364" x="467" y="481.7622">updateAssignmentDeadline(assignmentId, newDeadline)</text><path d="M20,501.8281 L86,501.8281 L86,508.9609 L76,518.9609 L20,518.9609 L20,501.8281 " fill="#EEEEEE" style="stroke:#000000;stroke-width:1.5;"/><rect fill="none" height="340.0703" style="stroke:#000000;stroke-width:1.5;" width="1233" x="20" y="501.8281"/><text fill="#000000" font-family="sans-serif" font-size="13" font-weight="bold" lengthAdjust="spacing" textLength="21" x="35" y="514.895">alt</text><text fill="#000000" font-family="sans-serif" font-size="11" font-weight="bold" lengthAdjust="spacing" textLength="146" x="101" y="514.0386">[new deadline is valid]</text><polygon fill="#181818" points="1150,536.0938,1160,540.0938,1150,544.0938,1154,540.0938" style="stroke:#181818;stroke-width:1.0;"/><line style="stroke:#181818;stroke-width:1.0;" x1="848" x2="1156" y1="540.0938" y2="540.0938"/><text fill="#000000" font-family="sans-serif" font-size="13" lengthAdjust="spacing" textLength="290" x="855" y="535.0278">changeDeadline(assignmentId, newDeadline)</text><path d="M30,555.0938 L96,555.0938 L96,562.2266 L86,572.2266 L30,572.2266 L30,555.0938 " fill="#EEEEEE" style="stroke:#000000;stroke-width:1.5;"/><rect fill="none" height="206.7344" style="stroke:#000000;stroke-width:1.5;" width="1213" x="30" y="555.0938"/><text fill="#000000" font-family="sans-serif" font-size="13" font-weight="bold" lengthAdjust="spacing" textLength="21" x="45" y="568.1606">alt</text><text fill="#000000" font-family="sans-serif" font-size="11" font-weight="bold" lengthAdjust="spacing" textLength="210" x="111" y="567.3042">[deadline updated successfully]</text><polygon fill="#181818" points="859,589.3594,849,593.3594,859,597.3594,855,593.3594" style="stroke:#181818;stroke-width:1.0;"/><line style="stroke:#181818;stroke-width:1.0;stroke-dasharray:2.0,2.0;" x1="853" x2="1161" y1="593.3594" y2="593.3594"/><text fill="#000000" font-family="sans-serif" font-size="13" lengthAdjust="spacing" textLength="128" x="865" y="588.2935">updateConfirmation</text><polygon fill="#181818" points="471,618.4922,461,622.4922,471,626.4922,467,622.4922" style="stroke:#181818;stroke-width:1.0;"/><line style="stroke:#181818;stroke-width:1.0;stroke-dasharray:2.0,2.0;" x1="465" x2="847" y1="622.4922" y2="622.4922"/><text fill="#000000" font-family="sans-serif" font-size="13" lengthAdjust="spacing" textLength="240" x="477" y="617.4263">successMessage("Deadline updated")</text><polygon fill="#181818" points="83,647.625,73,651.625,83,655.625,79,651.625" style="stroke:#181818;stroke-width:1.0;"/><line style="stroke:#181818;stroke-width:1.0;stroke-dasharray:2.0,2.0;" x1="77" x2="459" y1="651.625" y2="651.625"/><text fill="#000000" font-family="sans-serif" font-size="13" lengthAdjust="spacing" textLength="240" x="89" y="646.5591">successMessage("Deadline updated")</text><line style="stroke:#000000;stroke-width:1.0;stroke-dasharray:2.0,2.0;" x1="30" x2="1243" y1="660.625" y2="660.625"/><text fill="#000000" font-family="sans-serif" font-size="11" font-weight="bold" lengthAdjust="spacing" textLength="160" x="35" y="670.8354">[deadline update failed]</text><polygon fill="#181818" points="859,691.5625,849,695.5625,859,699.5625,855,695.5625" style="stroke:#181818;stroke-width:1.0;"/><line style="stroke:#181818;stroke-width:1.0;stroke-dasharray:2.0,2.0;" x1="853" x2="1161" y1="695.5625" y2="695.5625"/><text fill="#000000" font-family="sans-serif" font-size="13" lengthAdjust="spacing" textLength="31" x="865" y="690.4966">error</text><polygon fill="#181818" points="471,720.6953,461,724.6953,471,728.6953,467,724.6953" style="stroke:#181818;stroke-width:1.0;"/><line style="stroke:#181818;stroke-width:1.0;stroke-dasharray:2.0,2.0;" x1="465" x2="847" y1="724.6953" y2="724.6953"/><text fill="#000000" font-family="sans-serif" font-size="13" lengthAdjust="spacing" textLength="268" x="477" y="719.6294">errorMessage("Failed to update deadline")</text><polygon fill="#181818" points="83,749.8281,73,753.8281,83,757.8281,79,753.8281" style="stroke:#181818;stroke-width:1.0;"/><line style="stroke:#181818;stroke-width:1.0;stroke-dasharray:2.0,2.0;" x1="77" x2="459" y1="753.8281" y2="753.8281"/><text fill="#000000" font-family="sans-serif" font-size="13" lengthAdjust="spacing" textLength="268" x="89" y="748.7622">errorMessage("Failed to update deadline")</text><line style="stroke:#000000;stroke-width:1.0;stroke-dasharray:2.0,2.0;" x1="20" x2="1253" y1="769.8281" y2="769.8281"/><text fill="#000000" font-family="sans-serif" font-size="11" font-weight="bold" lengthAdjust="spacing" textLength="174" x="25" y="780.0386">[new deadline is not valid]</text><polygon fill="#181818" points="471,800.7656,461,804.7656,471,808.7656,467,804.7656" style="stroke:#181818;stroke-width:1.0;"/><line style="stroke:#181818;stroke-width:1.0;stroke-dasharray:2.0,2.0;" x1="465" x2="847" y1="804.7656" y2="804.7656"/><text fill="#000000" font-family="sans-serif" font-size="13" lengthAdjust="spacing" textLength="237" x="477" y="799.6997">errorMessage("Invalid new deadline")</text><polygon fill="#181818" points="83,829.8984,73,833.8984,83,837.8984,79,833.8984" style="stroke:#181818;stroke-width:1.0;"/><line style="stroke:#181818;stroke-width:1.0;stroke-dasharray:2.0,2.0;" x1="77" x2="459" y1="833.8984" y2="833.8984"/><text fill="#000000" font-family="sans-serif" font-size="13" lengthAdjust="spacing" textLength="237" x="89" y="828.8325">errorMessage("Invalid new deadline")</text><line style="stroke:#000000;stroke-width:1.0;stroke-dasharray:2.0,2.0;" x1="10" x2="1263" y1="849.8984" y2="849.8984"/><text fill="#000000" font-family="sans-serif" font-size="11" font-weight="bold" lengthAdjust="spacing" textLength="159" x="15" y="860.1089">[assignment not found]</text><polygon fill="#181818" points="471,880.8359,461,884.8359,471,888.8359,467,884.8359" style="stroke:#181818;stroke-width:1.0;"/><line style="stroke:#181818;stroke-width:1.0;stroke-dasharray:2.0,2.0;" x1="465" x2="847" y1="884.8359" y2="884.8359"/><text fill="#000000" font-family="sans-serif" font-size="13" lengthAdjust="spacing" textLength="249" x="477" y="879.77">errorMessage("Assignment not found")</text><polygon fill="#181818" points="83,909.9688,73,913.9688,83,917.9688,79,913.9688" style="stroke:#181818;stroke-width:1.0;"/><line style="stroke:#181818;stroke-width:1.0;stroke-dasharray:2.0,2.0;" x1="77" x2="459" y1="913.9688" y2="913.9688"/><text fill="#000000" font-family="sans-serif" font-size="13" lengthAdjust="spacing" textLength="249" x="89" y="908.9028">errorMessage("Assignment not found")</text><!--SRC=[bLJDZeCW4Bxx51DFcko-m1usCMsQxC7JzWK8Z9Q4GWFOtRxz8g15MhUj9pD-y_qCWuHQfM6FX1vG5oUYBQVyHAI5CXOtIbgjX41T0Z6mtonHZJ6ybqUKDWCsgy1MCHG1qnP5b87tJySD7o1KpsL5DJ87vKIOkY32mfa8pY0f5-0Urp7rUG2nkBb2gde6ZQWe52M-1qhHc0A5GU1odV-sTKUu63HMgBNIhICXFTO5IdQRng10Qg_PApA_Vh6w2FwR4TbZ0jkYTHecGuzpk5O0VxcnmMSJU5h7ez5gZcTSrVJurkVomYHNdHcd4FSHUTIZOhoxf1a84rpYGluD9FvCN-ha3BsLuJIUuEiKus1S4LYi0ZTX7_pNR43qG6IFpr9Fz3DryCZ0XFtf1Y4kCpAVRG2xcz5nVIIMAxc49aEEV76TgdAR2PRrelLcCr_ezokV1OBE7IoorIH-rrVDfpUXAdUU2goQk2UjHnbUfnaltHmfNm6fx9qrkE_vA_u1Kev4vu7LVxf7XzvTSdD7OvqQelTrKysTbdBbf_PKfpFp1m00]--></g></svg>