<?xml version="1.0" encoding="us-ascii" standalone="no"?><svg xmlns="http://www.w3.org/2000/svg" xmlns:xlink="http://www.w3.org/1999/xlink" contentStyleType="text/css" height="990px" preserveAspectRatio="none" style="width:1278px;height:990px;background:#FFFFFF;" version="1.1" viewBox="0 0 1278 990" width="1278px" zoomAndPan="magnify"><defs/><g><rect fill="none" height="132.3359" style="stroke:#000000;stroke-width:1.5;" width="558" x="20" y="127.4297"/><rect fill="none" height="177.6016" style="stroke:#000000;stroke-width:1.5;" width="1093" x="20" y="332.0313"/><rect fill="none" height="369.2031" style="stroke:#000000;stroke-width:1.5;" width="1261" x="10" y="523.6328"/><rect fill="none" height="206.7344" style="stroke:#000000;stroke-width:1.5;" width="1241" x="20" y="635.1641"/><line style="stroke:#181818;stroke-width:0.5;stroke-dasharray:5.0,5.0;" x1="62" x2="62" y1="81.2969" y2="909.8359"/><line style="stroke:#181818;stroke-width:0.5;stroke-dasharray:5.0,5.0;" x1="425.5" x2="425.5" y1="81.2969" y2="909.8359"/><line style="stroke:#181818;stroke-width:0.5;stroke-dasharray:5.0,5.0;" x1="687" x2="687" y1="81.2969" y2="909.8359"/><line style="stroke:#181818;stroke-width:0.5;stroke-dasharray:5.0,5.0;" x1="867" x2="867" y1="81.2969" y2="909.8359"/><line style="stroke:#181818;stroke-width:0.5;stroke-dasharray:5.0,5.0;" x1="1032" x2="1032" y1="81.2969" y2="909.8359"/><line style="stroke:#181818;stroke-width:0.5;stroke-dasharray:5.0,5.0;" x1="1182" x2="1182" y1="81.2969" y2="909.8359"/><text fill="#000000" font-family="sans-serif" font-size="14" lengthAdjust="spacing" textLength="58" x="30" y="77.9951">Student</text><ellipse cx="62" cy="13.5" fill="#E2E2F0" rx="8" ry="8" style="stroke:#181818;stroke-width:0.5;"/><path d="M62,21.5 L62,48.5 M49,29.5 L75,29.5 M62,48.5 L49,63.5 M62,48.5 L75,63.5 " fill="none" style="stroke:#181818;stroke-width:0.5;"/><text fill="#000000" font-family="sans-serif" font-size="14" lengthAdjust="spacing" textLength="58" x="30" y="921.8311">Student</text><ellipse cx="62" cy="933.6328" fill="#E2E2F0" rx="8" ry="8" style="stroke:#181818;stroke-width:0.5;"/><path d="M62,941.6328 L62,968.6328 M49,949.6328 L75,949.6328 M62,968.6328 L49,983.6328 M62,968.6328 L75,983.6328 " fill="none" style="stroke:#181818;stroke-width:0.5;"/><rect fill="#E2E2F0" height="30.2969" rx="2.5" ry="2.5" style="stroke:#181818;stroke-width:0.5;" width="145" x="353.5" y="50"/><text fill="#000000" font-family="sans-serif" font-size="14" lengthAdjust="spacing" textLength="131" x="360.5" y="69.9951">StudentController</text><rect fill="#E2E2F0" height="30.2969" rx="2.5" ry="2.5" style="stroke:#181818;stroke-width:0.5;" width="145" x="353.5" y="908.8359"/><text fill="#000000" font-family="sans-serif" font-size="14" lengthAdjust="spacing" textLength="131" x="360.5" y="928.8311">StudentController</text><rect fill="#E2E2F0" height="30.2969" rx="2.5" ry="2.5" style="stroke:#181818;stroke-width:0.5;" width="172" x="601" y="50"/><text fill="#000000" font-family="sans-serif" font-size="14" lengthAdjust="spacing" textLength="158" x="608" y="69.9951">AssignmentController</text><rect fill="#E2E2F0" height="30.2969" rx="2.5" ry="2.5" style="stroke:#181818;stroke-width:0.5;" width="172" x="601" y="908.8359"/><text fill="#000000" font-family="sans-serif" font-size="14" lengthAdjust="spacing" textLength="158" x="608" y="928.8311">AssignmentController</text><rect fill="#E2E2F0" height="30.2969" rx="2.5" ry="2.5" style="stroke:#181818;stroke-width:0.5;" width="168" x="783" y="50"/><text fill="#000000" font-family="sans-serif" font-size="14" lengthAdjust="spacing" textLength="154" x="790" y="69.9951">SubmissionController</text><rect fill="#E2E2F0" height="30.2969" rx="2.5" ry="2.5" style="stroke:#181818;stroke-width:0.5;" width="168" x="783" y="908.8359"/><text fill="#000000" font-family="sans-serif" font-size="14" lengthAdjust="spacing" textLength="154" x="790" y="928.8311">SubmissionController</text><rect fill="#E2E2F0" height="30.2969" rx="2.5" ry="2.5" style="stroke:#181818;stroke-width:0.5;" width="142" x="961" y="50"/><text fill="#000000" font-family="sans-serif" font-size="14" lengthAdjust="spacing" textLength="128" x="968" y="69.9951">AssignmentModel</text><rect fill="#E2E2F0" height="30.2969" rx="2.5" ry="2.5" style="stroke:#181818;stroke-width:0.5;" width="142" x="961" y="908.8359"/><text fill="#000000" font-family="sans-serif" font-size="14" lengthAdjust="spacing" textLength="128" x="968" y="928.8311">AssignmentModel</text><rect fill="#E2E2F0" height="30.2969" rx="2.5" ry="2.5" style="stroke:#181818;stroke-width:0.5;" width="138" x="1113" y="50"/><text fill="#000000" font-family="sans-serif" font-size="14" lengthAdjust="spacing" textLength="124" x="1120" y="69.9951">SubmissionModel</text><rect fill="#E2E2F0" height="30.2969" rx="2.5" ry="2.5" style="stroke:#181818;stroke-width:0.5;" width="138" x="1113" y="908.8359"/><text fill="#000000" font-family="sans-serif" font-size="14" lengthAdjust="spacing" textLength="124" x="1120" y="928.8311">SubmissionModel</text><polygon fill="#181818" points="414,108.4297,424,112.4297,414,116.4297,418,112.4297" style="stroke:#181818;stroke-width:1.0;"/><line style="stroke:#181818;stroke-width:1.0;" x1="62" x2="420" y1="112.4297" y2="112.4297"/><text fill="#000000" font-family="sans-serif" font-size="13" lengthAdjust="spacing" textLength="110" x="69" y="107.3638">login(credentials)</text><path d="M20,127.4297 L86,127.4297 L86,134.5625 L76,144.5625 L20,144.5625 L20,127.4297 " fill="#EEEEEE" style="stroke:#000000;stroke-width:1.5;"/><rect fill="none" height="132.3359" style="stroke:#000000;stroke-width:1.5;" width="558" x="20" y="127.4297"/><text fill="#000000" font-family="sans-serif" font-size="13" font-weight="bold" lengthAdjust="spacing" textLength="21" x="35" y="140.4966">alt</text><text fill="#000000" font-family="sans-serif" font-size="11" font-weight="bold" lengthAdjust="spacing" textLength="120" x="101" y="139.6401">[valid credentials]</text><line style="stroke:#181818;stroke-width:1.0;" x1="426" x2="468" y1="165.6953" y2="165.6953"/><line style="stroke:#181818;stroke-width:1.0;" x1="468" x2="468" y1="165.6953" y2="178.6953"/><line style="stroke:#181818;stroke-width:1.0;" x1="427" x2="468" y1="178.6953" y2="178.6953"/><polygon fill="#181818" points="437,174.6953,427,178.6953,437,182.6953,433,178.6953" style="stroke:#181818;stroke-width:1.0;"/><text fill="#000000" font-family="sans-serif" font-size="13" lengthAdjust="spacing" textLength="133" x="433" y="160.6294">validateCredentials()</text><polygon fill="#181818" points="73,203.8281,63,207.8281,73,211.8281,69,207.8281" style="stroke:#181818;stroke-width:1.0;"/><line style="stroke:#181818;stroke-width:1.0;stroke-dasharray:2.0,2.0;" x1="67" x2="425" y1="207.8281" y2="207.8281"/><text fill="#000000" font-family="sans-serif" font-size="13" lengthAdjust="spacing" textLength="82" x="79" y="202.7622">loginSuccess</text><line style="stroke:#000000;stroke-width:1.0;stroke-dasharray:2.0,2.0;" x1="20" x2="578" y1="216.8281" y2="216.8281"/><text fill="#000000" font-family="sans-serif" font-size="11" font-weight="bold" lengthAdjust="spacing" textLength="132" x="25" y="227.0386">[invalid credentials]</text><polygon fill="#181818" points="73,247.7656,63,251.7656,73,255.7656,69,251.7656" style="stroke:#181818;stroke-width:1.0;"/><line style="stroke:#181818;stroke-width:1.0;stroke-dasharray:2.0,2.0;" x1="67" x2="425" y1="251.7656" y2="251.7656"/><text fill="#000000" font-family="sans-serif" font-size="13" lengthAdjust="spacing" textLength="169" x="79" y="246.6997">loginFailure(errorMessage)</text><polygon fill="#181818" points="414,283.8984,424,287.8984,414,291.8984,418,287.8984" style="stroke:#181818;stroke-width:1.0;"/><line style="stroke:#181818;stroke-width:1.0;" x1="62" x2="420" y1="287.8984" y2="287.8984"/><text fill="#000000" font-family="sans-serif" font-size="13" lengthAdjust="spacing" textLength="210" x="69" y="282.8325">selectAssignment(assignmentId)</text><polygon fill="#181818" points="675,313.0313,685,317.0313,675,321.0313,679,317.0313" style="stroke:#181818;stroke-width:1.0;"/><line style="stroke:#181818;stroke-width:1.0;" x1="426" x2="681" y1="317.0313" y2="317.0313"/><text fill="#000000" font-family="sans-serif" font-size="13" lengthAdjust="spacing" textLength="237" x="433" y="311.9653">getAssignmentDetails(assignmentId)</text><path d="M20,332.0313 L86,332.0313 L86,339.1641 L76,349.1641 L20,349.1641 L20,332.0313 " fill="#EEEEEE" style="stroke:#000000;stroke-width:1.5;"/><rect fill="none" height="177.6016" style="stroke:#000000;stroke-width:1.5;" width="1093" x="20" y="332.0313"/><text fill="#000000" font-family="sans-serif" font-size="13" font-weight="bold" lengthAdjust="spacing" textLength="21" x="35" y="345.0981">alt</text><text fill="#000000" font-family="sans-serif" font-size="11" font-weight="bold" lengthAdjust="spacing" textLength="131" x="101" y="344.2417">[assignment exists]</text><polygon fill="#181818" points="1020,366.2969,1030,370.2969,1020,374.2969,1024,370.2969" style="stroke:#181818;stroke-width:1.0;"/><line style="stroke:#181818;stroke-width:1.0;" x1="687" x2="1026" y1="370.2969" y2="370.2969"/><text fill="#000000" font-family="sans-serif" font-size="13" lengthAdjust="spacing" textLength="222" x="694" y="365.231">retrieveAssignment(assignmentId)</text><polygon fill="#181818" points="698,395.4297,688,399.4297,698,403.4297,694,399.4297" style="stroke:#181818;stroke-width:1.0;"/><line style="stroke:#181818;stroke-width:1.0;stroke-dasharray:2.0,2.0;" x1="692" x2="1031" y1="399.4297" y2="399.4297"/><text fill="#000000" font-family="sans-serif" font-size="13" lengthAdjust="spacing" textLength="119" x="704" y="394.3638">assignmentDetails</text><polygon fill="#181818" points="437,424.5625,427,428.5625,437,432.5625,433,428.5625" style="stroke:#181818;stroke-width:1.0;"/><line style="stroke:#181818;stroke-width:1.0;stroke-dasharray:2.0,2.0;" x1="431" x2="686" y1="428.5625" y2="428.5625"/><text fill="#000000" font-family="sans-serif" font-size="13" lengthAdjust="spacing" textLength="119" x="443" y="423.4966">assignmentDetails</text><line style="stroke:#000000;stroke-width:1.0;stroke-dasharray:2.0,2.0;" x1="20" x2="1113" y1="437.5625" y2="437.5625"/><text fill="#000000" font-family="sans-serif" font-size="11" font-weight="bold" lengthAdjust="spacing" textLength="159" x="25" y="447.7729">[assignment not found]</text><polygon fill="#181818" points="437,468.5,427,472.5,437,476.5,433,472.5" style="stroke:#181818;stroke-width:1.0;"/><line style="stroke:#181818;stroke-width:1.0;stroke-dasharray:2.0,2.0;" x1="431" x2="686" y1="472.5" y2="472.5"/><text fill="#000000" font-family="sans-serif" font-size="13" lengthAdjust="spacing" textLength="193" x="443" y="467.4341">error("Assignment not found")</text><polygon fill="#181818" points="73,497.6328,63,501.6328,73,505.6328,69,501.6328" style="stroke:#181818;stroke-width:1.0;"/><line style="stroke:#181818;stroke-width:1.0;stroke-dasharray:2.0,2.0;" x1="67" x2="425" y1="501.6328" y2="501.6328"/><text fill="#000000" font-family="sans-serif" font-size="13" lengthAdjust="spacing" textLength="193" x="79" y="496.5669">error("Assignment not found")</text><path d="M10,523.6328 L76,523.6328 L76,530.7656 L66,540.7656 L10,540.7656 L10,523.6328 " fill="#EEEEEE" style="stroke:#000000;stroke-width:1.5;"/><rect fill="none" height="369.2031" style="stroke:#000000;stroke-width:1.5;" width="1261" x="10" y="523.6328"/><text fill="#000000" font-family="sans-serif" font-size="13" font-weight="bold" lengthAdjust="spacing" textLength="21" x="25" y="536.6997">alt</text><text fill="#000000" font-family="sans-serif" font-size="11" font-weight="bold" lengthAdjust="spacing" textLength="264" x="91" y="535.8433">[assignment submission period is open]</text><polygon fill="#181818" points="414,557.8984,424,561.8984,414,565.8984,418,561.8984" style="stroke:#181818;stroke-width:1.0;"/><line style="stroke:#181818;stroke-width:1.0;" x1="62" x2="420" y1="561.8984" y2="561.8984"/><text fill="#000000" font-family="sans-serif" font-size="13" lengthAdjust="spacing" textLength="340" x="69" y="556.8325">submitAssignment(assignmentId, submissionDetails)</text><polygon fill="#181818" points="855,587.0313,865,591.0313,855,595.0313,859,591.0313" style="stroke:#181818;stroke-width:1.0;"/><line style="stroke:#181818;stroke-width:1.0;" x1="426" x2="861" y1="591.0313" y2="591.0313"/><text fill="#000000" font-family="sans-serif" font-size="13" lengthAdjust="spacing" textLength="334" x="433" y="585.9653">createSubmission(assignmentId, submissionDetails)</text><polygon fill="#181818" points="1170,616.1641,1180,620.1641,1170,624.1641,1174,620.1641" style="stroke:#181818;stroke-width:1.0;"/><line style="stroke:#181818;stroke-width:1.0;" x1="867" x2="1176" y1="620.1641" y2="620.1641"/><text fill="#000000" font-family="sans-serif" font-size="13" lengthAdjust="spacing" textLength="223" x="874" y="615.0981">addSubmission(submissionDetails)</text><path d="M20,635.1641 L86,635.1641 L86,642.2969 L76,652.2969 L20,652.2969 L20,635.1641 " fill="#EEEEEE" style="stroke:#000000;stroke-width:1.5;"/><rect fill="none" height="206.7344" style="stroke:#000000;stroke-width:1.5;" width="1241" x="20" y="635.1641"/><text fill="#000000" font-family="sans-serif" font-size="13" font-weight="bold" lengthAdjust="spacing" textLength="21" x="35" y="648.231">alt</text><text fill="#000000" font-family="sans-serif" font-size="11" font-weight="bold" lengthAdjust="spacing" textLength="158" x="101" y="647.3745">[submission successful]</text><polygon fill="#181818" points="878,669.4297,868,673.4297,878,677.4297,874,673.4297" style="stroke:#181818;stroke-width:1.0;"/><line style="stroke:#181818;stroke-width:1.0;stroke-dasharray:2.0,2.0;" x1="872" x2="1181" y1="673.4297" y2="673.4297"/><text fill="#000000" font-family="sans-serif" font-size="13" lengthAdjust="spacing" textLength="81" x="884" y="668.3638">confirmation</text><polygon fill="#181818" points="437,698.5625,427,702.5625,437,706.5625,433,702.5625" style="stroke:#181818;stroke-width:1.0;"/><line style="stroke:#181818;stroke-width:1.0;stroke-dasharray:2.0,2.0;" x1="431" x2="866" y1="702.5625" y2="702.5625"/><text fill="#000000" font-family="sans-serif" font-size="13" lengthAdjust="spacing" textLength="81" x="443" y="697.4966">confirmation</text><polygon fill="#181818" points="73,727.6953,63,731.6953,73,735.6953,69,731.6953" style="stroke:#181818;stroke-width:1.0;"/><line style="stroke:#181818;stroke-width:1.0;stroke-dasharray:2.0,2.0;" x1="67" x2="425" y1="731.6953" y2="731.6953"/><text fill="#000000" font-family="sans-serif" font-size="13" lengthAdjust="spacing" textLength="271" x="79" y="726.6294">successMessage("Submission successful")</text><line style="stroke:#000000;stroke-width:1.0;stroke-dasharray:2.0,2.0;" x1="20" x2="1261" y1="740.6953" y2="740.6953"/><text fill="#000000" font-family="sans-serif" font-size="11" font-weight="bold" lengthAdjust="spacing" textLength="127" x="25" y="750.9058">[submission failed]</text><polygon fill="#181818" points="878,771.6328,868,775.6328,878,779.6328,874,775.6328" style="stroke:#181818;stroke-width:1.0;"/><line style="stroke:#181818;stroke-width:1.0;stroke-dasharray:2.0,2.0;" x1="872" x2="1181" y1="775.6328" y2="775.6328"/><text fill="#000000" font-family="sans-serif" font-size="13" lengthAdjust="spacing" textLength="31" x="884" y="770.5669">error</text><polygon fill="#181818" points="437,800.7656,427,804.7656,437,808.7656,433,804.7656" style="stroke:#181818;stroke-width:1.0;"/><line style="stroke:#181818;stroke-width:1.0;stroke-dasharray:2.0,2.0;" x1="431" x2="866" y1="804.7656" y2="804.7656"/><text fill="#000000" font-family="sans-serif" font-size="13" lengthAdjust="spacing" textLength="31" x="443" y="799.6997">error</text><polygon fill="#181818" points="73,829.8984,63,833.8984,73,837.8984,69,833.8984" style="stroke:#181818;stroke-width:1.0;"/><line style="stroke:#181818;stroke-width:1.0;stroke-dasharray:2.0,2.0;" x1="67" x2="425" y1="833.8984" y2="833.8984"/><text fill="#000000" font-family="sans-serif" font-size="13" lengthAdjust="spacing" textLength="219" x="79" y="828.8325">errorMessage("Submission failed")</text><line style="stroke:#000000;stroke-width:1.0;stroke-dasharray:2.0,2.0;" x1="10" x2="1271" y1="849.8984" y2="849.8984"/><text fill="#000000" font-family="sans-serif" font-size="11" font-weight="bold" lengthAdjust="spacing" textLength="178" x="15" y="860.1089">[submission period closed]</text><polygon fill="#181818" points="73,880.8359,63,884.8359,73,888.8359,69,884.8359" style="stroke:#181818;stroke-width:1.0;"/><line style="stroke:#181818;stroke-width:1.0;stroke-dasharray:2.0,2.0;" x1="67" x2="425" y1="884.8359" y2="884.8359"/><text fill="#000000" font-family="sans-serif" font-size="13" lengthAdjust="spacing" textLength="213" x="79" y="879.77">error("Submission period closed")</text><!--SRC=[ZLFBReGm3BpdAwmzWTJ-G0-Lq5QLUk345sI9GP6o2Kh2gf_Vl80qRAfoGcOyCxO7EbgbOR0hGsd9GhNb8r-ej719nQkILYiXK5-06XYklr6TCNoMzpEmAu33Uhjp1rQoP5nlLSvUCHIHhg_H7HXNwmb9lk7rtPc5Dn1gvh8PDVegfyAqX0eB3oeuWwnCm3skO-iB06hnUa2QTWTvL19A4iCwZcWCGM4GkAppdri_AHUhnWQrLhft97J6bg1avsaC2XpjiQ66xgzVh2NHV-UHCsQm3xHEmnHeluUZ0lZDZOq-kyZJEnwDLdDyO5KpuFimLn2cfUhEk0rnHeIbPLQaiZ2frMsWx0qxQhAC7DXBvJn_juGr5vimUxfWGSqL0sv0BIYZG7aJZwxTv2KZIzEsUTHS-Xs5oucBsX7gVrBuvaZYBqKPonWgFNxIR3mJKpkj8dnDhF6QcpSb9wxlr3fy3igEyXnItY5ffO0tsJ-SsKX73878V4vk0cHLZ-745NF5jwVfUEOfIcv-N4fAJoaQer0cMQj5RwWqnVZz0000]--></g></svg>