<?xml version="1.0" encoding="us-ascii" standalone="no"?><svg xmlns="http://www.w3.org/2000/svg" xmlns:xlink="http://www.w3.org/1999/xlink" contentStyleType="text/css" height="1373px" preserveAspectRatio="none" style="width:1233px;height:1373px;background:#FFFFFF;" version="1.1" viewBox="0 0 1233 1373" width="1233px" zoomAndPan="magnify"><defs/><g><rect fill="none" height="132.3359" style="stroke:#000000;stroke-width:1.5;" width="532" x="20" y="127.4297"/><rect fill="none" height="206.7344" style="stroke:#000000;stroke-width:1.5;" width="1044.5" x="20" y="302.8984"/><rect fill="none" height="340.0703" style="stroke:#000000;stroke-width:1.5;" width="1216.5" x="10" y="552.7656"/><rect fill="none" height="206.7344" style="stroke:#000000;stroke-width:1.5;" width="1196.5" x="20" y="635.1641"/><rect fill="none" height="340.0703" style="stroke:#000000;stroke-width:1.5;" width="1064.5" x="10" y="935.9688"/><rect fill="none" height="206.7344" style="stroke:#000000;stroke-width:1.5;" width="1044.5" x="20" y="1018.3672"/><line style="stroke:#181818;stroke-width:0.5;stroke-dasharray:5.0,5.0;" x1="62" x2="62" y1="81.2969" y2="1293.0391"/><line style="stroke:#181818;stroke-width:0.5;stroke-dasharray:5.0,5.0;" x1="399.5" x2="399.5" y1="81.2969" y2="1293.0391"/><line style="stroke:#181818;stroke-width:0.5;stroke-dasharray:5.0,5.0;" x1="575.5" x2="575.5" y1="81.2969" y2="1293.0391"/><line style="stroke:#181818;stroke-width:0.5;stroke-dasharray:5.0,5.0;" x1="738" x2="738" y1="81.2969" y2="1293.0391"/><line style="stroke:#181818;stroke-width:0.5;stroke-dasharray:5.0,5.0;" x1="1007.5" x2="1007.5" y1="81.2969" y2="1293.0391"/><line style="stroke:#181818;stroke-width:0.5;stroke-dasharray:5.0,5.0;" x1="1135.5" x2="1135.5" y1="81.2969" y2="1293.0391"/><text fill="#000000" font-family="sans-serif" font-size="14" lengthAdjust="spacing" textLength="58" x="30" y="77.9951">Teacher</text><ellipse cx="62" cy="13.5" fill="#E2E2F0" rx="8" ry="8" style="stroke:#181818;stroke-width:0.5;"/><path d="M62,21.5 L62,48.5 M49,29.5 L75,29.5 M62,48.5 L49,63.5 M62,48.5 L75,63.5 " fill="none" style="stroke:#181818;stroke-width:0.5;"/><text fill="#000000" font-family="sans-serif" font-size="14" lengthAdjust="spacing" textLength="58" x="30" y="1305.0342">Teacher</text><ellipse cx="62" cy="1316.8359" fill="#E2E2F0" rx="8" ry="8" style="stroke:#181818;stroke-width:0.5;"/><path d="M62,1324.8359 L62,1351.8359 M49,1332.8359 L75,1332.8359 M62,1351.8359 L49,1366.8359 M62,1351.8359 L75,1366.8359 " fill="none" style="stroke:#181818;stroke-width:0.5;"/><rect fill="#E2E2F0" height="30.2969" rx="2.5" ry="2.5" style="stroke:#181818;stroke-width:0.5;" width="145" x="327.5" y="50"/><text fill="#000000" font-family="sans-serif" font-size="14" lengthAdjust="spacing" textLength="131" x="334.5" y="69.9951">TeacherController</text><rect fill="#E2E2F0" height="30.2969" rx="2.5" ry="2.5" style="stroke:#181818;stroke-width:0.5;" width="145" x="327.5" y="1292.0391"/><text fill="#000000" font-family="sans-serif" font-size="14" lengthAdjust="spacing" textLength="131" x="334.5" y="1312.0342">TeacherController</text><rect fill="#E2E2F0" height="30.2969" rx="2.5" ry="2.5" style="stroke:#181818;stroke-width:0.5;" width="123" x="514.5" y="50"/><text fill="#000000" font-family="sans-serif" font-size="14" lengthAdjust="spacing" textLength="109" x="521.5" y="69.9951">ClassController</text><rect fill="#E2E2F0" height="30.2969" rx="2.5" ry="2.5" style="stroke:#181818;stroke-width:0.5;" width="123" x="514.5" y="1292.0391"/><text fill="#000000" font-family="sans-serif" font-size="14" lengthAdjust="spacing" textLength="109" x="521.5" y="1312.0342">ClassController</text><rect fill="#E2E2F0" height="30.2969" rx="2.5" ry="2.5" style="stroke:#181818;stroke-width:0.5;" width="172" x="652" y="50"/><text fill="#000000" font-family="sans-serif" font-size="14" lengthAdjust="spacing" textLength="158" x="659" y="69.9951">AssignmentController</text><rect fill="#E2E2F0" height="30.2969" rx="2.5" ry="2.5" style="stroke:#181818;stroke-width:0.5;" width="172" x="652" y="1292.0391"/><text fill="#000000" font-family="sans-serif" font-size="14" lengthAdjust="spacing" textLength="158" x="659" y="1312.0342">AssignmentController</text><rect fill="#E2E2F0" height="30.2969" rx="2.5" ry="2.5" style="stroke:#181818;stroke-width:0.5;" width="93" x="961.5" y="50"/><text fill="#000000" font-family="sans-serif" font-size="14" lengthAdjust="spacing" textLength="79" x="968.5" y="69.9951">ClassModel</text><rect fill="#E2E2F0" height="30.2969" rx="2.5" ry="2.5" style="stroke:#181818;stroke-width:0.5;" width="93" x="961.5" y="1292.0391"/><text fill="#000000" font-family="sans-serif" font-size="14" lengthAdjust="spacing" textLength="79" x="968.5" y="1312.0342">ClassModel</text><rect fill="#E2E2F0" height="30.2969" rx="2.5" ry="2.5" style="stroke:#181818;stroke-width:0.5;" width="142" x="1064.5" y="50"/><text fill="#000000" font-family="sans-serif" font-size="14" lengthAdjust="spacing" textLength="128" x="1071.5" y="69.9951">AssignmentModel</text><rect fill="#E2E2F0" height="30.2969" rx="2.5" ry="2.5" style="stroke:#181818;stroke-width:0.5;" width="142" x="1064.5" y="1292.0391"/><text fill="#000000" font-family="sans-serif" font-size="14" lengthAdjust="spacing" textLength="128" x="1071.5" y="1312.0342">AssignmentModel</text><polygon fill="#181818" points="388,108.4297,398,112.4297,388,116.4297,392,112.4297" style="stroke:#181818;stroke-width:1.0;"/><line style="stroke:#181818;stroke-width:1.0;" x1="62" x2="394" y1="112.4297" y2="112.4297"/><text fill="#000000" font-family="sans-serif" font-size="13" lengthAdjust="spacing" textLength="110" x="69" y="107.3638">login(credentials)</text><path d="M20,127.4297 L86,127.4297 L86,134.5625 L76,144.5625 L20,144.5625 L20,127.4297 " fill="#EEEEEE" style="stroke:#000000;stroke-width:1.5;"/><rect fill="none" height="132.3359" style="stroke:#000000;stroke-width:1.5;" width="532" x="20" y="127.4297"/><text fill="#000000" font-family="sans-serif" font-size="13" font-weight="bold" lengthAdjust="spacing" textLength="21" x="35" y="140.4966">alt</text><text fill="#000000" font-family="sans-serif" font-size="11" font-weight="bold" lengthAdjust="spacing" textLength="120" x="101" y="139.6401">[valid credentials]</text><line style="stroke:#181818;stroke-width:1.0;" x1="400" x2="442" y1="165.6953" y2="165.6953"/><line style="stroke:#181818;stroke-width:1.0;" x1="442" x2="442" y1="165.6953" y2="178.6953"/><line style="stroke:#181818;stroke-width:1.0;" x1="401" x2="442" y1="178.6953" y2="178.6953"/><polygon fill="#181818" points="411,174.6953,401,178.6953,411,182.6953,407,178.6953" style="stroke:#181818;stroke-width:1.0;"/><text fill="#000000" font-family="sans-serif" font-size="13" lengthAdjust="spacing" textLength="133" x="407" y="160.6294">validateCredentials()</text><polygon fill="#181818" points="73,203.8281,63,207.8281,73,211.8281,69,207.8281" style="stroke:#181818;stroke-width:1.0;"/><line style="stroke:#181818;stroke-width:1.0;stroke-dasharray:2.0,2.0;" x1="67" x2="399" y1="207.8281" y2="207.8281"/><text fill="#000000" font-family="sans-serif" font-size="13" lengthAdjust="spacing" textLength="82" x="79" y="202.7622">loginSuccess</text><line style="stroke:#000000;stroke-width:1.0;stroke-dasharray:2.0,2.0;" x1="20" x2="552" y1="216.8281" y2="216.8281"/><text fill="#000000" font-family="sans-serif" font-size="11" font-weight="bold" lengthAdjust="spacing" textLength="132" x="25" y="227.0386">[invalid credentials]</text><polygon fill="#181818" points="73,247.7656,63,251.7656,73,255.7656,69,251.7656" style="stroke:#181818;stroke-width:1.0;"/><line style="stroke:#181818;stroke-width:1.0;stroke-dasharray:2.0,2.0;" x1="67" x2="399" y1="251.7656" y2="251.7656"/><text fill="#000000" font-family="sans-serif" font-size="13" lengthAdjust="spacing" textLength="169" x="79" y="246.6997">loginFailure(errorMessage)</text><polygon fill="#181818" points="388,283.8984,398,287.8984,388,291.8984,392,287.8984" style="stroke:#181818;stroke-width:1.0;"/><line style="stroke:#181818;stroke-width:1.0;" x1="62" x2="394" y1="287.8984" y2="287.8984"/><text fill="#000000" font-family="sans-serif" font-size="13" lengthAdjust="spacing" textLength="125" x="69" y="282.8325">selectClass(classId)</text><path d="M20,302.8984 L86,302.8984 L86,310.0313 L76,320.0313 L20,320.0313 L20,302.8984 " fill="#EEEEEE" style="stroke:#000000;stroke-width:1.5;"/><rect fill="none" height="206.7344" style="stroke:#000000;stroke-width:1.5;" width="1044.5" x="20" y="302.8984"/><text fill="#000000" font-family="sans-serif" font-size="13" font-weight="bold" lengthAdjust="spacing" textLength="21" x="35" y="315.9653">alt</text><text fill="#000000" font-family="sans-serif" font-size="11" font-weight="bold" lengthAdjust="spacing" textLength="87" x="101" y="315.1089">[class exists]</text><polygon fill="#181818" points="564,337.1641,574,341.1641,564,345.1641,568,341.1641" style="stroke:#181818;stroke-width:1.0;"/><line style="stroke:#181818;stroke-width:1.0;" x1="400" x2="570" y1="341.1641" y2="341.1641"/><text fill="#000000" font-family="sans-serif" font-size="13" lengthAdjust="spacing" textLength="152" x="407" y="336.0981">getClassDetails(classId)</text><polygon fill="#181818" points="996,366.2969,1006,370.2969,996,374.2969,1000,370.2969" style="stroke:#181818;stroke-width:1.0;"/><line style="stroke:#181818;stroke-width:1.0;" x1="576" x2="1002" y1="370.2969" y2="370.2969"/><text fill="#000000" font-family="sans-serif" font-size="13" lengthAdjust="spacing" textLength="181" x="583" y="365.231">retrieveClassDetails(classId)</text><polygon fill="#181818" points="587,395.4297,577,399.4297,587,403.4297,583,399.4297" style="stroke:#181818;stroke-width:1.0;"/><line style="stroke:#181818;stroke-width:1.0;stroke-dasharray:2.0,2.0;" x1="581" x2="1007" y1="399.4297" y2="399.4297"/><text fill="#000000" font-family="sans-serif" font-size="13" lengthAdjust="spacing" textLength="76" x="593" y="394.3638">classDetails</text><polygon fill="#181818" points="411,424.5625,401,428.5625,411,432.5625,407,428.5625" style="stroke:#181818;stroke-width:1.0;"/><line style="stroke:#181818;stroke-width:1.0;stroke-dasharray:2.0,2.0;" x1="405" x2="575" y1="428.5625" y2="428.5625"/><text fill="#000000" font-family="sans-serif" font-size="13" lengthAdjust="spacing" textLength="76" x="417" y="423.4966">classDetails</text><polygon fill="#181818" points="73,453.6953,63,457.6953,73,461.6953,69,457.6953" style="stroke:#181818;stroke-width:1.0;"/><line style="stroke:#181818;stroke-width:1.0;stroke-dasharray:2.0,2.0;" x1="67" x2="399" y1="457.6953" y2="457.6953"/><text fill="#000000" font-family="sans-serif" font-size="13" lengthAdjust="spacing" textLength="76" x="79" y="452.6294">classDetails</text><line style="stroke:#000000;stroke-width:1.0;stroke-dasharray:2.0,2.0;" x1="20" x2="1064.5" y1="466.6953" y2="466.6953"/><text fill="#000000" font-family="sans-serif" font-size="11" font-weight="bold" lengthAdjust="spacing" textLength="115" x="25" y="476.9058">[class not found]</text><polygon fill="#181818" points="73,497.6328,63,501.6328,73,505.6328,69,501.6328" style="stroke:#181818;stroke-width:1.0;"/><line style="stroke:#181818;stroke-width:1.0;stroke-dasharray:2.0,2.0;" x1="67" x2="399" y1="501.6328" y2="501.6328"/><text fill="#000000" font-family="sans-serif" font-size="13" lengthAdjust="spacing" textLength="151" x="79" y="496.5669">error("Class not found")</text><polygon fill="#181818" points="388,533.7656,398,537.7656,388,541.7656,392,537.7656" style="stroke:#181818;stroke-width:1.0;"/><line style="stroke:#181818;stroke-width:1.0;" x1="62" x2="394" y1="537.7656" y2="537.7656"/><text fill="#000000" font-family="sans-serif" font-size="13" lengthAdjust="spacing" textLength="246" x="69" y="532.6997">createAssignment(assignmentDetails)</text><path d="M10,552.7656 L76,552.7656 L76,559.8984 L66,569.8984 L10,569.8984 L10,552.7656 " fill="#EEEEEE" style="stroke:#000000;stroke-width:1.5;"/><rect fill="none" height="340.0703" style="stroke:#000000;stroke-width:1.5;" width="1216.5" x="10" y="552.7656"/><text fill="#000000" font-family="sans-serif" font-size="13" font-weight="bold" lengthAdjust="spacing" textLength="21" x="25" y="565.8325">alt</text><text fill="#000000" font-family="sans-serif" font-size="11" font-weight="bold" lengthAdjust="spacing" textLength="172" x="91" y="564.9761">[valid assignment details]</text><polygon fill="#181818" points="726,587.0313,736,591.0313,726,595.0313,730,591.0313" style="stroke:#181818;stroke-width:1.0;"/><line style="stroke:#181818;stroke-width:1.0;" x1="400" x2="732" y1="591.0313" y2="591.0313"/><text fill="#000000" font-family="sans-serif" font-size="13" lengthAdjust="spacing" textLength="246" x="407" y="585.9653">createAssignment(assignmentDetails)</text><polygon fill="#181818" points="1123.5,616.1641,1133.5,620.1641,1123.5,624.1641,1127.5,620.1641" style="stroke:#181818;stroke-width:1.0;"/><line style="stroke:#181818;stroke-width:1.0;" x1="738" x2="1129.5" y1="620.1641" y2="620.1641"/><text fill="#000000" font-family="sans-serif" font-size="13" lengthAdjust="spacing" textLength="257" x="745" y="615.0981">addNewAssignment(assignmentDetails)</text><path d="M20,635.1641 L86,635.1641 L86,642.2969 L76,652.2969 L20,652.2969 L20,635.1641 " fill="#EEEEEE" style="stroke:#000000;stroke-width:1.5;"/><rect fill="none" height="206.7344" style="stroke:#000000;stroke-width:1.5;" width="1196.5" x="20" y="635.1641"/><text fill="#000000" font-family="sans-serif" font-size="13" font-weight="bold" lengthAdjust="spacing" textLength="21" x="35" y="648.231">alt</text><text fill="#000000" font-family="sans-serif" font-size="11" font-weight="bold" lengthAdjust="spacing" textLength="135" x="101" y="647.3745">[successfully added]</text><polygon fill="#181818" points="749,669.4297,739,673.4297,749,677.4297,745,673.4297" style="stroke:#181818;stroke-width:1.0;"/><line style="stroke:#181818;stroke-width:1.0;stroke-dasharray:2.0,2.0;" x1="743" x2="1134.5" y1="673.4297" y2="673.4297"/><text fill="#000000" font-family="sans-serif" font-size="13" lengthAdjust="spacing" textLength="81" x="755" y="668.3638">confirmation</text><polygon fill="#181818" points="411,698.5625,401,702.5625,411,706.5625,407,702.5625" style="stroke:#181818;stroke-width:1.0;"/><line style="stroke:#181818;stroke-width:1.0;stroke-dasharray:2.0,2.0;" x1="405" x2="737" y1="702.5625" y2="702.5625"/><text fill="#000000" font-family="sans-serif" font-size="13" lengthAdjust="spacing" textLength="81" x="417" y="697.4966">confirmation</text><polygon fill="#181818" points="73,727.6953,63,731.6953,73,735.6953,69,731.6953" style="stroke:#181818;stroke-width:1.0;"/><line style="stroke:#181818;stroke-width:1.0;stroke-dasharray:2.0,2.0;" x1="67" x2="399" y1="731.6953" y2="731.6953"/><text fill="#000000" font-family="sans-serif" font-size="13" lengthAdjust="spacing" textLength="126" x="79" y="726.6294">assignmentCreated</text><line style="stroke:#000000;stroke-width:1.0;stroke-dasharray:2.0,2.0;" x1="20" x2="1216.5" y1="740.6953" y2="740.6953"/><text fill="#000000" font-family="sans-serif" font-size="11" font-weight="bold" lengthAdjust="spacing" textLength="77" x="25" y="750.9058">[add failed]</text><polygon fill="#181818" points="749,771.6328,739,775.6328,749,779.6328,745,775.6328" style="stroke:#181818;stroke-width:1.0;"/><line style="stroke:#181818;stroke-width:1.0;stroke-dasharray:2.0,2.0;" x1="743" x2="1134.5" y1="775.6328" y2="775.6328"/><text fill="#000000" font-family="sans-serif" font-size="13" lengthAdjust="spacing" textLength="31" x="755" y="770.5669">error</text><polygon fill="#181818" points="411,800.7656,401,804.7656,411,808.7656,407,804.7656" style="stroke:#181818;stroke-width:1.0;"/><line style="stroke:#181818;stroke-width:1.0;stroke-dasharray:2.0,2.0;" x1="405" x2="737" y1="804.7656" y2="804.7656"/><text fill="#000000" font-family="sans-serif" font-size="13" lengthAdjust="spacing" textLength="31" x="417" y="799.6997">error</text><polygon fill="#181818" points="73,829.8984,63,833.8984,73,837.8984,69,833.8984" style="stroke:#181818;stroke-width:1.0;"/><line style="stroke:#181818;stroke-width:1.0;stroke-dasharray:2.0,2.0;" x1="67" x2="399" y1="833.8984" y2="833.8984"/><text fill="#000000" font-family="sans-serif" font-size="13" lengthAdjust="spacing" textLength="229" x="79" y="828.8325">error("Failed to create assignment")</text><line style="stroke:#000000;stroke-width:1.0;stroke-dasharray:2.0,2.0;" x1="10" x2="1226.5" y1="849.8984" y2="849.8984"/><text fill="#000000" font-family="sans-serif" font-size="11" font-weight="bold" lengthAdjust="spacing" textLength="184" x="15" y="860.1089">[invalid assignment details]</text><polygon fill="#181818" points="73,880.8359,63,884.8359,73,888.8359,69,884.8359" style="stroke:#181818;stroke-width:1.0;"/><line style="stroke:#181818;stroke-width:1.0;stroke-dasharray:2.0,2.0;" x1="67" x2="399" y1="884.8359" y2="884.8359"/><text fill="#000000" font-family="sans-serif" font-size="13" lengthAdjust="spacing" textLength="217" x="79" y="879.77">error("Invalid assignment details")</text><polygon fill="#181818" points="388,916.9688,398,920.9688,388,924.9688,392,920.9688" style="stroke:#181818;stroke-width:1.0;"/><line style="stroke:#181818;stroke-width:1.0;" x1="62" x2="394" y1="920.9688" y2="920.9688"/><text fill="#000000" font-family="sans-serif" font-size="13" lengthAdjust="spacing" textLength="314" x="69" y="915.9028">assignAssignmentToClass(assignmentId, classId)</text><path d="M10,935.9688 L76,935.9688 L76,943.1016 L66,953.1016 L10,953.1016 L10,935.9688 " fill="#EEEEEE" style="stroke:#000000;stroke-width:1.5;"/><rect fill="none" height="340.0703" style="stroke:#000000;stroke-width:1.5;" width="1064.5" x="10" y="935.9688"/><text fill="#000000" font-family="sans-serif" font-size="13" font-weight="bold" lengthAdjust="spacing" textLength="21" x="25" y="949.0356">alt</text><text fill="#000000" font-family="sans-serif" font-size="11" font-weight="bold" lengthAdjust="spacing" textLength="225" x="91" y="948.1792">[both class and assignment exist]</text><polygon fill="#181818" points="726,970.2344,736,974.2344,726,978.2344,730,974.2344" style="stroke:#181818;stroke-width:1.0;"/><line style="stroke:#181818;stroke-width:1.0;" x1="400" x2="732" y1="974.2344" y2="974.2344"/><text fill="#000000" font-family="sans-serif" font-size="13" lengthAdjust="spacing" textLength="314" x="407" y="969.1685">assignAssignmentToClass(assignmentId, classId)</text><polygon fill="#181818" points="996,999.3672,1006,1003.3672,996,1007.3672,1000,1003.3672" style="stroke:#181818;stroke-width:1.0;"/><line style="stroke:#181818;stroke-width:1.0;" x1="738" x2="1002" y1="1003.3672" y2="1003.3672"/><text fill="#000000" font-family="sans-serif" font-size="13" lengthAdjust="spacing" textLength="246" x="745" y="998.3013">addAssignmentToClass(assignmentId)</text><path d="M20,1018.3672 L86,1018.3672 L86,1025.5 L76,1035.5 L20,1035.5 L20,1018.3672 " fill="#EEEEEE" style="stroke:#000000;stroke-width:1.5;"/><rect fill="none" height="206.7344" style="stroke:#000000;stroke-width:1.5;" width="1044.5" x="20" y="1018.3672"/><text fill="#000000" font-family="sans-serif" font-size="13" font-weight="bold" lengthAdjust="spacing" textLength="21" x="35" y="1031.4341">alt</text><text fill="#000000" font-family="sans-serif" font-size="11" font-weight="bold" lengthAdjust="spacing" textLength="153" x="101" y="1030.5776">[successfully assigned]</text><polygon fill="#181818" points="749,1052.6328,739,1056.6328,749,1060.6328,745,1056.6328" style="stroke:#181818;stroke-width:1.0;"/><line style="stroke:#181818;stroke-width:1.0;stroke-dasharray:2.0,2.0;" x1="743" x2="1007" y1="1056.6328" y2="1056.6328"/><text fill="#000000" font-family="sans-serif" font-size="13" lengthAdjust="spacing" textLength="128" x="755" y="1051.5669">updateConfirmation</text><polygon fill="#181818" points="411,1081.7656,401,1085.7656,411,1089.7656,407,1085.7656" style="stroke:#181818;stroke-width:1.0;"/><line style="stroke:#181818;stroke-width:1.0;stroke-dasharray:2.0,2.0;" x1="405" x2="737" y1="1085.7656" y2="1085.7656"/><text fill="#000000" font-family="sans-serif" font-size="13" lengthAdjust="spacing" textLength="133" x="417" y="1080.6997">assignmentAssigned</text><polygon fill="#181818" points="73,1110.8984,63,1114.8984,73,1118.8984,69,1114.8984" style="stroke:#181818;stroke-width:1.0;"/><line style="stroke:#181818;stroke-width:1.0;stroke-dasharray:2.0,2.0;" x1="67" x2="399" y1="1114.8984" y2="1114.8984"/><text fill="#000000" font-family="sans-serif" font-size="13" lengthAdjust="spacing" textLength="264" x="79" y="1109.8325">successMessage("Assignment assigned")</text><line style="stroke:#000000;stroke-width:1.0;stroke-dasharray:2.0,2.0;" x1="20" x2="1064.5" y1="1123.8984" y2="1123.8984"/><text fill="#000000" font-family="sans-serif" font-size="11" font-weight="bold" lengthAdjust="spacing" textLength="95" x="25" y="1134.1089">[assign failed]</text><polygon fill="#181818" points="749,1154.8359,739,1158.8359,749,1162.8359,745,1158.8359" style="stroke:#181818;stroke-width:1.0;"/><line style="stroke:#181818;stroke-width:1.0;stroke-dasharray:2.0,2.0;" x1="743" x2="1007" y1="1158.8359" y2="1158.8359"/><text fill="#000000" font-family="sans-serif" font-size="13" lengthAdjust="spacing" textLength="31" x="755" y="1153.77">error</text><polygon fill="#181818" points="411,1183.9688,401,1187.9688,411,1191.9688,407,1187.9688" style="stroke:#181818;stroke-width:1.0;"/><line style="stroke:#181818;stroke-width:1.0;stroke-dasharray:2.0,2.0;" x1="405" x2="737" y1="1187.9688" y2="1187.9688"/><text fill="#000000" font-family="sans-serif" font-size="13" lengthAdjust="spacing" textLength="31" x="417" y="1182.9028">error</text><polygon fill="#181818" points="73,1213.1016,63,1217.1016,73,1221.1016,69,1217.1016" style="stroke:#181818;stroke-width:1.0;"/><line style="stroke:#181818;stroke-width:1.0;stroke-dasharray:2.0,2.0;" x1="67" x2="399" y1="1217.1016" y2="1217.1016"/><text fill="#000000" font-family="sans-serif" font-size="13" lengthAdjust="spacing" textLength="229" x="79" y="1212.0356">error("Failed to assign assignment")</text><line style="stroke:#000000;stroke-width:1.0;stroke-dasharray:2.0,2.0;" x1="10" x2="1074.5" y1="1233.1016" y2="1233.1016"/><text fill="#000000" font-family="sans-serif" font-size="11" font-weight="bold" lengthAdjust="spacing" textLength="215" x="15" y="1243.312">[class or assignment not found]</text><polygon fill="#181818" points="73,1264.0391,63,1268.0391,73,1272.0391,69,1268.0391" style="stroke:#181818;stroke-width:1.0;"/><line style="stroke:#181818;stroke-width:1.0;stroke-dasharray:2.0,2.0;" x1="67" x2="399" y1="1268.0391" y2="1268.0391"/><text fill="#000000" font-family="sans-serif" font-size="13" lengthAdjust="spacing" textLength="248" x="79" y="1262.9731">error("Class or Assignment not found")</text><!--SRC=[jLNBRYCX4BpFLo2VnbBo0tk8D68LoOV9PVq3BBGT908MCDdTlrzei64UECaXFaJEJ5LNTrU16VV6aYCm_Wgskp3h9PSNfZtPvOVKQ6-DKc1tX3bof7CKLSov1OOkC8DpygpVGFi5SDWgDXe1AjKPMtKAPXYxBdTA7fz2U-G7KUOiTSyjY02LJBbznvGdxqn9GQh77GcVmBZo4C0yq0BfzpTGH6MXBF5huXoSwq0v85Atww-fpqogoK8FrXexXYBi3FiEj5XFuq01zxYQdiU_1v7cmNy8_9NErwFGI3f3Olm47vGgOiJHX1i3peAt4jxX3dZ4_h4ghr2tIjS-LozNayyGkBGqWZQUdCmKXj-auOxw58w2tJNM5VOVB2nHwTdjQvQkqr1U4h5e_Id4yvFr8cL8bBXK9iGB_FcO4jjmAKEdIQb_aGXf2LWnRJvrOVH9sZVcfT45K6z_2x1QPMc4ubX93Aq8skGKUciqW2PiAi_VjDnxnjB4cxpGgfLTsaPqStQIxdYpfN1eqbfHISZYqz6aKrOg7CG3cPsvtyQ_vjGoFTF2SxWCpnSLIevepj5zQYj62AcCf9MHqmMlk8_oL6I6PRML0LayNsDzTK_VMhbwZ4d3PykmqMy9MzPgXorv6Nu3Aok_SXy5vh31J97x3m00]--></g></svg>