<?xml version="1.0" encoding="us-ascii" standalone="no"?><svg xmlns="http://www.w3.org/2000/svg" xmlns:xlink="http://www.w3.org/1999/xlink" contentStyleType="text/css" height="844px" preserveAspectRatio="none" style="width:1057px;height:844px;background:#FFFFFF;" version="1.1" viewBox="0 0 1057 844" width="1057px" zoomAndPan="magnify"><defs/><g><rect fill="none" height="132.3359" style="stroke:#000000;stroke-width:1.5;" width="515" x="30" y="127.4297"/><rect fill="none" height="444.2734" style="stroke:#000000;stroke-width:1.5;" width="1040" x="10" y="302.8984"/><rect fill="none" height="340.0703" style="stroke:#000000;stroke-width:1.5;" width="1020" x="20" y="356.1641"/><rect fill="none" height="206.7344" style="stroke:#000000;stroke-width:1.5;" width="1000" x="30" y="409.4297"/><line style="stroke:#181818;stroke-width:0.5;stroke-dasharray:5.0,5.0;" x1="66" x2="66" y1="81.2969" y2="764.1719"/><line style="stroke:#181818;stroke-width:0.5;stroke-dasharray:5.0,5.0;" x1="392.5" x2="392.5" y1="81.2969" y2="764.1719"/><line style="stroke:#181818;stroke-width:0.5;stroke-dasharray:5.0,5.0;" x1="720" x2="720" y1="81.2969" y2="764.1719"/><line style="stroke:#181818;stroke-width:0.5;stroke-dasharray:5.0,5.0;" x1="973" x2="973" y1="81.2969" y2="764.1719"/><text fill="#000000" font-family="sans-serif" font-size="14" lengthAdjust="spacing" textLength="46" x="40" y="77.9951">Admin</text><ellipse cx="66" cy="13.5" fill="#E2E2F0" rx="8" ry="8" style="stroke:#181818;stroke-width:0.5;"/><path d="M66,21.5 L66,48.5 M53,29.5 L79,29.5 M66,48.5 L53,63.5 M66,48.5 L79,63.5 " fill="none" style="stroke:#181818;stroke-width:0.5;"/><text fill="#000000" font-family="sans-serif" font-size="14" lengthAdjust="spacing" textLength="46" x="40" y="776.167">Admin</text><ellipse cx="66" cy="787.9688" fill="#E2E2F0" rx="8" ry="8" style="stroke:#181818;stroke-width:0.5;"/><path d="M66,795.9688 L66,822.9688 M53,803.9688 L79,803.9688 M66,822.9688 L53,837.9688 M66,822.9688 L79,837.9688 " fill="none" style="stroke:#181818;stroke-width:0.5;"/><rect fill="#E2E2F0" height="30.2969" rx="2.5" ry="2.5" style="stroke:#181818;stroke-width:0.5;" width="133" x="326.5" y="50"/><text fill="#000000" font-family="sans-serif" font-size="14" lengthAdjust="spacing" textLength="119" x="333.5" y="69.9951">AdminController</text><rect fill="#E2E2F0" height="30.2969" rx="2.5" ry="2.5" style="stroke:#181818;stroke-width:0.5;" width="133" x="326.5" y="763.1719"/><text fill="#000000" font-family="sans-serif" font-size="14" lengthAdjust="spacing" textLength="119" x="333.5" y="783.167">AdminController</text><rect fill="#E2E2F0" height="30.2969" rx="2.5" ry="2.5" style="stroke:#181818;stroke-width:0.5;" width="124" x="658" y="50"/><text fill="#000000" font-family="sans-serif" font-size="14" lengthAdjust="spacing" textLength="110" x="665" y="69.9951">BookController</text><rect fill="#E2E2F0" height="30.2969" rx="2.5" ry="2.5" style="stroke:#181818;stroke-width:0.5;" width="124" x="658" y="763.1719"/><text fill="#000000" font-family="sans-serif" font-size="14" lengthAdjust="spacing" textLength="110" x="665" y="783.167">BookController</text><rect fill="#E2E2F0" height="30.2969" rx="2.5" ry="2.5" style="stroke:#181818;stroke-width:0.5;" width="94" x="926" y="50"/><text fill="#000000" font-family="sans-serif" font-size="14" lengthAdjust="spacing" textLength="80" x="933" y="69.9951">BookModel</text><rect fill="#E2E2F0" height="30.2969" rx="2.5" ry="2.5" style="stroke:#181818;stroke-width:0.5;" width="94" x="926" y="763.1719"/><text fill="#000000" font-family="sans-serif" font-size="14" lengthAdjust="spacing" textLength="80" x="933" y="783.167">BookModel</text><polygon fill="#181818" points="381,108.4297,391,112.4297,381,116.4297,385,112.4297" style="stroke:#181818;stroke-width:1.0;"/><line style="stroke:#181818;stroke-width:1.0;" x1="66" x2="387" y1="112.4297" y2="112.4297"/><text fill="#000000" font-family="sans-serif" font-size="13" lengthAdjust="spacing" textLength="110" x="73" y="107.3638">login(credentials)</text><path d="M30,127.4297 L96,127.4297 L96,134.5625 L86,144.5625 L30,144.5625 L30,127.4297 " fill="#EEEEEE" style="stroke:#000000;stroke-width:1.5;"/><rect fill="none" height="132.3359" style="stroke:#000000;stroke-width:1.5;" width="515" x="30" y="127.4297"/><text fill="#000000" font-family="sans-serif" font-size="13" font-weight="bold" lengthAdjust="spacing" textLength="21" x="45" y="140.4966">alt</text><text fill="#000000" font-family="sans-serif" font-size="11" font-weight="bold" lengthAdjust="spacing" textLength="120" x="111" y="139.6401">[valid credentials]</text><line style="stroke:#181818;stroke-width:1.0;" x1="393" x2="435" y1="165.6953" y2="165.6953"/><line style="stroke:#181818;stroke-width:1.0;" x1="435" x2="435" y1="165.6953" y2="178.6953"/><line style="stroke:#181818;stroke-width:1.0;" x1="394" x2="435" y1="178.6953" y2="178.6953"/><polygon fill="#181818" points="404,174.6953,394,178.6953,404,182.6953,400,178.6953" style="stroke:#181818;stroke-width:1.0;"/><text fill="#000000" font-family="sans-serif" font-size="13" lengthAdjust="spacing" textLength="133" x="400" y="160.6294">validateCredentials()</text><polygon fill="#181818" points="77,203.8281,67,207.8281,77,211.8281,73,207.8281" style="stroke:#181818;stroke-width:1.0;"/><line style="stroke:#181818;stroke-width:1.0;stroke-dasharray:2.0,2.0;" x1="71" x2="392" y1="207.8281" y2="207.8281"/><text fill="#000000" font-family="sans-serif" font-size="13" lengthAdjust="spacing" textLength="82" x="83" y="202.7622">loginSuccess</text><line style="stroke:#000000;stroke-width:1.0;stroke-dasharray:2.0,2.0;" x1="30" x2="545" y1="216.8281" y2="216.8281"/><text fill="#000000" font-family="sans-serif" font-size="11" font-weight="bold" lengthAdjust="spacing" textLength="132" x="35" y="227.0386">[invalid credentials]</text><polygon fill="#181818" points="77,247.7656,67,251.7656,77,255.7656,73,251.7656" style="stroke:#181818;stroke-width:1.0;"/><line style="stroke:#181818;stroke-width:1.0;stroke-dasharray:2.0,2.0;" x1="71" x2="392" y1="251.7656" y2="251.7656"/><text fill="#000000" font-family="sans-serif" font-size="13" lengthAdjust="spacing" textLength="169" x="83" y="246.6997">loginFailure(errorMessage)</text><polygon fill="#181818" points="381,283.8984,391,287.8984,381,291.8984,385,287.8984" style="stroke:#181818;stroke-width:1.0;"/><line style="stroke:#181818;stroke-width:1.0;" x1="66" x2="387" y1="287.8984" y2="287.8984"/><text fill="#000000" font-family="sans-serif" font-size="13" lengthAdjust="spacing" textLength="213" x="73" y="282.8325">uploadBook(newBookDetails, file)</text><path d="M10,302.8984 L76,302.8984 L76,310.0313 L66,320.0313 L10,320.0313 L10,302.8984 " fill="#EEEEEE" style="stroke:#000000;stroke-width:1.5;"/><rect fill="none" height="444.2734" style="stroke:#000000;stroke-width:1.5;" width="1040" x="10" y="302.8984"/><text fill="#000000" font-family="sans-serif" font-size="13" font-weight="bold" lengthAdjust="spacing" textLength="21" x="25" y="315.9653">alt</text><text fill="#000000" font-family="sans-serif" font-size="11" font-weight="bold" lengthAdjust="spacing" textLength="178" x="91" y="315.1089">[newBookDetails are valid]</text><polygon fill="#181818" points="708,337.1641,718,341.1641,708,345.1641,712,341.1641" style="stroke:#181818;stroke-width:1.0;"/><line style="stroke:#181818;stroke-width:1.0;" x1="393" x2="714" y1="341.1641" y2="341.1641"/><text fill="#000000" font-family="sans-serif" font-size="13" lengthAdjust="spacing" textLength="194" x="400" y="336.0981">addBook(newBookDetails, file)</text><path d="M20,356.1641 L86,356.1641 L86,363.2969 L76,373.2969 L20,373.2969 L20,356.1641 " fill="#EEEEEE" style="stroke:#000000;stroke-width:1.5;"/><rect fill="none" height="340.0703" style="stroke:#000000;stroke-width:1.5;" width="1020" x="20" y="356.1641"/><text fill="#000000" font-family="sans-serif" font-size="13" font-weight="bold" lengthAdjust="spacing" textLength="21" x="35" y="369.231">alt</text><text fill="#000000" font-family="sans-serif" font-size="11" font-weight="bold" lengthAdjust="spacing" textLength="83" x="101" y="368.3745">[file is valid]</text><polygon fill="#181818" points="961,390.4297,971,394.4297,961,398.4297,965,394.4297" style="stroke:#181818;stroke-width:1.0;"/><line style="stroke:#181818;stroke-width:1.0;" x1="720" x2="967" y1="394.4297" y2="394.4297"/><text fill="#000000" font-family="sans-serif" font-size="13" lengthAdjust="spacing" textLength="229" x="727" y="389.3638">saveNewBook(newBookDetails, file)</text><path d="M30,409.4297 L96,409.4297 L96,416.5625 L86,426.5625 L30,426.5625 L30,409.4297 " fill="#EEEEEE" style="stroke:#000000;stroke-width:1.5;"/><rect fill="none" height="206.7344" style="stroke:#000000;stroke-width:1.5;" width="1000" x="30" y="409.4297"/><text fill="#000000" font-family="sans-serif" font-size="13" font-weight="bold" lengthAdjust="spacing" textLength="21" x="45" y="422.4966">alt</text><text fill="#000000" font-family="sans-serif" font-size="11" font-weight="bold" lengthAdjust="spacing" textLength="114" x="111" y="421.6401">[save successful]</text><polygon fill="#181818" points="731,443.6953,721,447.6953,731,451.6953,727,447.6953" style="stroke:#181818;stroke-width:1.0;"/><line style="stroke:#181818;stroke-width:1.0;stroke-dasharray:2.0,2.0;" x1="725" x2="972" y1="447.6953" y2="447.6953"/><text fill="#000000" font-family="sans-serif" font-size="13" lengthAdjust="spacing" textLength="114" x="737" y="442.6294">saveConfirmation</text><polygon fill="#181818" points="404,472.8281,394,476.8281,404,480.8281,400,476.8281" style="stroke:#181818;stroke-width:1.0;"/><line style="stroke:#181818;stroke-width:1.0;stroke-dasharray:2.0,2.0;" x1="398" x2="719" y1="476.8281" y2="476.8281"/><text fill="#000000" font-family="sans-serif" font-size="13" lengthAdjust="spacing" textLength="303" x="410" y="471.7622">successMessage("Book uploaded successfully")</text><polygon fill="#181818" points="77,501.9609,67,505.9609,77,509.9609,73,505.9609" style="stroke:#181818;stroke-width:1.0;"/><line style="stroke:#181818;stroke-width:1.0;stroke-dasharray:2.0,2.0;" x1="71" x2="392" y1="505.9609" y2="505.9609"/><text fill="#000000" font-family="sans-serif" font-size="13" lengthAdjust="spacing" textLength="303" x="83" y="500.895">successMessage("Book uploaded successfully")</text><line style="stroke:#000000;stroke-width:1.0;stroke-dasharray:2.0,2.0;" x1="30" x2="1030" y1="514.9609" y2="514.9609"/><text fill="#000000" font-family="sans-serif" font-size="11" font-weight="bold" lengthAdjust="spacing" textLength="83" x="35" y="525.1714">[save failed]</text><polygon fill="#181818" points="731,545.8984,721,549.8984,731,553.8984,727,549.8984" style="stroke:#181818;stroke-width:1.0;"/><line style="stroke:#181818;stroke-width:1.0;stroke-dasharray:2.0,2.0;" x1="725" x2="972" y1="549.8984" y2="549.8984"/><text fill="#000000" font-family="sans-serif" font-size="13" lengthAdjust="spacing" textLength="31" x="737" y="544.8325">error</text><polygon fill="#181818" points="404,575.0313,394,579.0313,404,583.0313,400,579.0313" style="stroke:#181818;stroke-width:1.0;"/><line style="stroke:#181818;stroke-width:1.0;stroke-dasharray:2.0,2.0;" x1="398" x2="719" y1="579.0313" y2="579.0313"/><text fill="#000000" font-family="sans-serif" font-size="13" lengthAdjust="spacing" textLength="231" x="410" y="573.9653">errorMessage("Failed to save book")</text><polygon fill="#181818" points="77,604.1641,67,608.1641,77,612.1641,73,608.1641" style="stroke:#181818;stroke-width:1.0;"/><line style="stroke:#181818;stroke-width:1.0;stroke-dasharray:2.0,2.0;" x1="71" x2="392" y1="608.1641" y2="608.1641"/><text fill="#000000" font-family="sans-serif" font-size="13" lengthAdjust="spacing" textLength="231" x="83" y="603.0981">errorMessage("Failed to save book")</text><line style="stroke:#000000;stroke-width:1.0;stroke-dasharray:2.0,2.0;" x1="20" x2="1040" y1="624.1641" y2="624.1641"/><text fill="#000000" font-family="sans-serif" font-size="11" font-weight="bold" lengthAdjust="spacing" textLength="80" x="25" y="634.3745">[invalid file]</text><polygon fill="#181818" points="404,655.1016,394,659.1016,404,663.1016,400,659.1016" style="stroke:#181818;stroke-width:1.0;"/><line style="stroke:#181818;stroke-width:1.0;stroke-dasharray:2.0,2.0;" x1="398" x2="719" y1="659.1016" y2="659.1016"/><text fill="#000000" font-family="sans-serif" font-size="13" lengthAdjust="spacing" textLength="171" x="410" y="654.0356">errorMessage("Invalid file")</text><polygon fill="#181818" points="77,684.2344,67,688.2344,77,692.2344,73,688.2344" style="stroke:#181818;stroke-width:1.0;"/><line style="stroke:#181818;stroke-width:1.0;stroke-dasharray:2.0,2.0;" x1="71" x2="392" y1="688.2344" y2="688.2344"/><text fill="#000000" font-family="sans-serif" font-size="13" lengthAdjust="spacing" textLength="171" x="83" y="683.1685">errorMessage("Invalid file")</text><line style="stroke:#000000;stroke-width:1.0;stroke-dasharray:2.0,2.0;" x1="10" x2="1050" y1="704.2344" y2="704.2344"/><text fill="#000000" font-family="sans-serif" font-size="11" font-weight="bold" lengthAdjust="spacing" textLength="164" x="15" y="714.4448">[invalid newBookDetails]</text><polygon fill="#181818" points="77,735.1719,67,739.1719,77,743.1719,73,739.1719" style="stroke:#181818;stroke-width:1.0;"/><line style="stroke:#181818;stroke-width:1.0;stroke-dasharray:2.0,2.0;" x1="71" x2="392" y1="739.1719" y2="739.1719"/><text fill="#000000" font-family="sans-serif" font-size="13" lengthAdjust="spacing" textLength="229" x="83" y="734.106">errorMessage("Invalid book details")</text><!--SRC=[dPFFReCm3CRlUGgB4qZR2-mmgNIgj0Exx0ayOgfeQL8beTFUVd52ku1QzeSB8ldyip_RO1-iWuqyA2EEw8BgrH5DW2eTRQq9pcfDhWBqiDdEDQsrxmj9UqNIMKawttP2933SFqOQF82sUsNgtf4a4nHgtmZK0KwebOJYM41yOiGvBWamqFPRKZSN4QjIcYd1wzZtvBqWxGcKkKrV1kvGwT5HJSvPrqK4xgaHPEJIntZK5YMxhGrzyFk9GWpsTp0eJTdL_0RGKVPHc6iPXdADn6AcyHSeNo3uQJEcYnYF9th9Y1NK6STgyBbHmwWlTmdQfTQaubWNXpueTy2Wh9aBfnucOMPDNQlJAanz8bbaqfzLCuCi1l4lJffqiZH4moHlsacJlUcXd7jTxH8AWitajrZ8Ukb_2UUbkbH-tb4Ua_YviET2NY1NgxaImoNCqi-tHloQoTP0vgWg_IzV]--></g></svg>