<?xml version="1.0" encoding="us-ascii" standalone="no"?><svg xmlns="http://www.w3.org/2000/svg" xmlns:xlink="http://www.w3.org/1999/xlink" contentStyleType="text/css" height="1253px" preserveAspectRatio="none" style="width:1222px;height:1253px;background:#FFFFFF;" version="1.1" viewBox="0 0 1222 1253" width="1222px" zoomAndPan="magnify"><defs/><g><rect fill="none" height="132.3359" style="stroke:#000000;stroke-width:1.5;" width="469" x="40" y="127.4297"/><rect fill="none" height="823.6719" style="stroke:#000000;stroke-width:1.5;" width="1205" x="10" y="332.0313"/><rect fill="none" height="589.9375" style="stroke:#000000;stroke-width:1.5;" width="1185" x="20" y="485.6953"/><rect fill="none" height="340.0703" style="stroke:#000000;stroke-width:1.5;" width="1165" x="30" y="655.4922"/><rect fill="none" height="206.7344" style="stroke:#000000;stroke-width:1.5;" width="1145" x="40" y="708.7578"/><line style="stroke:#181818;stroke-width:0.5;stroke-dasharray:5.0,5.0;" x1="82" x2="82" y1="81.2969" y2="1172.7031"/><line style="stroke:#181818;stroke-width:0.5;stroke-dasharray:5.0,5.0;" x1="356.5" x2="356.5" y1="81.2969" y2="1172.7031"/><line style="stroke:#181818;stroke-width:0.5;stroke-dasharray:5.0,5.0;" x1="630" x2="630" y1="81.2969" y2="1172.7031"/><line style="stroke:#181818;stroke-width:0.5;stroke-dasharray:5.0,5.0;" x1="866" x2="866" y1="81.2969" y2="1172.7031"/><line style="stroke:#181818;stroke-width:0.5;stroke-dasharray:5.0,5.0;" x1="1106" x2="1106" y1="81.2969" y2="1172.7031"/><text fill="#000000" font-family="sans-serif" font-size="14" lengthAdjust="spacing" textLength="58" x="50" y="77.9951">Teacher</text><ellipse cx="82" cy="13.5" fill="#E2E2F0" rx="8" ry="8" style="stroke:#181818;stroke-width:0.5;"/><path d="M82,21.5 L82,48.5 M69,29.5 L95,29.5 M82,48.5 L69,63.5 M82,48.5 L95,63.5 " fill="none" style="stroke:#181818;stroke-width:0.5;"/><text fill="#000000" font-family="sans-serif" font-size="14" lengthAdjust="spacing" textLength="58" x="50" y="1184.6982">Teacher</text><ellipse cx="82" cy="1196.5" fill="#E2E2F0" rx="8" ry="8" style="stroke:#181818;stroke-width:0.5;"/><path d="M82,1204.5 L82,1231.5 M69,1212.5 L95,1212.5 M82,1231.5 L69,1246.5 M82,1231.5 L95,1246.5 " fill="none" style="stroke:#181818;stroke-width:0.5;"/><rect fill="#E2E2F0" height="30.2969" rx="2.5" ry="2.5" style="stroke:#181818;stroke-width:0.5;" width="145" x="284.5" y="50"/><text fill="#000000" font-family="sans-serif" font-size="14" lengthAdjust="spacing" textLength="131" x="291.5" y="69.9951">TeacherController</text><rect fill="#E2E2F0" height="30.2969" rx="2.5" ry="2.5" style="stroke:#181818;stroke-width:0.5;" width="145" x="284.5" y="1171.7031"/><text fill="#000000" font-family="sans-serif" font-size="14" lengthAdjust="spacing" textLength="131" x="291.5" y="1191.6982">TeacherController</text><rect fill="#E2E2F0" height="30.2969" rx="2.5" ry="2.5" style="stroke:#181818;stroke-width:0.5;" width="172" x="544" y="50"/><text fill="#000000" font-family="sans-serif" font-size="14" lengthAdjust="spacing" textLength="158" x="551" y="69.9951">AssignmentController</text><rect fill="#E2E2F0" height="30.2969" rx="2.5" ry="2.5" style="stroke:#181818;stroke-width:0.5;" width="172" x="544" y="1171.7031"/><text fill="#000000" font-family="sans-serif" font-size="14" lengthAdjust="spacing" textLength="158" x="551" y="1191.6982">AssignmentController</text><rect fill="#E2E2F0" height="30.2969" rx="2.5" ry="2.5" style="stroke:#181818;stroke-width:0.5;" width="168" x="782" y="50"/><text fill="#000000" font-family="sans-serif" font-size="14" lengthAdjust="spacing" textLength="154" x="789" y="69.9951">SubmissionController</text><rect fill="#E2E2F0" height="30.2969" rx="2.5" ry="2.5" style="stroke:#181818;stroke-width:0.5;" width="168" x="782" y="1171.7031"/><text fill="#000000" font-family="sans-serif" font-size="14" lengthAdjust="spacing" textLength="154" x="789" y="1191.6982">SubmissionController</text><rect fill="#E2E2F0" height="30.2969" rx="2.5" ry="2.5" style="stroke:#181818;stroke-width:0.5;" width="138" x="1037" y="50"/><text fill="#000000" font-family="sans-serif" font-size="14" lengthAdjust="spacing" textLength="124" x="1044" y="69.9951">SubmissionModel</text><rect fill="#E2E2F0" height="30.2969" rx="2.5" ry="2.5" style="stroke:#181818;stroke-width:0.5;" width="138" x="1037" y="1171.7031"/><text fill="#000000" font-family="sans-serif" font-size="14" lengthAdjust="spacing" textLength="124" x="1044" y="1191.6982">SubmissionModel</text><polygon fill="#181818" points="345,108.4297,355,112.4297,345,116.4297,349,112.4297" style="stroke:#181818;stroke-width:1.0;"/><line style="stroke:#181818;stroke-width:1.0;" x1="82" x2="351" y1="112.4297" y2="112.4297"/><text fill="#000000" font-family="sans-serif" font-size="13" lengthAdjust="spacing" textLength="110" x="89" y="107.3638">login(credentials)</text><path d="M40,127.4297 L106,127.4297 L106,134.5625 L96,144.5625 L40,144.5625 L40,127.4297 " fill="#EEEEEE" style="stroke:#000000;stroke-width:1.5;"/><rect fill="none" height="132.3359" style="stroke:#000000;stroke-width:1.5;" width="469" x="40" y="127.4297"/><text fill="#000000" font-family="sans-serif" font-size="13" font-weight="bold" lengthAdjust="spacing" textLength="21" x="55" y="140.4966">alt</text><text fill="#000000" font-family="sans-serif" font-size="11" font-weight="bold" lengthAdjust="spacing" textLength="120" x="121" y="139.6401">[valid credentials]</text><line style="stroke:#181818;stroke-width:1.0;" x1="357" x2="399" y1="165.6953" y2="165.6953"/><line style="stroke:#181818;stroke-width:1.0;" x1="399" x2="399" y1="165.6953" y2="178.6953"/><line style="stroke:#181818;stroke-width:1.0;" x1="358" x2="399" y1="178.6953" y2="178.6953"/><polygon fill="#181818" points="368,174.6953,358,178.6953,368,182.6953,364,178.6953" style="stroke:#181818;stroke-width:1.0;"/><text fill="#000000" font-family="sans-serif" font-size="13" lengthAdjust="spacing" textLength="133" x="364" y="160.6294">validateCredentials()</text><polygon fill="#181818" points="93,203.8281,83,207.8281,93,211.8281,89,207.8281" style="stroke:#181818;stroke-width:1.0;"/><line style="stroke:#181818;stroke-width:1.0;stroke-dasharray:2.0,2.0;" x1="87" x2="356" y1="207.8281" y2="207.8281"/><text fill="#000000" font-family="sans-serif" font-size="13" lengthAdjust="spacing" textLength="82" x="99" y="202.7622">loginSuccess</text><line style="stroke:#000000;stroke-width:1.0;stroke-dasharray:2.0,2.0;" x1="40" x2="509" y1="216.8281" y2="216.8281"/><text fill="#000000" font-family="sans-serif" font-size="11" font-weight="bold" lengthAdjust="spacing" textLength="132" x="45" y="227.0386">[invalid credentials]</text><polygon fill="#181818" points="93,247.7656,83,251.7656,93,255.7656,89,251.7656" style="stroke:#181818;stroke-width:1.0;"/><line style="stroke:#181818;stroke-width:1.0;stroke-dasharray:2.0,2.0;" x1="87" x2="356" y1="251.7656" y2="251.7656"/><text fill="#000000" font-family="sans-serif" font-size="13" lengthAdjust="spacing" textLength="169" x="99" y="246.6997">loginFailure(errorMessage)</text><polygon fill="#181818" points="345,283.8984,355,287.8984,345,291.8984,349,287.8984" style="stroke:#181818;stroke-width:1.0;"/><line style="stroke:#181818;stroke-width:1.0;" x1="82" x2="351" y1="287.8984" y2="287.8984"/><text fill="#000000" font-family="sans-serif" font-size="13" lengthAdjust="spacing" textLength="210" x="89" y="282.8325">selectAssignment(assignmentId)</text><polygon fill="#181818" points="618,313.0313,628,317.0313,618,321.0313,622,317.0313" style="stroke:#181818;stroke-width:1.0;"/><line style="stroke:#181818;stroke-width:1.0;" x1="357" x2="624" y1="317.0313" y2="317.0313"/><text fill="#000000" font-family="sans-serif" font-size="13" lengthAdjust="spacing" textLength="237" x="364" y="311.9653">getAssignmentDetails(assignmentId)</text><path d="M10,332.0313 L76,332.0313 L76,339.1641 L66,349.1641 L10,349.1641 L10,332.0313 " fill="#EEEEEE" style="stroke:#000000;stroke-width:1.5;"/><rect fill="none" height="823.6719" style="stroke:#000000;stroke-width:1.5;" width="1205" x="10" y="332.0313"/><text fill="#000000" font-family="sans-serif" font-size="13" font-weight="bold" lengthAdjust="spacing" textLength="21" x="25" y="345.0981">alt</text><text fill="#000000" font-family="sans-serif" font-size="11" font-weight="bold" lengthAdjust="spacing" textLength="131" x="91" y="344.2417">[assignment exists]</text><line style="stroke:#181818;stroke-width:1.0;" x1="630" x2="672" y1="370.2969" y2="370.2969"/><line style="stroke:#181818;stroke-width:1.0;" x1="672" x2="672" y1="370.2969" y2="383.2969"/><line style="stroke:#181818;stroke-width:1.0;" x1="631" x2="672" y1="383.2969" y2="383.2969"/><polygon fill="#181818" points="641,379.2969,631,383.2969,641,387.2969,637,383.2969" style="stroke:#181818;stroke-width:1.0;"/><text fill="#000000" font-family="sans-serif" font-size="13" lengthAdjust="spacing" textLength="222" x="637" y="365.231">retrieveAssignment(assignmentId)</text><polygon fill="#181818" points="368,408.4297,358,412.4297,368,416.4297,364,412.4297" style="stroke:#181818;stroke-width:1.0;"/><line style="stroke:#181818;stroke-width:1.0;stroke-dasharray:2.0,2.0;" x1="362" x2="629" y1="412.4297" y2="412.4297"/><text fill="#000000" font-family="sans-serif" font-size="13" lengthAdjust="spacing" textLength="119" x="374" y="407.3638">assignmentDetails</text><polygon fill="#181818" points="345,437.5625,355,441.5625,345,445.5625,349,441.5625" style="stroke:#181818;stroke-width:1.0;"/><line style="stroke:#181818;stroke-width:1.0;" x1="82" x2="351" y1="441.5625" y2="441.5625"/><text fill="#000000" font-family="sans-serif" font-size="13" lengthAdjust="spacing" textLength="204" x="89" y="436.4966">selectSubmission(submissionId)</text><polygon fill="#181818" points="854,466.6953,864,470.6953,854,474.6953,858,470.6953" style="stroke:#181818;stroke-width:1.0;"/><line style="stroke:#181818;stroke-width:1.0;" x1="357" x2="860" y1="470.6953" y2="470.6953"/><text fill="#000000" font-family="sans-serif" font-size="13" lengthAdjust="spacing" textLength="231" x="364" y="465.6294">getSubmissionDetails(submissionId)</text><path d="M20,485.6953 L86,485.6953 L86,492.8281 L76,502.8281 L20,502.8281 L20,485.6953 " fill="#EEEEEE" style="stroke:#000000;stroke-width:1.5;"/><rect fill="none" height="589.9375" style="stroke:#000000;stroke-width:1.5;" width="1185" x="20" y="485.6953"/><text fill="#000000" font-family="sans-serif" font-size="13" font-weight="bold" lengthAdjust="spacing" textLength="21" x="35" y="498.7622">alt</text><text fill="#000000" font-family="sans-serif" font-size="11" font-weight="bold" lengthAdjust="spacing" textLength="128" x="101" y="497.9058">[submission exists]</text><polygon fill="#181818" points="1094,519.9609,1104,523.9609,1094,527.9609,1098,523.9609" style="stroke:#181818;stroke-width:1.0;"/><line style="stroke:#181818;stroke-width:1.0;" x1="866" x2="1100" y1="523.9609" y2="523.9609"/><text fill="#000000" font-family="sans-serif" font-size="13" lengthAdjust="spacing" textLength="216" x="873" y="518.895">retrieveSubmission(submissionId)</text><polygon fill="#181818" points="877,549.0938,867,553.0938,877,557.0938,873,553.0938" style="stroke:#181818;stroke-width:1.0;"/><line style="stroke:#181818;stroke-width:1.0;stroke-dasharray:2.0,2.0;" x1="871" x2="1105" y1="553.0938" y2="553.0938"/><text fill="#000000" font-family="sans-serif" font-size="13" lengthAdjust="spacing" textLength="116" x="883" y="548.0278">submissionDetails</text><polygon fill="#181818" points="368,578.2266,358,582.2266,368,586.2266,364,582.2266" style="stroke:#181818;stroke-width:1.0;"/><line style="stroke:#181818;stroke-width:1.0;stroke-dasharray:2.0,2.0;" x1="362" x2="865" y1="582.2266" y2="582.2266"/><text fill="#000000" font-family="sans-serif" font-size="13" lengthAdjust="spacing" textLength="116" x="374" y="577.1606">submissionDetails</text><polygon fill="#181818" points="345,607.3594,355,611.3594,345,615.3594,349,611.3594" style="stroke:#181818;stroke-width:1.0;"/><line style="stroke:#181818;stroke-width:1.0;" x1="82" x2="351" y1="611.3594" y2="611.3594"/><text fill="#000000" font-family="sans-serif" font-size="13" lengthAdjust="spacing" textLength="248" x="89" y="606.2935">gradeSubmission(submissionId, grade)</text><polygon fill="#181818" points="854,636.4922,864,640.4922,854,644.4922,858,640.4922" style="stroke:#181818;stroke-width:1.0;"/><line style="stroke:#181818;stroke-width:1.0;" x1="357" x2="860" y1="640.4922" y2="640.4922"/><text fill="#000000" font-family="sans-serif" font-size="13" lengthAdjust="spacing" textLength="222" x="364" y="635.4263">updateGrade(submissionId, grade)</text><path d="M30,655.4922 L96,655.4922 L96,662.625 L86,672.625 L30,672.625 L30,655.4922 " fill="#EEEEEE" style="stroke:#000000;stroke-width:1.5;"/><rect fill="none" height="340.0703" style="stroke:#000000;stroke-width:1.5;" width="1165" x="30" y="655.4922"/><text fill="#000000" font-family="sans-serif" font-size="13" font-weight="bold" lengthAdjust="spacing" textLength="21" x="45" y="668.5591">alt</text><text fill="#000000" font-family="sans-serif" font-size="11" font-weight="bold" lengthAdjust="spacing" textLength="98" x="111" y="667.7026">[grade is valid]</text><polygon fill="#181818" points="1094,689.7578,1104,693.7578,1094,697.7578,1098,693.7578" style="stroke:#181818;stroke-width:1.0;"/><line style="stroke:#181818;stroke-width:1.0;" x1="866" x2="1100" y1="693.7578" y2="693.7578"/><text fill="#000000" font-family="sans-serif" font-size="13" lengthAdjust="spacing" textLength="197" x="873" y="688.6919">setGrade(submissionId, grade)</text><path d="M40,708.7578 L106,708.7578 L106,715.8906 L96,725.8906 L40,725.8906 L40,708.7578 " fill="#EEEEEE" style="stroke:#000000;stroke-width:1.5;"/><rect fill="none" height="206.7344" style="stroke:#000000;stroke-width:1.5;" width="1145" x="40" y="708.7578"/><text fill="#000000" font-family="sans-serif" font-size="13" font-weight="bold" lengthAdjust="spacing" textLength="21" x="55" y="721.8247">alt</text><text fill="#000000" font-family="sans-serif" font-size="11" font-weight="bold" lengthAdjust="spacing" textLength="192" x="121" y="720.9683">[grade updated successfully]</text><polygon fill="#181818" points="877,743.0234,867,747.0234,877,751.0234,873,747.0234" style="stroke:#181818;stroke-width:1.0;"/><line style="stroke:#181818;stroke-width:1.0;stroke-dasharray:2.0,2.0;" x1="871" x2="1105" y1="747.0234" y2="747.0234"/><text fill="#000000" font-family="sans-serif" font-size="13" lengthAdjust="spacing" textLength="128" x="883" y="741.9575">updateConfirmation</text><polygon fill="#181818" points="368,772.1563,358,776.1563,368,780.1563,364,776.1563" style="stroke:#181818;stroke-width:1.0;"/><line style="stroke:#181818;stroke-width:1.0;stroke-dasharray:2.0,2.0;" x1="362" x2="865" y1="776.1563" y2="776.1563"/><text fill="#000000" font-family="sans-serif" font-size="13" lengthAdjust="spacing" textLength="223" x="374" y="771.0903">successMessage("Grade updated")</text><polygon fill="#181818" points="93,801.2891,83,805.2891,93,809.2891,89,805.2891" style="stroke:#181818;stroke-width:1.0;"/><line style="stroke:#181818;stroke-width:1.0;stroke-dasharray:2.0,2.0;" x1="87" x2="356" y1="805.2891" y2="805.2891"/><text fill="#000000" font-family="sans-serif" font-size="13" lengthAdjust="spacing" textLength="223" x="99" y="800.2231">successMessage("Grade updated")</text><line style="stroke:#000000;stroke-width:1.0;stroke-dasharray:2.0,2.0;" x1="40" x2="1185" y1="814.2891" y2="814.2891"/><text fill="#000000" font-family="sans-serif" font-size="11" font-weight="bold" lengthAdjust="spacing" textLength="142" x="45" y="824.4995">[grade update failed]</text><polygon fill="#181818" points="877,845.2266,867,849.2266,877,853.2266,873,849.2266" style="stroke:#181818;stroke-width:1.0;"/><line style="stroke:#181818;stroke-width:1.0;stroke-dasharray:2.0,2.0;" x1="871" x2="1105" y1="849.2266" y2="849.2266"/><text fill="#000000" font-family="sans-serif" font-size="13" lengthAdjust="spacing" textLength="31" x="883" y="844.1606">error</text><polygon fill="#181818" points="368,874.3594,358,878.3594,368,882.3594,364,878.3594" style="stroke:#181818;stroke-width:1.0;"/><line style="stroke:#181818;stroke-width:1.0;stroke-dasharray:2.0,2.0;" x1="362" x2="865" y1="878.3594" y2="878.3594"/><text fill="#000000" font-family="sans-serif" font-size="13" lengthAdjust="spacing" textLength="251" x="374" y="873.2935">errorMessage("Failed to update grade")</text><polygon fill="#181818" points="93,903.4922,83,907.4922,93,911.4922,89,907.4922" style="stroke:#181818;stroke-width:1.0;"/><line style="stroke:#181818;stroke-width:1.0;stroke-dasharray:2.0,2.0;" x1="87" x2="356" y1="907.4922" y2="907.4922"/><text fill="#000000" font-family="sans-serif" font-size="13" lengthAdjust="spacing" textLength="251" x="99" y="902.4263">errorMessage("Failed to update grade")</text><line style="stroke:#000000;stroke-width:1.0;stroke-dasharray:2.0,2.0;" x1="30" x2="1195" y1="923.4922" y2="923.4922"/><text fill="#000000" font-family="sans-serif" font-size="11" font-weight="bold" lengthAdjust="spacing" textLength="95" x="35" y="933.7026">[invalid grade]</text><polygon fill="#181818" points="368,954.4297,358,958.4297,368,962.4297,364,958.4297" style="stroke:#181818;stroke-width:1.0;"/><line style="stroke:#181818;stroke-width:1.0;stroke-dasharray:2.0,2.0;" x1="362" x2="865" y1="958.4297" y2="958.4297"/><text fill="#000000" font-family="sans-serif" font-size="13" lengthAdjust="spacing" textLength="189" x="374" y="953.3638">errorMessage("Invalid grade")</text><polygon fill="#181818" points="93,983.5625,83,987.5625,93,991.5625,89,987.5625" style="stroke:#181818;stroke-width:1.0;"/><line style="stroke:#181818;stroke-width:1.0;stroke-dasharray:2.0,2.0;" x1="87" x2="356" y1="987.5625" y2="987.5625"/><text fill="#000000" font-family="sans-serif" font-size="13" lengthAdjust="spacing" textLength="189" x="99" y="982.4966">errorMessage("Invalid grade")</text><line style="stroke:#000000;stroke-width:1.0;stroke-dasharray:2.0,2.0;" x1="20" x2="1205" y1="1003.5625" y2="1003.5625"/><text fill="#000000" font-family="sans-serif" font-size="11" font-weight="bold" lengthAdjust="spacing" textLength="156" x="25" y="1013.7729">[submission not found]</text><polygon fill="#181818" points="368,1034.5,358,1038.5,368,1042.5,364,1038.5" style="stroke:#181818;stroke-width:1.0;"/><line style="stroke:#181818;stroke-width:1.0;stroke-dasharray:2.0,2.0;" x1="362" x2="865" y1="1038.5" y2="1038.5"/><text fill="#000000" font-family="sans-serif" font-size="13" lengthAdjust="spacing" textLength="246" x="374" y="1033.4341">errorMessage("Submission not found")</text><polygon fill="#181818" points="93,1063.6328,83,1067.6328,93,1071.6328,89,1067.6328" style="stroke:#181818;stroke-width:1.0;"/><line style="stroke:#181818;stroke-width:1.0;stroke-dasharray:2.0,2.0;" x1="87" x2="356" y1="1067.6328" y2="1067.6328"/><text fill="#000000" font-family="sans-serif" font-size="13" lengthAdjust="spacing" textLength="246" x="99" y="1062.5669">errorMessage("Submission not found")</text><line style="stroke:#000000;stroke-width:1.0;stroke-dasharray:2.0,2.0;" x1="10" x2="1215" y1="1083.6328" y2="1083.6328"/><text fill="#000000" font-family="sans-serif" font-size="11" font-weight="bold" lengthAdjust="spacing" textLength="159" x="15" y="1093.8433">[assignment not found]</text><polygon fill="#181818" points="368,1114.5703,358,1118.5703,368,1122.5703,364,1118.5703" style="stroke:#181818;stroke-width:1.0;"/><line style="stroke:#181818;stroke-width:1.0;stroke-dasharray:2.0,2.0;" x1="362" x2="629" y1="1118.5703" y2="1118.5703"/><text fill="#000000" font-family="sans-serif" font-size="13" lengthAdjust="spacing" textLength="249" x="374" y="1113.5044">errorMessage("Assignment not found")</text><polygon fill="#181818" points="93,1143.7031,83,1147.7031,93,1151.7031,89,1147.7031" style="stroke:#181818;stroke-width:1.0;"/><line style="stroke:#181818;stroke-width:1.0;stroke-dasharray:2.0,2.0;" x1="87" x2="356" y1="1147.7031" y2="1147.7031"/><text fill="#000000" font-family="sans-serif" font-size="13" lengthAdjust="spacing" textLength="249" x="99" y="1142.6372">errorMessage("Assignment not found")</text><!--SRC=[dLLBRiCW5Dnp2kILBRKNwAAIbIfH5bub5w3sYuj4808SjRSl7sDZ_4bQhooOcJVpyCEaraBYCv3w2oIw4QbfJM-4QvprYpl1jHICWSmmKVYycw9AfMZBhy1r0YmJuAdxl5835Zm1cerLQ2KQO05L8THxmg_lnWX-mqoqbEUrXCOOe8If0X6cyPqmsk1e6M7p64RWEG3Hi1iXUJ60BAelr9SuTNKDIY5W2Z3bw_fpwfvGrad8GKeXAoD2MYWGy6QUHW63MeyTpSdmUcmAvFsN5jb21Fi0RMge16txCAvW-APAUv_bg2D1ImftMAqPyC4YIQlwv8j1ncFCrV0QH7qOU_O-pWWESUOS6sbSZIFPnsbvpIgAjkcYvrKkO6z6fKwI2aF8LLpQZbQIPit7YzyTxKmQqztiLtgmY6sMROrRmbJvhtlOMkYD0ls4vbJNMsbCR3SAbuwndmbqgPUUP0R-GkMLQ5DdYJ9fgbFlvoJF3d7jh9YnPpFt5m4tpN4wV37d2Ct3M6wM7oI9vptFzauOQn4gkRBF1Fg7ZhrS9Xd3ZUN0w5dFnvYLb7XWSuqQd3bNqIXpeV55T97lBMEd1M8sdQ0DRnjiQyzPYoxEgRLorLIvGCbM_YbFCOsPNm00]--></g></svg>