<?xml version="1.0" encoding="us-ascii" standalone="no"?><svg xmlns="http://www.w3.org/2000/svg" xmlns:xlink="http://www.w3.org/1999/xlink" contentStyleType="text/css" height="1019px" preserveAspectRatio="none" style="width:858px;height:1019px;background:#FFFFFF;" version="1.1" viewBox="0 0 858 1019" width="858px" zoomAndPan="magnify"><defs/><g><rect fill="none" height="132.3359" style="stroke:#000000;stroke-width:1.5;" width="530" x="30" y="127.4297"/><rect fill="none" height="589.9375" style="stroke:#000000;stroke-width:1.5;" width="841" x="10" y="332.0313"/><rect fill="none" height="398.3359" style="stroke:#000000;stroke-width:1.5;" width="821" x="20" y="443.5625"/><rect fill="none" height="206.7344" style="stroke:#000000;stroke-width:1.5;" width="801" x="30" y="555.0938"/><line style="stroke:#181818;stroke-width:0.5;stroke-dasharray:5.0,5.0;" x1="72" x2="72" y1="81.2969" y2="938.9688"/><line style="stroke:#181818;stroke-width:0.5;stroke-dasharray:5.0,5.0;" x1="407.5" x2="407.5" y1="81.2969" y2="938.9688"/><line style="stroke:#181818;stroke-width:0.5;stroke-dasharray:5.0,5.0;" x1="617" x2="617" y1="81.2969" y2="938.9688"/><line style="stroke:#181818;stroke-width:0.5;stroke-dasharray:5.0,5.0;" x1="774" x2="774" y1="81.2969" y2="938.9688"/><text fill="#000000" font-family="sans-serif" font-size="14" lengthAdjust="spacing" textLength="58" x="40" y="77.9951">Student</text><ellipse cx="72" cy="13.5" fill="#E2E2F0" rx="8" ry="8" style="stroke:#181818;stroke-width:0.5;"/><path d="M72,21.5 L72,48.5 M59,29.5 L85,29.5 M72,48.5 L59,63.5 M72,48.5 L85,63.5 " fill="none" style="stroke:#181818;stroke-width:0.5;"/><text fill="#000000" font-family="sans-serif" font-size="14" lengthAdjust="spacing" textLength="58" x="40" y="950.9639">Student</text><ellipse cx="72" cy="962.7656" fill="#E2E2F0" rx="8" ry="8" style="stroke:#181818;stroke-width:0.5;"/><path d="M72,970.7656 L72,997.7656 M59,978.7656 L85,978.7656 M72,997.7656 L59,1012.7656 M72,997.7656 L85,1012.7656 " fill="none" style="stroke:#181818;stroke-width:0.5;"/><rect fill="#E2E2F0" height="30.2969" rx="2.5" ry="2.5" style="stroke:#181818;stroke-width:0.5;" width="145" x="335.5" y="50"/><text fill="#000000" font-family="sans-serif" font-size="14" lengthAdjust="spacing" textLength="131" x="342.5" y="69.9951">StudentController</text><rect fill="#E2E2F0" height="30.2969" rx="2.5" ry="2.5" style="stroke:#181818;stroke-width:0.5;" width="145" x="335.5" y="937.9688"/><text fill="#000000" font-family="sans-serif" font-size="14" lengthAdjust="spacing" textLength="131" x="342.5" y="957.9639">StudentController</text><rect fill="#E2E2F0" height="30.2969" rx="2.5" ry="2.5" style="stroke:#181818;stroke-width:0.5;" width="124" x="555" y="50"/><text fill="#000000" font-family="sans-serif" font-size="14" lengthAdjust="spacing" textLength="110" x="562" y="69.9951">BookController</text><rect fill="#E2E2F0" height="30.2969" rx="2.5" ry="2.5" style="stroke:#181818;stroke-width:0.5;" width="124" x="555" y="937.9688"/><text fill="#000000" font-family="sans-serif" font-size="14" lengthAdjust="spacing" textLength="110" x="562" y="957.9639">BookController</text><rect fill="#E2E2F0" height="30.2969" rx="2.5" ry="2.5" style="stroke:#181818;stroke-width:0.5;" width="94" x="727" y="50"/><text fill="#000000" font-family="sans-serif" font-size="14" lengthAdjust="spacing" textLength="80" x="734" y="69.9951">BookModel</text><rect fill="#E2E2F0" height="30.2969" rx="2.5" ry="2.5" style="stroke:#181818;stroke-width:0.5;" width="94" x="727" y="937.9688"/><text fill="#000000" font-family="sans-serif" font-size="14" lengthAdjust="spacing" textLength="80" x="734" y="957.9639">BookModel</text><polygon fill="#181818" points="396,108.4297,406,112.4297,396,116.4297,400,112.4297" style="stroke:#181818;stroke-width:1.0;"/><line style="stroke:#181818;stroke-width:1.0;" x1="72" x2="402" y1="112.4297" y2="112.4297"/><text fill="#000000" font-family="sans-serif" font-size="13" lengthAdjust="spacing" textLength="110" x="79" y="107.3638">login(credentials)</text><path d="M30,127.4297 L96,127.4297 L96,134.5625 L86,144.5625 L30,144.5625 L30,127.4297 " fill="#EEEEEE" style="stroke:#000000;stroke-width:1.5;"/><rect fill="none" height="132.3359" style="stroke:#000000;stroke-width:1.5;" width="530" x="30" y="127.4297"/><text fill="#000000" font-family="sans-serif" font-size="13" font-weight="bold" lengthAdjust="spacing" textLength="21" x="45" y="140.4966">alt</text><text fill="#000000" font-family="sans-serif" font-size="11" font-weight="bold" lengthAdjust="spacing" textLength="120" x="111" y="139.6401">[valid credentials]</text><line style="stroke:#181818;stroke-width:1.0;" x1="408" x2="450" y1="165.6953" y2="165.6953"/><line style="stroke:#181818;stroke-width:1.0;" x1="450" x2="450" y1="165.6953" y2="178.6953"/><line style="stroke:#181818;stroke-width:1.0;" x1="409" x2="450" y1="178.6953" y2="178.6953"/><polygon fill="#181818" points="419,174.6953,409,178.6953,419,182.6953,415,178.6953" style="stroke:#181818;stroke-width:1.0;"/><text fill="#000000" font-family="sans-serif" font-size="13" lengthAdjust="spacing" textLength="133" x="415" y="160.6294">validateCredentials()</text><polygon fill="#181818" points="83,203.8281,73,207.8281,83,211.8281,79,207.8281" style="stroke:#181818;stroke-width:1.0;"/><line style="stroke:#181818;stroke-width:1.0;stroke-dasharray:2.0,2.0;" x1="77" x2="407" y1="207.8281" y2="207.8281"/><text fill="#000000" font-family="sans-serif" font-size="13" lengthAdjust="spacing" textLength="82" x="89" y="202.7622">loginSuccess</text><line style="stroke:#000000;stroke-width:1.0;stroke-dasharray:2.0,2.0;" x1="30" x2="560" y1="216.8281" y2="216.8281"/><text fill="#000000" font-family="sans-serif" font-size="11" font-weight="bold" lengthAdjust="spacing" textLength="132" x="35" y="227.0386">[invalid credentials]</text><polygon fill="#181818" points="83,247.7656,73,251.7656,83,255.7656,79,251.7656" style="stroke:#181818;stroke-width:1.0;"/><line style="stroke:#181818;stroke-width:1.0;stroke-dasharray:2.0,2.0;" x1="77" x2="407" y1="251.7656" y2="251.7656"/><text fill="#000000" font-family="sans-serif" font-size="13" lengthAdjust="spacing" textLength="169" x="89" y="246.6997">loginFailure(errorMessage)</text><polygon fill="#181818" points="396,283.8984,406,287.8984,396,291.8984,400,287.8984" style="stroke:#181818;stroke-width:1.0;"/><line style="stroke:#181818;stroke-width:1.0;" x1="72" x2="402" y1="287.8984" y2="287.8984"/><text fill="#000000" font-family="sans-serif" font-size="13" lengthAdjust="spacing" textLength="121" x="79" y="282.8325">selectBook(bookId)</text><polygon fill="#181818" points="605,313.0313,615,317.0313,605,321.0313,609,317.0313" style="stroke:#181818;stroke-width:1.0;"/><line style="stroke:#181818;stroke-width:1.0;" x1="408" x2="611" y1="317.0313" y2="317.0313"/><text fill="#000000" font-family="sans-serif" font-size="13" lengthAdjust="spacing" textLength="148" x="415" y="311.9653">getBookDetails(bookId)</text><path d="M10,332.0313 L76,332.0313 L76,339.1641 L66,349.1641 L10,349.1641 L10,332.0313 " fill="#EEEEEE" style="stroke:#000000;stroke-width:1.5;"/><rect fill="none" height="589.9375" style="stroke:#000000;stroke-width:1.5;" width="841" x="10" y="332.0313"/><text fill="#000000" font-family="sans-serif" font-size="13" font-weight="bold" lengthAdjust="spacing" textLength="21" x="25" y="345.0981">alt</text><text fill="#000000" font-family="sans-serif" font-size="11" font-weight="bold" lengthAdjust="spacing" textLength="87" x="91" y="344.2417">[book exists]</text><polygon fill="#181818" points="762,366.2969,772,370.2969,762,374.2969,766,370.2969" style="stroke:#181818;stroke-width:1.0;"/><line style="stroke:#181818;stroke-width:1.0;" x1="617" x2="768" y1="370.2969" y2="370.2969"/><text fill="#000000" font-family="sans-serif" font-size="13" lengthAdjust="spacing" textLength="133" x="624" y="365.231">retrieveBook(bookId)</text><polygon fill="#181818" points="628,395.4297,618,399.4297,628,403.4297,624,399.4297" style="stroke:#181818;stroke-width:1.0;"/><line style="stroke:#181818;stroke-width:1.0;stroke-dasharray:2.0,2.0;" x1="622" x2="773" y1="399.4297" y2="399.4297"/><text fill="#000000" font-family="sans-serif" font-size="13" lengthAdjust="spacing" textLength="75" x="634" y="394.3638">bookDetails</text><polygon fill="#181818" points="419,424.5625,409,428.5625,419,432.5625,415,428.5625" style="stroke:#181818;stroke-width:1.0;"/><line style="stroke:#181818;stroke-width:1.0;stroke-dasharray:2.0,2.0;" x1="413" x2="616" y1="428.5625" y2="428.5625"/><text fill="#000000" font-family="sans-serif" font-size="13" lengthAdjust="spacing" textLength="75" x="425" y="423.4966">bookDetails</text><path d="M20,443.5625 L86,443.5625 L86,450.6953 L76,460.6953 L20,460.6953 L20,443.5625 " fill="#EEEEEE" style="stroke:#000000;stroke-width:1.5;"/><rect fill="none" height="398.3359" style="stroke:#000000;stroke-width:1.5;" width="821" x="20" y="443.5625"/><text fill="#000000" font-family="sans-serif" font-size="13" font-weight="bold" lengthAdjust="spacing" textLength="21" x="35" y="456.6294">alt</text><text fill="#000000" font-family="sans-serif" font-size="11" font-weight="bold" lengthAdjust="spacing" textLength="215" x="101" y="455.7729">[book is available for download]</text><polygon fill="#181818" points="396,477.8281,406,481.8281,396,485.8281,400,481.8281" style="stroke:#181818;stroke-width:1.0;"/><line style="stroke:#181818;stroke-width:1.0;" x1="72" x2="402" y1="481.8281" y2="481.8281"/><text fill="#000000" font-family="sans-serif" font-size="13" lengthAdjust="spacing" textLength="145" x="79" y="476.7622">downloadBook(bookId)</text><polygon fill="#181818" points="605,506.9609,615,510.9609,605,514.9609,609,510.9609" style="stroke:#181818;stroke-width:1.0;"/><line style="stroke:#181818;stroke-width:1.0;" x1="408" x2="611" y1="510.9609" y2="510.9609"/><text fill="#000000" font-family="sans-serif" font-size="13" lengthAdjust="spacing" textLength="145" x="415" y="505.895">downloadBook(bookId)</text><polygon fill="#181818" points="762,536.0938,772,540.0938,762,544.0938,766,540.0938" style="stroke:#181818;stroke-width:1.0;"/><line style="stroke:#181818;stroke-width:1.0;" x1="617" x2="768" y1="540.0938" y2="540.0938"/><text fill="#000000" font-family="sans-serif" font-size="13" lengthAdjust="spacing" textLength="125" x="624" y="535.0278">getBookFile(bookId)</text><path d="M30,555.0938 L96,555.0938 L96,562.2266 L86,572.2266 L30,572.2266 L30,555.0938 " fill="#EEEEEE" style="stroke:#000000;stroke-width:1.5;"/><rect fill="none" height="206.7344" style="stroke:#000000;stroke-width:1.5;" width="801" x="30" y="555.0938"/><text fill="#000000" font-family="sans-serif" font-size="13" font-weight="bold" lengthAdjust="spacing" textLength="21" x="45" y="568.1606">alt</text><text fill="#000000" font-family="sans-serif" font-size="11" font-weight="bold" lengthAdjust="spacing" textLength="192" x="111" y="567.3042">[file exists and is accessible]</text><polygon fill="#181818" points="628,589.3594,618,593.3594,628,597.3594,624,593.3594" style="stroke:#181818;stroke-width:1.0;"/><line style="stroke:#181818;stroke-width:1.0;stroke-dasharray:2.0,2.0;" x1="622" x2="773" y1="593.3594" y2="593.3594"/><text fill="#000000" font-family="sans-serif" font-size="13" lengthAdjust="spacing" textLength="63" x="634" y="588.2935">fileDetails</text><polygon fill="#181818" points="419,618.4922,409,622.4922,419,626.4922,415,622.4922" style="stroke:#181818;stroke-width:1.0;"/><line style="stroke:#181818;stroke-width:1.0;stroke-dasharray:2.0,2.0;" x1="413" x2="616" y1="622.4922" y2="622.4922"/><text fill="#000000" font-family="sans-serif" font-size="13" lengthAdjust="spacing" textLength="185" x="425" y="617.4263">provideDownload(fileDetails)</text><polygon fill="#181818" points="83,647.625,73,651.625,83,655.625,79,651.625" style="stroke:#181818;stroke-width:1.0;"/><line style="stroke:#181818;stroke-width:1.0;stroke-dasharray:2.0,2.0;" x1="77" x2="407" y1="651.625" y2="651.625"/><text fill="#000000" font-family="sans-serif" font-size="13" lengthAdjust="spacing" textLength="160" x="89" y="646.5591">downloadLink(fileDetails)</text><line style="stroke:#000000;stroke-width:1.0;stroke-dasharray:2.0,2.0;" x1="30" x2="831" y1="660.625" y2="660.625"/><text fill="#000000" font-family="sans-serif" font-size="11" font-weight="bold" lengthAdjust="spacing" textLength="208" x="35" y="670.8354">[file not found or inaccessible]</text><polygon fill="#181818" points="628,691.5625,618,695.5625,628,699.5625,624,695.5625" style="stroke:#181818;stroke-width:1.0;"/><line style="stroke:#181818;stroke-width:1.0;stroke-dasharray:2.0,2.0;" x1="622" x2="773" y1="695.5625" y2="695.5625"/><text fill="#000000" font-family="sans-serif" font-size="13" lengthAdjust="spacing" textLength="31" x="634" y="690.4966">error</text><polygon fill="#181818" points="419,720.6953,409,724.6953,419,728.6953,415,724.6953" style="stroke:#181818;stroke-width:1.0;"/><line style="stroke:#181818;stroke-width:1.0;stroke-dasharray:2.0,2.0;" x1="413" x2="616" y1="724.6953" y2="724.6953"/><text fill="#000000" font-family="sans-serif" font-size="13" lengthAdjust="spacing" textLength="31" x="425" y="719.6294">error</text><polygon fill="#181818" points="83,749.8281,73,753.8281,83,757.8281,79,753.8281" style="stroke:#181818;stroke-width:1.0;"/><line style="stroke:#181818;stroke-width:1.0;stroke-dasharray:2.0,2.0;" x1="77" x2="407" y1="753.8281" y2="753.8281"/><text fill="#000000" font-family="sans-serif" font-size="13" lengthAdjust="spacing" textLength="292" x="89" y="748.7622">errorMessage("File not found or inaccessible")</text><line style="stroke:#000000;stroke-width:1.0;stroke-dasharray:2.0,2.0;" x1="20" x2="841" y1="769.8281" y2="769.8281"/><text fill="#000000" font-family="sans-serif" font-size="11" font-weight="bold" lengthAdjust="spacing" textLength="243" x="25" y="780.0386">[book is not available for download]</text><polygon fill="#181818" points="419,800.7656,409,804.7656,419,808.7656,415,804.7656" style="stroke:#181818;stroke-width:1.0;"/><line style="stroke:#181818;stroke-width:1.0;stroke-dasharray:2.0,2.0;" x1="413" x2="616" y1="804.7656" y2="804.7656"/><text fill="#000000" font-family="sans-serif" font-size="13" lengthAdjust="spacing" textLength="31" x="425" y="799.6997">error</text><polygon fill="#181818" points="83,829.8984,73,833.8984,83,837.8984,79,833.8984" style="stroke:#181818;stroke-width:1.0;"/><line style="stroke:#181818;stroke-width:1.0;stroke-dasharray:2.0,2.0;" x1="77" x2="407" y1="833.8984" y2="833.8984"/><text fill="#000000" font-family="sans-serif" font-size="13" lengthAdjust="spacing" textLength="312" x="89" y="828.8325">errorMessage("Book not available for download")</text><line style="stroke:#000000;stroke-width:1.0;stroke-dasharray:2.0,2.0;" x1="10" x2="851" y1="849.8984" y2="849.8984"/><text fill="#000000" font-family="sans-serif" font-size="11" font-weight="bold" lengthAdjust="spacing" textLength="115" x="15" y="860.1089">[book not found]</text><polygon fill="#181818" points="419,880.8359,409,884.8359,419,888.8359,415,884.8359" style="stroke:#181818;stroke-width:1.0;"/><line style="stroke:#181818;stroke-width:1.0;stroke-dasharray:2.0,2.0;" x1="413" x2="616" y1="884.8359" y2="884.8359"/><text fill="#000000" font-family="sans-serif" font-size="13" lengthAdjust="spacing" textLength="31" x="425" y="879.77">error</text><polygon fill="#181818" points="83,909.9688,73,913.9688,83,917.9688,79,913.9688" style="stroke:#181818;stroke-width:1.0;"/><line style="stroke:#181818;stroke-width:1.0;stroke-dasharray:2.0,2.0;" x1="77" x2="407" y1="913.9688" y2="913.9688"/><text fill="#000000" font-family="sans-serif" font-size="13" lengthAdjust="spacing" textLength="204" x="89" y="908.9028">errorMessage("Book not found")</text><!--SRC=[ZPF1Zi8W48RlF0NfgJti2-nX3zMORB8z-GHOHZEHW07QtSTVcD8MMwjwC8Rv_vdlXr6qtbX-z9q4xTbDM8yjteJsl4Y7EwEzDKg1BRXm_BYxLzN6N1UI-e6aCHBKK6qOIwtvnrVenp-vCXVKPMiXdg9Ghc92UTuBXP9dnuo7Jt2CFX883xjPKbQJAAhIe3JYsBKjECT0EU2ej_klhGU1ghDGWhN6Dg69k435GCjr6WSAMXzJbwVmzIqhDZ3NiNe1Akt1XuvkKiIyyJU7FtH-8Aa7LnDS5hn5wE6kAsaQegNMfxdlv1-XbhLf7Zek-d0iJWhuEIo3DBzQ6I59HXUoo3SALYppwzGlTLcsT2C7LB2IHSnpAAHhuK9B8gPtn80yAPUN4Lrvu7pmcEHcJOyIzWcqp3pLdMcr4sEs7zJNnpRQCKBN9cGmNI0Fjulw3NPQiatgTNM5bszfMHoUKXGPinvUdTZ7xOZ65nkoJVU2BBxxam49BMBDI5CGjZtwtR7Kfw3_yJy0]--></g></svg>