<?xml version="1.0" encoding="us-ascii" standalone="no"?><svg xmlns="http://www.w3.org/2000/svg" xmlns:xlink="http://www.w3.org/1999/xlink" contentStyleType="text/css" height="873px" preserveAspectRatio="none" style="width:916px;height:873px;background:#FFFFFF;" version="1.1" viewBox="0 0 916 873" width="916px" zoomAndPan="magnify"><defs/><g><rect fill="none" height="619.0703" style="stroke:#000000;stroke-width:1.5;" width="899.5" x="10" y="156.5625"/><rect fill="none" height="398.3359" style="stroke:#000000;stroke-width:1.5;" width="879.5" x="20" y="297.2266"/><rect fill="none" height="206.7344" style="stroke:#000000;stroke-width:1.5;" width="771.5" x="30" y="408.7578"/><line style="stroke:#181818;stroke-width:0.5;stroke-dasharray:5.0,5.0;" x1="66" x2="66" y1="81.2969" y2="792.6328"/><line style="stroke:#181818;stroke-width:0.5;stroke-dasharray:5.0,5.0;" x1="292.5" x2="292.5" y1="81.2969" y2="792.6328"/><line style="stroke:#181818;stroke-width:0.5;stroke-dasharray:5.0,5.0;" x1="585.5" x2="585.5" y1="81.2969" y2="792.6328"/><line style="stroke:#181818;stroke-width:0.5;stroke-dasharray:5.0,5.0;" x1="744.5" x2="744.5" y1="81.2969" y2="792.6328"/><line style="stroke:#181818;stroke-width:0.5;stroke-dasharray:5.0,5.0;" x1="845.5" x2="845.5" y1="81.2969" y2="792.6328"/><text fill="#000000" font-family="sans-serif" font-size="14" lengthAdjust="spacing" textLength="46" x="40" y="77.9951">Admin</text><ellipse cx="66" cy="13.5" fill="#E2E2F0" rx="8" ry="8" style="stroke:#181818;stroke-width:0.5;"/><path d="M66,21.5 L66,48.5 M53,29.5 L79,29.5 M66,48.5 L53,63.5 M66,48.5 L79,63.5 " fill="none" style="stroke:#181818;stroke-width:0.5;"/><text fill="#000000" font-family="sans-serif" font-size="14" lengthAdjust="spacing" textLength="46" x="40" y="804.6279">Admin</text><ellipse cx="66" cy="816.4297" fill="#E2E2F0" rx="8" ry="8" style="stroke:#181818;stroke-width:0.5;"/><path d="M66,824.4297 L66,851.4297 M53,832.4297 L79,832.4297 M66,851.4297 L53,866.4297 M66,851.4297 L79,866.4297 " fill="none" style="stroke:#181818;stroke-width:0.5;"/><rect fill="#E2E2F0" height="30.2969" rx="2.5" ry="2.5" style="stroke:#181818;stroke-width:0.5;" width="133" x="226.5" y="50"/><text fill="#000000" font-family="sans-serif" font-size="14" lengthAdjust="spacing" textLength="119" x="233.5" y="69.9951">AdminController</text><rect fill="#E2E2F0" height="30.2969" rx="2.5" ry="2.5" style="stroke:#181818;stroke-width:0.5;" width="133" x="226.5" y="791.6328"/><text fill="#000000" font-family="sans-serif" font-size="14" lengthAdjust="spacing" textLength="119" x="233.5" y="811.6279">AdminController</text><rect fill="#E2E2F0" height="30.2969" rx="2.5" ry="2.5" style="stroke:#181818;stroke-width:0.5;" width="123" x="524.5" y="50"/><text fill="#000000" font-family="sans-serif" font-size="14" lengthAdjust="spacing" textLength="109" x="531.5" y="69.9951">ClassController</text><rect fill="#E2E2F0" height="30.2969" rx="2.5" ry="2.5" style="stroke:#181818;stroke-width:0.5;" width="123" x="524.5" y="791.6328"/><text fill="#000000" font-family="sans-serif" font-size="14" lengthAdjust="spacing" textLength="109" x="531.5" y="811.6279">ClassController</text><rect fill="#E2E2F0" height="30.2969" rx="2.5" ry="2.5" style="stroke:#181818;stroke-width:0.5;" width="93" x="698.5" y="50"/><text fill="#000000" font-family="sans-serif" font-size="14" lengthAdjust="spacing" textLength="79" x="705.5" y="69.9951">ClassModel</text><rect fill="#E2E2F0" height="30.2969" rx="2.5" ry="2.5" style="stroke:#181818;stroke-width:0.5;" width="93" x="698.5" y="791.6328"/><text fill="#000000" font-family="sans-serif" font-size="14" lengthAdjust="spacing" textLength="79" x="705.5" y="811.6279">ClassModel</text><rect fill="#E2E2F0" height="30.2969" rx="2.5" ry="2.5" style="stroke:#181818;stroke-width:0.5;" width="88" x="801.5" y="50"/><text fill="#000000" font-family="sans-serif" font-size="14" lengthAdjust="spacing" textLength="74" x="808.5" y="69.9951">UserModel</text><rect fill="#E2E2F0" height="30.2969" rx="2.5" ry="2.5" style="stroke:#181818;stroke-width:0.5;" width="88" x="801.5" y="791.6328"/><text fill="#000000" font-family="sans-serif" font-size="14" lengthAdjust="spacing" textLength="74" x="808.5" y="811.6279">UserModel</text><polygon fill="#181818" points="281,108.4297,291,112.4297,281,116.4297,285,112.4297" style="stroke:#181818;stroke-width:1.0;"/><line style="stroke:#181818;stroke-width:1.0;" x1="66" x2="287" y1="112.4297" y2="112.4297"/><text fill="#000000" font-family="sans-serif" font-size="13" lengthAdjust="spacing" textLength="203" x="73" y="107.3638">addUserToClass(userId, classId)</text><polygon fill="#181818" points="574,137.5625,584,141.5625,574,145.5625,578,141.5625" style="stroke:#181818;stroke-width:1.0;"/><line style="stroke:#181818;stroke-width:1.0;" x1="293" x2="580" y1="141.5625" y2="141.5625"/><text fill="#000000" font-family="sans-serif" font-size="13" lengthAdjust="spacing" textLength="152" x="300" y="136.4966">getClassDetails(classId)</text><path d="M10,156.5625 L76,156.5625 L76,163.6953 L66,173.6953 L10,173.6953 L10,156.5625 " fill="#EEEEEE" style="stroke:#000000;stroke-width:1.5;"/><rect fill="none" height="619.0703" style="stroke:#000000;stroke-width:1.5;" width="899.5" x="10" y="156.5625"/><text fill="#000000" font-family="sans-serif" font-size="13" font-weight="bold" lengthAdjust="spacing" textLength="21" x="25" y="169.6294">alt</text><text fill="#000000" font-family="sans-serif" font-size="11" font-weight="bold" lengthAdjust="spacing" textLength="87" x="91" y="168.7729">[class exists]</text><polygon fill="#181818" points="733,190.8281,743,194.8281,733,198.8281,737,194.8281" style="stroke:#181818;stroke-width:1.0;"/><line style="stroke:#181818;stroke-width:1.0;" x1="586" x2="739" y1="194.8281" y2="194.8281"/><text fill="#000000" font-family="sans-serif" font-size="13" lengthAdjust="spacing" textLength="103" x="593" y="189.7622">retrieve(classId)</text><polygon fill="#181818" points="597,219.9609,587,223.9609,597,227.9609,593,223.9609" style="stroke:#181818;stroke-width:1.0;"/><line style="stroke:#181818;stroke-width:1.0;stroke-dasharray:2.0,2.0;" x1="591" x2="744" y1="223.9609" y2="223.9609"/><text fill="#000000" font-family="sans-serif" font-size="13" lengthAdjust="spacing" textLength="76" x="603" y="218.895">classDetails</text><polygon fill="#181818" points="304,249.0938,294,253.0938,304,257.0938,300,253.0938" style="stroke:#181818;stroke-width:1.0;"/><line style="stroke:#181818;stroke-width:1.0;stroke-dasharray:2.0,2.0;" x1="298" x2="585" y1="253.0938" y2="253.0938"/><text fill="#000000" font-family="sans-serif" font-size="13" lengthAdjust="spacing" textLength="76" x="310" y="248.0278">classDetails</text><polygon fill="#181818" points="833.5,278.2266,843.5,282.2266,833.5,286.2266,837.5,282.2266" style="stroke:#181818;stroke-width:1.0;"/><line style="stroke:#181818;stroke-width:1.0;" x1="293" x2="839.5" y1="282.2266" y2="282.2266"/><text fill="#000000" font-family="sans-serif" font-size="13" lengthAdjust="spacing" textLength="128" x="300" y="277.1606">retrieveUser(userId)</text><path d="M20,297.2266 L86,297.2266 L86,304.3594 L76,314.3594 L20,314.3594 L20,297.2266 " fill="#EEEEEE" style="stroke:#000000;stroke-width:1.5;"/><rect fill="none" height="398.3359" style="stroke:#000000;stroke-width:1.5;" width="879.5" x="20" y="297.2266"/><text fill="#000000" font-family="sans-serif" font-size="13" font-weight="bold" lengthAdjust="spacing" textLength="21" x="35" y="310.2935">alt</text><text fill="#000000" font-family="sans-serif" font-size="11" font-weight="bold" lengthAdjust="spacing" textLength="83" x="101" y="309.437">[user exists]</text><polygon fill="#181818" points="304,331.4922,294,335.4922,304,339.4922,300,335.4922" style="stroke:#181818;stroke-width:1.0;"/><line style="stroke:#181818;stroke-width:1.0;stroke-dasharray:2.0,2.0;" x1="298" x2="844.5" y1="335.4922" y2="335.4922"/><text fill="#000000" font-family="sans-serif" font-size="13" lengthAdjust="spacing" textLength="72" x="310" y="330.4263">userDetails</text><polygon fill="#181818" points="574,360.625,584,364.625,574,368.625,578,364.625" style="stroke:#181818;stroke-width:1.0;"/><line style="stroke:#181818;stroke-width:1.0;" x1="293" x2="580" y1="364.625" y2="364.625"/><text fill="#000000" font-family="sans-serif" font-size="13" lengthAdjust="spacing" textLength="269" x="300" y="359.5591">addUserToClass(userDetails, classDetails)</text><polygon fill="#181818" points="733,389.7578,743,393.7578,733,397.7578,737,393.7578" style="stroke:#181818;stroke-width:1.0;"/><line style="stroke:#181818;stroke-width:1.0;" x1="586" x2="739" y1="393.7578" y2="393.7578"/><text fill="#000000" font-family="sans-serif" font-size="13" lengthAdjust="spacing" textLength="135" x="593" y="388.6919">addUser(userDetails)</text><path d="M30,408.7578 L96,408.7578 L96,415.8906 L86,425.8906 L30,425.8906 L30,408.7578 " fill="#EEEEEE" style="stroke:#000000;stroke-width:1.5;"/><rect fill="none" height="206.7344" style="stroke:#000000;stroke-width:1.5;" width="771.5" x="30" y="408.7578"/><text fill="#000000" font-family="sans-serif" font-size="13" font-weight="bold" lengthAdjust="spacing" textLength="21" x="45" y="421.8247">alt</text><text fill="#000000" font-family="sans-serif" font-size="11" font-weight="bold" lengthAdjust="spacing" textLength="168" x="111" y="420.9683">[user added successfully]</text><polygon fill="#181818" points="597,443.0234,587,447.0234,597,451.0234,593,447.0234" style="stroke:#181818;stroke-width:1.0;"/><line style="stroke:#181818;stroke-width:1.0;stroke-dasharray:2.0,2.0;" x1="591" x2="744" y1="447.0234" y2="447.0234"/><text fill="#000000" font-family="sans-serif" font-size="13" lengthAdjust="spacing" textLength="81" x="603" y="441.9575">confirmation</text><polygon fill="#181818" points="304,472.1563,294,476.1563,304,480.1563,300,476.1563" style="stroke:#181818;stroke-width:1.0;"/><line style="stroke:#181818;stroke-width:1.0;stroke-dasharray:2.0,2.0;" x1="298" x2="585" y1="476.1563" y2="476.1563"/><text fill="#000000" font-family="sans-serif" font-size="13" lengthAdjust="spacing" textLength="81" x="310" y="471.0903">confirmation</text><polygon fill="#181818" points="77,501.2891,67,505.2891,77,509.2891,73,505.2891" style="stroke:#181818;stroke-width:1.0;"/><line style="stroke:#181818;stroke-width:1.0;stroke-dasharray:2.0,2.0;" x1="71" x2="292" y1="505.2891" y2="505.2891"/><text fill="#000000" font-family="sans-serif" font-size="13" lengthAdjust="spacing" textLength="197" x="83" y="500.2231">success("User added to class")</text><line style="stroke:#000000;stroke-width:1.0;stroke-dasharray:2.0,2.0;" x1="30" x2="801.5" y1="514.2891" y2="514.2891"/><text fill="#000000" font-family="sans-serif" font-size="11" font-weight="bold" lengthAdjust="spacing" textLength="110" x="35" y="524.4995">[user add failed]</text><polygon fill="#181818" points="597,545.2266,587,549.2266,597,553.2266,593,549.2266" style="stroke:#181818;stroke-width:1.0;"/><line style="stroke:#181818;stroke-width:1.0;stroke-dasharray:2.0,2.0;" x1="591" x2="744" y1="549.2266" y2="549.2266"/><text fill="#000000" font-family="sans-serif" font-size="13" lengthAdjust="spacing" textLength="31" x="603" y="544.1606">error</text><polygon fill="#181818" points="304,574.3594,294,578.3594,304,582.3594,300,578.3594" style="stroke:#181818;stroke-width:1.0;"/><line style="stroke:#181818;stroke-width:1.0;stroke-dasharray:2.0,2.0;" x1="298" x2="585" y1="578.3594" y2="578.3594"/><text fill="#000000" font-family="sans-serif" font-size="13" lengthAdjust="spacing" textLength="31" x="310" y="573.2935">error</text><polygon fill="#181818" points="77,603.4922,67,607.4922,77,611.4922,73,607.4922" style="stroke:#181818;stroke-width:1.0;"/><line style="stroke:#181818;stroke-width:1.0;stroke-dasharray:2.0,2.0;" x1="71" x2="292" y1="607.4922" y2="607.4922"/><text fill="#000000" font-family="sans-serif" font-size="13" lengthAdjust="spacing" textLength="174" x="83" y="602.4263">failure("Failed to add user")</text><line style="stroke:#000000;stroke-width:1.0;stroke-dasharray:2.0,2.0;" x1="20" x2="899.5" y1="623.4922" y2="623.4922"/><text fill="#000000" font-family="sans-serif" font-size="11" font-weight="bold" lengthAdjust="spacing" textLength="94" x="25" y="633.7026">[no such user]</text><polygon fill="#181818" points="304,654.4297,294,658.4297,304,662.4297,300,658.4297" style="stroke:#181818;stroke-width:1.0;"/><line style="stroke:#181818;stroke-width:1.0;stroke-dasharray:2.0,2.0;" x1="298" x2="844.5" y1="658.4297" y2="658.4297"/><text fill="#000000" font-family="sans-serif" font-size="13" lengthAdjust="spacing" textLength="31" x="310" y="653.3638">error</text><polygon fill="#181818" points="77,683.5625,67,687.5625,77,691.5625,73,687.5625" style="stroke:#181818;stroke-width:1.0;"/><line style="stroke:#181818;stroke-width:1.0;stroke-dasharray:2.0,2.0;" x1="71" x2="292" y1="687.5625" y2="687.5625"/><text fill="#000000" font-family="sans-serif" font-size="13" lengthAdjust="spacing" textLength="143" x="83" y="682.4966">failure("No such user")</text><line style="stroke:#000000;stroke-width:1.0;stroke-dasharray:2.0,2.0;" x1="10" x2="909.5" y1="703.5625" y2="703.5625"/><text fill="#000000" font-family="sans-serif" font-size="11" font-weight="bold" lengthAdjust="spacing" textLength="98" x="15" y="713.7729">[no such class]</text><polygon fill="#181818" points="304,734.5,294,738.5,304,742.5,300,738.5" style="stroke:#181818;stroke-width:1.0;"/><line style="stroke:#181818;stroke-width:1.0;stroke-dasharray:2.0,2.0;" x1="298" x2="585" y1="738.5" y2="738.5"/><text fill="#000000" font-family="sans-serif" font-size="13" lengthAdjust="spacing" textLength="31" x="310" y="733.4341">error</text><polygon fill="#181818" points="77,763.6328,67,767.6328,77,771.6328,73,767.6328" style="stroke:#181818;stroke-width:1.0;"/><line style="stroke:#181818;stroke-width:1.0;stroke-dasharray:2.0,2.0;" x1="71" x2="292" y1="767.6328" y2="767.6328"/><text fill="#000000" font-family="sans-serif" font-size="13" lengthAdjust="spacing" textLength="147" x="83" y="762.5669">failure("No such class")</text><!--SRC=[XP9DRiCW48Ntd6BabICb5yYYaaLLAGjtLHy0cKcBH202NBMtBmF-mN6iUcKytxptPh3eWtNGo9iox2vSKBsw2nEWIf-uDS5PhT5L83mqVCrmBRn_OFWpfhKITIwtwtBdqItLhcKi6SFf9Rh16OIKX7pOf5CFyVqYZz3JwI8FB48HvOH-OaZGAmQXjAzdHkYG6m1_b0-UGNnuRcnZeyFW57xZqf605awJT5_epjrJn4qnP-fAQPfX39_LAHEToqZqTEqYJFLITz7cEwiPwUCgqs5kBcOUcykkXPl3HGeb-A7lqVlheFNlp6nMPCrLkPi8oferLAvg3sf6ADtzUNAiq-ynfWWsJrKjEL5xd8F2DGw1SZSWEcVTRh9jzI4IgGyEw-ejsL0SCYNtCf790L8oOscGhyGylU2rwPxXUo4pMf7DoY9jXkqFzP_sjDae_0S0]--></g></svg>