<?xml version="1.0" encoding="us-ascii" standalone="no"?><svg xmlns="http://www.w3.org/2000/svg" xmlns:xlink="http://www.w3.org/1999/xlink" contentStyleType="text/css" height="886px" preserveAspectRatio="none" style="width:996px;height:886px;background:#FFFFFF;" version="1.1" viewBox="0 0 996 886" width="996px" zoomAndPan="magnify"><defs/><g><rect fill="none" height="132.3359" style="stroke:#000000;stroke-width:1.5;" width="521" x="20" y="127.4297"/><rect fill="none" height="456.6016" style="stroke:#000000;stroke-width:1.5;" width="979" x="10" y="332.0313"/><rect fill="none" height="206.7344" style="stroke:#000000;stroke-width:1.5;" width="959" x="20" y="501.8281"/><line style="stroke:#181818;stroke-width:0.5;stroke-dasharray:5.0,5.0;" x1="56" x2="56" y1="81.2969" y2="805.6328"/><line style="stroke:#181818;stroke-width:0.5;stroke-dasharray:5.0,5.0;" x1="388.5" x2="388.5" y1="81.2969" y2="805.6328"/><line style="stroke:#181818;stroke-width:0.5;stroke-dasharray:5.0,5.0;" x1="657" x2="657" y1="81.2969" y2="805.6328"/><line style="stroke:#181818;stroke-width:0.5;stroke-dasharray:5.0,5.0;" x1="925" x2="925" y1="81.2969" y2="805.6328"/><text fill="#000000" font-family="sans-serif" font-size="14" lengthAdjust="spacing" textLength="46" x="30" y="77.9951">Admin</text><ellipse cx="56" cy="13.5" fill="#E2E2F0" rx="8" ry="8" style="stroke:#181818;stroke-width:0.5;"/><path d="M56,21.5 L56,48.5 M43,29.5 L69,29.5 M56,48.5 L43,63.5 M56,48.5 L69,63.5 " fill="none" style="stroke:#181818;stroke-width:0.5;"/><text fill="#000000" font-family="sans-serif" font-size="14" lengthAdjust="spacing" textLength="46" x="30" y="817.6279">Admin</text><ellipse cx="56" cy="829.4297" fill="#E2E2F0" rx="8" ry="8" style="stroke:#181818;stroke-width:0.5;"/><path d="M56,837.4297 L56,864.4297 M43,845.4297 L69,845.4297 M56,864.4297 L43,879.4297 M56,864.4297 L69,879.4297 " fill="none" style="stroke:#181818;stroke-width:0.5;"/><rect fill="#E2E2F0" height="30.2969" rx="2.5" ry="2.5" style="stroke:#181818;stroke-width:0.5;" width="133" x="322.5" y="50"/><text fill="#000000" font-family="sans-serif" font-size="14" lengthAdjust="spacing" textLength="119" x="329.5" y="69.9951">AdminController</text><rect fill="#E2E2F0" height="30.2969" rx="2.5" ry="2.5" style="stroke:#181818;stroke-width:0.5;" width="133" x="322.5" y="804.6328"/><text fill="#000000" font-family="sans-serif" font-size="14" lengthAdjust="spacing" textLength="119" x="329.5" y="824.6279">AdminController</text><rect fill="#E2E2F0" height="30.2969" rx="2.5" ry="2.5" style="stroke:#181818;stroke-width:0.5;" width="118" x="598" y="50"/><text fill="#000000" font-family="sans-serif" font-size="14" lengthAdjust="spacing" textLength="104" x="605" y="69.9951">UserController</text><rect fill="#E2E2F0" height="30.2969" rx="2.5" ry="2.5" style="stroke:#181818;stroke-width:0.5;" width="118" x="598" y="804.6328"/><text fill="#000000" font-family="sans-serif" font-size="14" lengthAdjust="spacing" textLength="104" x="605" y="824.6279">UserController</text><rect fill="#E2E2F0" height="30.2969" rx="2.5" ry="2.5" style="stroke:#181818;stroke-width:0.5;" width="88" x="881" y="50"/><text fill="#000000" font-family="sans-serif" font-size="14" lengthAdjust="spacing" textLength="74" x="888" y="69.9951">UserModel</text><rect fill="#E2E2F0" height="30.2969" rx="2.5" ry="2.5" style="stroke:#181818;stroke-width:0.5;" width="88" x="881" y="804.6328"/><text fill="#000000" font-family="sans-serif" font-size="14" lengthAdjust="spacing" textLength="74" x="888" y="824.6279">UserModel</text><polygon fill="#181818" points="377,108.4297,387,112.4297,377,116.4297,381,112.4297" style="stroke:#181818;stroke-width:1.0;"/><line style="stroke:#181818;stroke-width:1.0;" x1="56" x2="383" y1="112.4297" y2="112.4297"/><text fill="#000000" font-family="sans-serif" font-size="13" lengthAdjust="spacing" textLength="110" x="63" y="107.3638">login(credentials)</text><path d="M20,127.4297 L86,127.4297 L86,134.5625 L76,144.5625 L20,144.5625 L20,127.4297 " fill="#EEEEEE" style="stroke:#000000;stroke-width:1.5;"/><rect fill="none" height="132.3359" style="stroke:#000000;stroke-width:1.5;" width="521" x="20" y="127.4297"/><text fill="#000000" font-family="sans-serif" font-size="13" font-weight="bold" lengthAdjust="spacing" textLength="21" x="35" y="140.4966">alt</text><text fill="#000000" font-family="sans-serif" font-size="11" font-weight="bold" lengthAdjust="spacing" textLength="120" x="101" y="139.6401">[valid credentials]</text><line style="stroke:#181818;stroke-width:1.0;" x1="389" x2="431" y1="165.6953" y2="165.6953"/><line style="stroke:#181818;stroke-width:1.0;" x1="431" x2="431" y1="165.6953" y2="178.6953"/><line style="stroke:#181818;stroke-width:1.0;" x1="390" x2="431" y1="178.6953" y2="178.6953"/><polygon fill="#181818" points="400,174.6953,390,178.6953,400,182.6953,396,178.6953" style="stroke:#181818;stroke-width:1.0;"/><text fill="#000000" font-family="sans-serif" font-size="13" lengthAdjust="spacing" textLength="133" x="396" y="160.6294">validateCredentials()</text><polygon fill="#181818" points="67,203.8281,57,207.8281,67,211.8281,63,207.8281" style="stroke:#181818;stroke-width:1.0;"/><line style="stroke:#181818;stroke-width:1.0;stroke-dasharray:2.0,2.0;" x1="61" x2="388" y1="207.8281" y2="207.8281"/><text fill="#000000" font-family="sans-serif" font-size="13" lengthAdjust="spacing" textLength="82" x="73" y="202.7622">loginSuccess</text><line style="stroke:#000000;stroke-width:1.0;stroke-dasharray:2.0,2.0;" x1="20" x2="541" y1="216.8281" y2="216.8281"/><text fill="#000000" font-family="sans-serif" font-size="11" font-weight="bold" lengthAdjust="spacing" textLength="132" x="25" y="227.0386">[invalid credentials]</text><polygon fill="#181818" points="67,247.7656,57,251.7656,67,255.7656,63,251.7656" style="stroke:#181818;stroke-width:1.0;"/><line style="stroke:#181818;stroke-width:1.0;stroke-dasharray:2.0,2.0;" x1="61" x2="388" y1="251.7656" y2="251.7656"/><text fill="#000000" font-family="sans-serif" font-size="13" lengthAdjust="spacing" textLength="169" x="73" y="246.6997">loginFailure(errorMessage)</text><polygon fill="#181818" points="377,283.8984,387,287.8984,377,291.8984,381,287.8984" style="stroke:#181818;stroke-width:1.0;"/><line style="stroke:#181818;stroke-width:1.0;" x1="56" x2="383" y1="287.8984" y2="287.8984"/><text fill="#000000" font-family="sans-serif" font-size="13" lengthAdjust="spacing" textLength="158" x="63" y="282.8325">selectStudent(studentId)</text><polygon fill="#181818" points="645,313.0313,655,317.0313,645,321.0313,649,317.0313" style="stroke:#181818;stroke-width:1.0;"/><line style="stroke:#181818;stroke-width:1.0;" x1="389" x2="651" y1="317.0313" y2="317.0313"/><text fill="#000000" font-family="sans-serif" font-size="13" lengthAdjust="spacing" textLength="185" x="396" y="311.9653">getStudentDetails(studentId)</text><path d="M10,332.0313 L76,332.0313 L76,339.1641 L66,349.1641 L10,349.1641 L10,332.0313 " fill="#EEEEEE" style="stroke:#000000;stroke-width:1.5;"/><rect fill="none" height="456.6016" style="stroke:#000000;stroke-width:1.5;" width="979" x="10" y="332.0313"/><text fill="#000000" font-family="sans-serif" font-size="13" font-weight="bold" lengthAdjust="spacing" textLength="21" x="25" y="345.0981">alt</text><text fill="#000000" font-family="sans-serif" font-size="11" font-weight="bold" lengthAdjust="spacing" textLength="107" x="91" y="344.2417">[student exists]</text><polygon fill="#181818" points="913,366.2969,923,370.2969,913,374.2969,917,370.2969" style="stroke:#181818;stroke-width:1.0;"/><line style="stroke:#181818;stroke-width:1.0;" x1="657" x2="919" y1="370.2969" y2="370.2969"/><text fill="#000000" font-family="sans-serif" font-size="13" lengthAdjust="spacing" textLength="170" x="664" y="365.231">retrieveStudent(studentId)</text><polygon fill="#181818" points="668,395.4297,658,399.4297,668,403.4297,664,399.4297" style="stroke:#181818;stroke-width:1.0;"/><line style="stroke:#181818;stroke-width:1.0;stroke-dasharray:2.0,2.0;" x1="662" x2="924" y1="399.4297" y2="399.4297"/><text fill="#000000" font-family="sans-serif" font-size="13" lengthAdjust="spacing" textLength="93" x="674" y="394.3638">studentDetails</text><polygon fill="#181818" points="400,424.5625,390,428.5625,400,432.5625,396,428.5625" style="stroke:#181818;stroke-width:1.0;"/><line style="stroke:#181818;stroke-width:1.0;stroke-dasharray:2.0,2.0;" x1="394" x2="656" y1="428.5625" y2="428.5625"/><text fill="#000000" font-family="sans-serif" font-size="13" lengthAdjust="spacing" textLength="93" x="406" y="423.4966">studentDetails</text><polygon fill="#181818" points="377,453.6953,387,457.6953,377,461.6953,381,457.6953" style="stroke:#181818;stroke-width:1.0;"/><line style="stroke:#181818;stroke-width:1.0;" x1="56" x2="383" y1="457.6953" y2="457.6953"/><text fill="#000000" font-family="sans-serif" font-size="13" lengthAdjust="spacing" textLength="267" x="63" y="452.6294">editStudentDetails(studentId, newDetails)</text><polygon fill="#181818" points="645,482.8281,655,486.8281,645,490.8281,649,486.8281" style="stroke:#181818;stroke-width:1.0;"/><line style="stroke:#181818;stroke-width:1.0;" x1="389" x2="651" y1="486.8281" y2="486.8281"/><text fill="#000000" font-family="sans-serif" font-size="13" lengthAdjust="spacing" textLength="244" x="396" y="481.7622">updateStudent(studentId, newDetails)</text><path d="M20,501.8281 L86,501.8281 L86,508.9609 L76,518.9609 L20,518.9609 L20,501.8281 " fill="#EEEEEE" style="stroke:#000000;stroke-width:1.5;"/><rect fill="none" height="206.7344" style="stroke:#000000;stroke-width:1.5;" width="959" x="20" y="501.8281"/><text fill="#000000" font-family="sans-serif" font-size="13" font-weight="bold" lengthAdjust="spacing" textLength="21" x="35" y="514.895">alt</text><text fill="#000000" font-family="sans-serif" font-size="11" font-weight="bold" lengthAdjust="spacing" textLength="285" x="101" y="514.0386">[details are valid and update is successful]</text><polygon fill="#181818" points="913,536.0938,923,540.0938,913,544.0938,917,540.0938" style="stroke:#181818;stroke-width:1.0;"/><line style="stroke:#181818;stroke-width:1.0;" x1="657" x2="919" y1="540.0938" y2="540.0938"/><text fill="#000000" font-family="sans-serif" font-size="13" lengthAdjust="spacing" textLength="244" x="664" y="535.0278">updateStudent(studentId, newDetails)</text><polygon fill="#181818" points="668,565.2266,658,569.2266,668,573.2266,664,569.2266" style="stroke:#181818;stroke-width:1.0;"/><line style="stroke:#181818;stroke-width:1.0;stroke-dasharray:2.0,2.0;" x1="662" x2="924" y1="569.2266" y2="569.2266"/><text fill="#000000" font-family="sans-serif" font-size="13" lengthAdjust="spacing" textLength="128" x="674" y="564.1606">updateConfirmation</text><polygon fill="#181818" points="400,594.3594,390,598.3594,400,602.3594,396,598.3594" style="stroke:#181818;stroke-width:1.0;"/><line style="stroke:#181818;stroke-width:1.0;stroke-dasharray:2.0,2.0;" x1="394" x2="656" y1="598.3594" y2="598.3594"/><text fill="#000000" font-family="sans-serif" font-size="13" lengthAdjust="spacing" textLength="128" x="406" y="593.2935">updateConfirmation</text><polygon fill="#181818" points="67,623.4922,57,627.4922,67,631.4922,63,627.4922" style="stroke:#181818;stroke-width:1.0;"/><line style="stroke:#181818;stroke-width:1.0;stroke-dasharray:2.0,2.0;" x1="61" x2="388" y1="627.4922" y2="627.4922"/><text fill="#000000" font-family="sans-serif" font-size="13" lengthAdjust="spacing" textLength="280" x="73" y="622.4263">successMessage("Student details updated")</text><line style="stroke:#000000;stroke-width:1.0;stroke-dasharray:2.0,2.0;" x1="20" x2="979" y1="636.4922" y2="636.4922"/><text fill="#000000" font-family="sans-serif" font-size="11" font-weight="bold" lengthAdjust="spacing" textLength="216" x="25" y="646.7026">[invalid details or update failed]</text><polygon fill="#181818" points="400,667.4297,390,671.4297,400,675.4297,396,671.4297" style="stroke:#181818;stroke-width:1.0;"/><line style="stroke:#181818;stroke-width:1.0;stroke-dasharray:2.0,2.0;" x1="394" x2="656" y1="671.4297" y2="671.4297"/><text fill="#000000" font-family="sans-serif" font-size="13" lengthAdjust="spacing" textLength="31" x="406" y="666.3638">error</text><polygon fill="#181818" points="67,696.5625,57,700.5625,67,704.5625,63,700.5625" style="stroke:#181818;stroke-width:1.0;"/><line style="stroke:#181818;stroke-width:1.0;stroke-dasharray:2.0,2.0;" x1="61" x2="388" y1="700.5625" y2="700.5625"/><text fill="#000000" font-family="sans-serif" font-size="13" lengthAdjust="spacing" textLength="309" x="73" y="695.4966">errorMessage("Failed to update student details")</text><line style="stroke:#000000;stroke-width:1.0;stroke-dasharray:2.0,2.0;" x1="10" x2="989" y1="716.5625" y2="716.5625"/><text fill="#000000" font-family="sans-serif" font-size="11" font-weight="bold" lengthAdjust="spacing" textLength="135" x="15" y="726.7729">[student not found]</text><polygon fill="#181818" points="400,747.5,390,751.5,400,755.5,396,751.5" style="stroke:#181818;stroke-width:1.0;"/><line style="stroke:#181818;stroke-width:1.0;stroke-dasharray:2.0,2.0;" x1="394" x2="656" y1="751.5" y2="751.5"/><text fill="#000000" font-family="sans-serif" font-size="13" lengthAdjust="spacing" textLength="31" x="406" y="746.4341">error</text><polygon fill="#181818" points="67,776.6328,57,780.6328,67,784.6328,63,780.6328" style="stroke:#181818;stroke-width:1.0;"/><line style="stroke:#181818;stroke-width:1.0;stroke-dasharray:2.0,2.0;" x1="61" x2="388" y1="780.6328" y2="780.6328"/><text fill="#000000" font-family="sans-serif" font-size="13" lengthAdjust="spacing" textLength="223" x="73" y="775.5669">errorMessage("Student not found")</text><!--SRC=[ZLDBQiCm4Dth58DNDhGNwA8GKW9TU1Ly066DWq2HmcYSzlYLzN5j9oxrncZqVYEDPC-EuA2ksegR9DQzladBKCNIqLacPmnI1TB3uRZ6T1vf0-cUG5gdqAJTLeWe3A_lGGtUmBYBjdLFgD2obiOtGXg6kpHQmQ8i87o1KNWH81cFlv2wcK4JAjfaW_FOz-YzGECHjDrNtn9FKfkHi4OYHssGa1Ti15grxSEZmPxFF4wIjK__JzM8bBcRC1SiW0_a8EoNkAdhl0JyrfvJg2xHsq0dPD9unoSc4Td6-D79hsnceJdiu_Qw6rHwD-eBMFpArMPnBT5ul4sNyf3maJErgr81966-S6bLbW3jmQTR6qOJAPlZ-BVLzd0ICSpjeEagMJkxaYzdy0TiCoavPnwFkigPvlwIagfIdDKC5aXuWxdl8QnHFKqKXt0ln792w-eKLO1TaVNhJ2LB6EIOfsnRnp2uqIgnR_wdyNahLCNdyWC0]--></g></svg>